<svg width="32" height="32" viewBox="0 0 32 32" fill="none" xmlns="http://www.w3.org/2000/svg">
<path d="M17.7075 16.7074L7.70751 26.7074C7.51987 26.8951 7.26537 27.0005 7.00001 27.0005C6.73464 27.0005 6.48015 26.8951 6.29251 26.7074C6.10487 26.5198 5.99945 26.2653 5.99945 25.9999C5.99945 25.7346 6.10487 25.4801 6.29251 25.2924L15.5863 15.9999L6.29251 6.70745C6.10487 6.5198 5.99945 6.26531 5.99945 5.99995C5.99945 5.73458 6.10487 5.48009 6.29251 5.29245C6.48015 5.1048 6.73464 4.99939 7.00001 4.99939C7.26537 4.99939 7.51987 5.1048 7.70751 5.29245L17.7075 15.2924C17.8005 15.3853 17.8742 15.4956 17.9246 15.617C17.9749 15.7384 18.0008 15.8685 18.0008 15.9999C18.0008 16.1314 17.9749 16.2615 17.9246 16.3829C17.8742 16.5043 17.8005 16.6146 17.7075 16.7074ZM27.7075 15.2924L17.7075 5.29245C17.5199 5.1048 17.2654 4.99939 17 4.99939C16.7346 4.99939 16.4801 5.1048 16.2925 5.29245C16.1049 5.48009 15.9995 5.73458 15.9995 5.99995C15.9995 6.26531 16.1049 6.5198 16.2925 6.70745L25.5863 15.9999L16.2925 25.2924C16.1049 25.4801 15.9995 25.7346 15.9995 25.9999C15.9995 26.2653 16.1049 26.5198 16.2925 26.7074C16.4801 26.8951 16.7346 27.0005 17 27.0005C17.2654 27.0005 17.5199 26.8951 17.7075 26.7074L27.7075 16.7074C27.8005 16.6146 27.8742 16.5043 27.9246 16.3829C27.9749 16.2615 28.0008 16.1314 28.0008 15.9999C28.0008 15.8685 27.9749 15.7384 27.9246 15.617C27.8742 15.4956 27.8005 15.3853 27.7075 15.2924Z" fill="white"/>
</svg>
