<svg width="1017" height="656" viewBox="0 0 1017 656" fill="none" xmlns="http://www.w3.org/2000/svg">
<g clip-path="url(#clip0_314_390)">
<path d="M466.37 222.631C505.596 217.076 542.787 201.734 574.876 178.48C622.806 143.743 723.092 84.6536 818.759 114.093C950.713 154.692 951.311 272.161 916.929 335.966C882.564 399.771 638.81 586.616 322.804 556.885C40.0337 530.272 -15.067 225.748 135.749 170.647C266.557 122.846 311.177 244.626 466.37 222.631V222.631Z" fill="#7775B7"/>
<g opacity="0.06">
<path d="M793.518 456.487C793.518 456.487 813.252 447.459 820.955 463.14C828.658 478.821 800.478 494.905 785.153 490.287C769.811 485.668 772.508 462.559 793.518 456.487Z" fill="black"/>
</g>
<g opacity="0.06">
<path d="M481.921 173.748C481.921 173.748 503.399 167.014 509.294 184.148C515.188 201.282 484.117 214.185 468.937 207.435C453.757 200.701 459.522 177.269 481.921 173.732V173.748Z" fill="black"/>
</g>
<path d="M404.454 5.52299V121.522C404.454 124.574 401.983 127.029 398.947 127.029H202.607C199.554 127.029 197.1 124.558 197.1 121.522V5.50684C197.084 2.47081 199.554 0 202.607 0H398.947C401.999 0 404.454 2.47081 404.454 5.52299Z" fill="white"/>
<path d="M283.724 71.2338C283.724 80.6487 280.155 89.24 274.309 95.7158C267.623 103.128 257.95 107.779 247.178 107.779C226.992 107.779 210.633 91.4201 210.633 71.2338C210.633 66.2275 211.634 61.4636 213.459 57.1033L247.178 71.2338L245.45 34.7368C246.015 34.7045 246.597 34.6884 247.178 34.6884C267.365 34.6884 283.724 51.0474 283.724 71.2338Z" fill="#5C4DA0"/>
<path d="M241.817 28.7131C230.9 29.2138 221.243 34.5107 214.88 42.5529C212.829 45.1368 211.133 48.0113 209.841 51.0958L243.544 65.2101L241.817 28.7131Z" fill="#675FA6"/>
<path d="M371.687 46.0734H366.665V51.0957H371.687V46.0734Z" fill="#3E3D98"/>
<path d="M393.053 47.9467H375.063C375.036 47.9467 375.014 47.9683 375.014 47.9951V49.1578C375.014 49.1846 375.036 49.2063 375.063 49.2063H393.053C393.079 49.2063 393.101 49.1846 393.101 49.1578V47.9951C393.101 47.9683 393.079 47.9467 393.053 47.9467Z" fill="#E8D3E7"/>
<path d="M371.687 37.1267H366.665V42.1491H371.687V37.1267Z" fill="#3E3D98"/>
<path d="M393.053 39H375.063C375.036 39 375.014 39.0217 375.014 39.0484V40.2112C375.014 40.2379 375.036 40.2596 375.063 40.2596H393.053C393.079 40.2596 393.101 40.2379 393.101 40.2112V39.0484C393.101 39.0217 393.079 39 393.053 39Z" fill="#E8D3E7"/>
<path d="M371.687 55.0038H366.665V60.0261H371.687V55.0038Z" fill="#675FA6"/>
<path d="M393.053 56.8932H375.063C375.036 56.8932 375.014 56.9149 375.014 56.9416V58.1044C375.014 58.1311 375.036 58.1528 375.063 58.1528H393.053C393.079 58.1528 393.101 58.1311 393.101 58.1044V56.9416C393.101 56.9149 393.079 56.8932 393.053 56.8932Z" fill="#E8D3E7"/>
<path d="M392.471 75.7554H367.295C366.956 75.7554 366.665 75.4808 366.665 75.1255C366.665 74.7864 366.94 74.4957 367.295 74.4957H392.471C392.81 74.4957 393.101 74.7703 393.101 75.1255C393.101 75.4647 392.827 75.7554 392.471 75.7554Z" fill="#E8D3E7"/>
<path d="M392.471 80.907H367.295C366.956 80.907 366.665 80.6324 366.665 80.2772C366.665 79.938 366.94 79.6473 367.295 79.6473H392.471C392.81 79.6473 393.101 79.9219 393.101 80.2772C393.101 80.6163 392.827 80.907 392.471 80.907Z" fill="#E8D3E7"/>
<path d="M392.471 86.0746H367.295C366.956 86.0746 366.665 85.8 366.665 85.4448C366.665 85.1056 366.94 84.8149 367.295 84.8149H392.471C392.81 84.8149 393.101 85.0895 393.101 85.4448C393.101 85.7839 392.827 86.0746 392.471 86.0746Z" fill="#E8D3E7"/>
<path d="M392.471 91.2262H367.295C366.956 91.2262 366.665 90.9516 366.665 90.5964C366.665 90.2572 366.94 89.9666 367.295 89.9666H392.471C392.81 89.9666 393.101 90.2411 393.101 90.5964C393.101 90.9355 392.827 91.2262 392.471 91.2262Z" fill="#E8D3E7"/>
<path d="M392.471 96.3939H367.295C366.956 96.3939 366.665 96.1194 366.665 95.7641C366.665 95.425 366.94 95.1343 367.295 95.1343H392.471C392.81 95.1343 393.101 95.4088 393.101 95.7641C393.101 96.1032 392.827 96.3939 392.471 96.3939Z" fill="#E8D3E7"/>
<path d="M392.471 101.545H367.295C366.956 101.545 366.665 101.271 366.665 100.916C366.665 100.576 366.94 100.286 367.295 100.286H392.471C392.81 100.286 393.101 100.56 393.101 100.916C393.101 101.255 392.827 101.545 392.471 101.545Z" fill="#E8D3E7"/>
<path d="M392.471 106.713H367.295C366.956 106.713 366.665 106.439 366.665 106.083C366.665 105.744 366.94 105.453 367.295 105.453H392.471C392.81 105.453 393.101 105.728 393.101 106.083C393.101 106.422 392.827 106.713 392.471 106.713Z" fill="#E8D3E7"/>
<path d="M404.454 5.52299V15.1963H197.083V5.50684C197.083 2.47081 199.554 0 202.606 0H398.947C401.999 0 404.454 2.47081 404.454 5.52299Z" fill="#28100C"/>
<path d="M382.604 7.60624C382.604 9.01122 381.458 10.1578 380.053 10.1578C378.648 10.1578 377.501 9.01122 377.501 7.60624C377.501 6.20127 378.648 5.05469 380.053 5.05469C381.458 5.05469 382.604 6.20127 382.604 7.60624Z" fill="#675FA6"/>
<path d="M390.889 7.60624C390.889 9.01122 389.742 10.1578 388.337 10.1578C386.932 10.1578 385.786 9.01122 385.786 7.60624C385.786 6.20127 386.932 5.05469 388.337 5.05469C389.742 5.05469 390.889 6.20127 390.889 7.60624Z" fill="#5C4DA0"/>
<path d="M398.818 7.60624C398.818 9.01122 397.671 10.1578 396.266 10.1578C394.861 10.1578 393.715 9.01122 393.715 7.60624C393.715 6.20127 394.861 5.05469 396.266 5.05469C397.671 5.05469 398.818 6.20127 398.818 7.60624Z" fill="#3E3D98"/>
<path d="M283.724 71.2336C283.724 80.6486 280.155 89.2399 274.309 95.7157L247.178 71.2336L245.45 34.7367C246.015 34.7044 246.597 34.6882 247.178 34.6882C267.365 34.6882 283.724 51.0473 283.724 71.2336Z" fill="#3E3D98"/>
<path d="M330.927 61.9963H319.3V111.849H330.927V61.9963Z" fill="#5C4DA0"/>
<path d="M319.3 98.7033C323.418 97.4275 327.294 95.1505 330.927 92.6958V111.849H319.3V98.7033Z" fill="#3E3D98"/>
<path d="M311.904 75.8523H300.276V111.849H311.904V75.8523Z" fill="#5C4DA0"/>
<path d="M309.756 99.543C310.483 99.656 311.193 99.7206 311.904 99.7368V111.849H300.276V99.8498C302.327 99.1715 305.347 98.897 309.756 99.543Z" fill="#3E3D98"/>
<path d="M349.935 47.1069H338.308V111.849H349.935V47.1069Z" fill="#5C4DA0"/>
<path d="M349.951 82.5865V111.849H338.324V87.5604C342.458 84.7505 346.318 82.5704 349.951 82.5865Z" fill="#3E3D98"/>
<path d="M349.483 28.2286L338.986 30.4733L341.812 33.2348L325.743 49.6261L320.107 44.087L300.163 64.4187C299.404 65.1939 299.42 66.4373 300.196 67.1964C300.971 67.9554 302.214 67.9392 302.973 67.1641L320.172 49.6423L325.808 55.1814L344.638 35.9802L347.464 38.7416L349.515 28.1963L349.483 28.2286Z" fill="#5C4DA0"/>
<path d="M310.466 362.547V166.045C310.466 163.041 308.028 160.603 305.024 160.603H205.578C202.574 160.603 200.136 163.041 200.136 166.045V362.547C200.136 368.619 205.061 373.561 211.149 373.561H299.469C305.541 373.561 310.482 368.635 310.482 362.547H310.466Z" fill="white"/>
<path d="M293.946 309.837H220.451C219.111 309.837 218.029 308.755 218.029 307.414C218.029 306.074 219.111 304.992 220.451 304.992H293.946C295.286 304.992 296.368 306.074 296.368 307.414C296.368 308.755 295.286 309.837 293.946 309.837Z" fill="#E8D3E7"/>
<path d="M293.946 325.21H220.451C219.111 325.21 218.029 324.128 218.029 322.788C218.029 321.448 219.111 320.366 220.451 320.366H293.946C295.286 320.366 296.368 321.448 296.368 322.788C296.368 324.128 295.286 325.21 293.946 325.21Z" fill="#E8D3E7"/>
<path d="M293.946 340.584H220.451C219.111 340.584 218.029 339.502 218.029 338.162C218.029 336.822 219.111 335.74 220.451 335.74H293.946C295.286 335.74 296.368 336.822 296.368 338.162C296.368 339.502 295.286 340.584 293.946 340.584Z" fill="#E8D3E7"/>
<path d="M293.946 355.958H220.451C219.111 355.958 218.029 354.876 218.029 353.536C218.029 352.196 219.111 351.114 220.451 351.114H293.946C295.286 351.114 296.368 352.196 296.368 353.536C296.368 354.876 295.286 355.958 293.946 355.958Z" fill="#E8D3E7"/>
<path d="M310.466 166.045V181.128H200.136V166.045C200.136 163.041 202.574 160.603 205.578 160.603H305.024C308.028 160.603 310.466 163.041 310.466 166.045Z" fill="#28100C"/>
<path d="M283.756 169.872C283.756 171.859 282.157 173.457 280.171 173.457C278.184 173.457 276.585 171.859 276.585 169.872C276.585 167.886 278.184 166.287 280.171 166.287C282.157 166.287 283.756 167.886 283.756 169.872Z" fill="#675FA6"/>
<path d="M295.383 169.872C295.383 171.859 293.784 173.457 291.798 173.457C289.812 173.457 288.213 171.859 288.213 169.872C288.213 167.886 289.812 166.287 291.798 166.287C293.784 166.287 295.383 167.886 295.383 169.872Z" fill="#5C4DA0"/>
<path d="M306.51 169.872C306.51 171.859 304.911 173.457 302.924 173.457C300.938 173.457 299.339 171.859 299.339 169.872C299.339 167.886 300.938 166.287 302.924 166.287C304.911 166.287 306.51 167.886 306.51 169.872Z" fill="#3E3D98"/>
<path d="M234.388 265.233H221.986V295.222H234.388V265.233Z" fill="#5C4DA0"/>
<path d="M252.685 243.932H240.283V295.206H252.685V243.932Z" fill="#3E3D98"/>
<path d="M272.952 228.219H260.55V295.222H272.952V228.219Z" fill="#675FA6"/>
<path d="M292.816 209.777H280.413V295.205H292.816V209.777Z" fill="#5C4DA0"/>
<path d="M269.948 196.648L278.54 199.797L277.554 189.72L269.948 196.648Z" fill="#E8D3E7"/>
<path d="M218.562 250.666C218.191 250.666 217.835 250.44 217.69 250.069C217.512 249.584 217.755 249.051 218.239 248.874C218.611 248.728 255.963 234.42 274.18 195.969C274.406 195.501 274.955 195.307 275.423 195.533C275.891 195.759 276.085 196.308 275.859 196.777C257.304 235.938 219.273 250.489 218.901 250.634C218.788 250.666 218.691 250.699 218.578 250.699L218.562 250.666Z" fill="#E8D3E7"/>
<path d="M443.906 7.59002V38.2572C443.906 42.3106 447.201 45.605 451.254 45.605H506.936L523.747 51.6286C525.475 52.2423 527.123 50.5466 526.46 48.851L520.098 32.4273V7.59002C520.098 3.5366 516.803 0.242188 512.75 0.242188H451.238C447.185 0.242188 443.89 3.5366 443.89 7.59002H443.906Z" fill="#5C4DA0"/>
<path d="M492.273 23.8038C492.273 26.7429 494.647 29.1168 497.586 29.1168C500.525 29.1168 502.899 26.7429 502.899 23.8038C502.899 20.8646 500.525 18.4907 497.586 18.4907C494.647 18.4907 492.273 20.8646 492.273 23.8038Z" fill="#4A429A"/>
<path d="M475.461 23.8038C475.461 26.7429 477.835 29.1168 480.774 29.1168C483.714 29.1168 486.088 26.7429 486.088 23.8038C486.088 20.8646 483.714 18.4907 480.774 18.4907C477.835 18.4907 475.461 20.8646 475.461 23.8038Z" fill="#4A429A"/>
<path d="M458.65 23.8038C458.65 26.7429 461.024 29.1168 463.963 29.1168C466.903 29.1168 469.276 26.7429 469.276 23.8038C469.276 20.8646 466.903 18.4907 463.963 18.4907C461.024 18.4907 458.65 20.8646 458.65 23.8038Z" fill="#4A429A"/>
<path d="M624.873 9.94788H598.356C596.652 9.94788 595.271 11.3288 595.271 13.0324V39.5492C595.271 41.2527 596.652 42.6336 598.356 42.6336H624.873C626.576 42.6336 627.957 41.2527 627.957 39.5492V13.0324C627.957 11.3288 626.576 9.94788 624.873 9.94788Z" fill="#675FA6"/>
<path d="M620.852 19.5728C620.803 19.3467 620.739 19.1206 620.69 18.8945C620.496 18.1032 620.109 17.4088 619.576 16.779C619.188 16.3429 618.752 15.9554 618.252 15.6647C617.557 15.2609 616.782 15.4386 616.265 16.0522C615.361 17.1504 614.441 18.2485 613.552 19.3628C613.003 20.0411 613.084 20.9777 613.778 21.5752C614.263 22.0113 614.78 22.415 615.296 22.8349C615.361 22.8833 615.442 22.9318 615.49 22.9641C614.279 26.21 612.228 28.7293 609.289 30.538C608.934 30.2473 608.562 29.9243 608.191 29.6175C607.997 29.456 607.803 29.2945 607.609 29.1492C607.012 28.697 606.334 28.6485 605.72 29.0523C605.526 29.1815 605.365 29.3752 605.219 29.5529C604.396 30.5541 603.588 31.5554 602.765 32.5405C602.506 32.8473 602.345 33.2026 602.28 33.6063L602.329 34.0423C602.474 34.2846 602.571 34.5914 602.765 34.7852C603.249 35.2697 603.782 35.6895 604.412 35.9802C605.155 36.3194 605.93 36.5131 606.737 36.4486C607.27 36.4001 607.803 36.2871 608.32 36.1417C609.644 35.7703 610.872 35.1405 612.002 34.3653C613.132 33.6063 614.166 32.7181 615.103 31.733C616.378 30.4088 617.509 28.9715 618.542 27.4374C619.35 26.2423 620.044 24.9827 620.513 23.5939C620.739 22.8995 620.9 22.1889 620.949 21.446C620.965 21.1554 620.981 20.8485 620.981 20.5578L620.884 19.5405L620.852 19.5728Z" fill="white"/>
<path d="M673.013 9.36646H645.35C643.825 9.36646 642.588 10.6028 642.588 12.128V39.7913C642.588 41.3165 643.825 42.5528 645.35 42.5528H673.013C674.538 42.5528 675.775 41.3165 675.775 39.7913V12.128C675.775 10.6028 674.538 9.36646 673.013 9.36646Z" fill="#5C4DA0"/>
<path d="M669.767 25.3379C669.767 29.4721 667.442 31.6199 664.68 31.6199C663.049 31.6199 661.87 30.9901 661.257 29.7305C660.643 30.9255 659.609 31.6199 657.962 31.6199C655.621 31.6199 653.376 29.569 653.376 26.2261C653.376 22.8832 655.556 20.8485 657.962 20.8485C659.109 20.8485 659.997 21.2199 660.627 21.9143V21.0422H664.793V27.2435C664.793 28.1479 665.165 28.4385 665.633 28.4385C666.247 28.4385 666.731 27.8249 666.731 25.4025C666.731 21.4783 663.808 18.7168 659.351 18.7168C654.894 18.7168 651.923 21.8336 651.923 25.9516C651.923 30.0696 654.845 33.2348 659.27 33.2348C660.708 33.2348 662.177 32.9603 663.647 32.282L664.551 34.9466C663.259 35.5764 661.192 35.9802 659.27 35.9802C652.746 35.9802 648.563 31.6199 648.563 25.9516C648.563 20.2832 652.746 15.9714 659.351 15.9714C665.585 15.9714 669.767 20.154 669.767 25.3541V25.3379ZM660.708 26.2261C660.708 24.9342 660.029 24.2559 659.141 24.2559C658.253 24.2559 657.607 24.9342 657.607 26.2261C657.607 27.518 658.253 28.2124 659.141 28.2124C660.029 28.2124 660.708 27.5342 660.708 26.2261Z" fill="white"/>
<path d="M717.73 9.36646H690.067C688.542 9.36646 687.305 10.6028 687.305 12.128V39.7913C687.305 41.3165 688.542 42.5528 690.067 42.5528H717.73C719.255 42.5528 720.492 41.3165 720.492 39.7913V12.128C720.492 10.6028 719.255 9.36646 717.73 9.36646Z" fill="#3E3D98"/>
<path d="M705.618 33.6062V35.964L702.598 35.9317V33.6708C700.483 33.5255 698.432 32.928 697.156 32.1367L698.803 28.487C700.208 29.3267 702.066 29.8758 703.713 29.8919C705.134 29.8919 705.651 29.6174 705.651 29.1006C705.651 27.2273 697.415 28.6646 697.463 23.1255C697.479 20.7193 699.239 18.7168 702.744 18.2484V15.923L705.764 15.9553V18.2323C707.314 18.3938 708.848 18.8137 710.059 19.5081L708.525 23.1416C707.056 22.3826 705.683 22.0112 704.391 21.995C702.921 21.995 702.453 22.3988 702.453 22.9155C702.453 24.7081 710.689 23.287 710.641 28.7777C710.625 31.0708 708.945 33.0572 705.651 33.6062H705.618Z" fill="white"/>
<g opacity="0.06">
<path d="M811.185 625.051C811.185 629.718 857.194 633.497 913.942 633.497C970.69 633.497 1016.7 629.718 1016.7 625.051C1016.7 620.383 970.69 616.605 913.942 616.605C857.194 616.605 811.185 620.383 811.185 625.051Z" fill="black"/>
</g>
<path d="M979.927 542.69H851.816C851.005 542.69 850.347 543.348 850.347 544.16V551.605C850.347 552.416 851.005 553.074 851.816 553.074H979.927C980.739 553.074 981.397 552.416 981.397 551.605V544.16C981.397 543.348 980.739 542.69 979.927 542.69Z" fill="#3D2027"/>
<path d="M975.631 427.676H855.837C853.848 427.676 852.236 429.289 852.236 431.278V446.006C852.236 447.995 853.848 449.607 855.837 449.607H975.631C977.62 449.607 979.232 447.995 979.232 446.006V431.278C979.232 429.289 977.62 427.676 975.631 427.676Z" fill="#8C5D55"/>
<path d="M916.929 370.638H928.573C928.573 370.638 929.138 369.475 930.139 367.36C930.624 366.358 931.189 365.147 931.851 363.742C933.514 360.222 935.678 355.506 938.198 349.935C938.214 349.886 938.246 349.838 938.262 349.789C953.959 314.891 982.123 247.13 970.609 233.645C957.528 218.336 941.912 241.267 930.559 284.66C929.784 287.648 929.025 290.716 928.282 293.881C924.212 311.371 920.821 331.638 918.48 353.697C918.124 357.008 917.801 360.351 917.494 363.726C917.284 366.003 917.091 368.312 916.913 370.638H916.929Z" fill="#5C4DA0"/>
<path d="M917.511 363.742L921.015 370.654H928.573C928.573 370.654 929.138 369.491 930.139 367.376L930.559 284.676C924.826 306.574 920.191 333.705 917.511 363.742Z" fill="#4A429A"/>
<path d="M920.595 370.638H922.501L959.175 250.489C959.321 250.004 959.046 249.503 958.578 249.358C958.093 249.213 957.593 249.487 957.447 249.972L920.611 370.638H920.595Z" fill="white"/>
<path d="M887.166 346.253C888.022 348.191 888.862 350.048 889.653 351.808C891.801 356.556 893.691 360.609 895.144 363.726C897.195 368.102 898.422 370.638 898.422 370.638H910.066C909.888 368.329 909.694 366.019 909.484 363.726C909.194 360.512 908.887 357.315 908.548 354.166C906.287 332.623 903.009 312.776 899.084 295.545C898.471 292.88 897.857 290.264 897.211 287.728C885.81 242.349 869.774 217.964 856.386 233.629C845.243 246.661 871.227 310.482 887.15 346.237L887.166 346.253Z" fill="#5C4DA0"/>
<path d="M909.485 363.742L905.98 370.654H898.422C898.422 370.654 897.857 369.491 896.856 367.376L896.436 284.676C902.169 306.574 906.804 333.705 909.485 363.742Z" fill="#4A429A"/>
<path d="M906.4 370.638H904.494L867.82 250.489C867.674 250.004 867.949 249.503 868.417 249.358C868.902 249.213 869.402 249.487 869.548 249.972L906.384 370.638H906.4Z" fill="white"/>
<path d="M899.101 295.561C900.732 318.541 902.993 340.019 904.607 354.069C905.786 364.34 906.626 370.638 906.626 370.638H916.929C918.14 364.873 919.239 359.156 920.272 353.52C924.083 332.542 926.716 312.453 928.282 293.897C934.306 222.777 924.858 174.426 907.53 187.297C895.096 196.534 895.806 249.084 899.101 295.577V295.561Z" fill="#5C4DA0"/>
<path d="M889.653 351.808C891.801 356.556 893.691 360.609 895.144 363.726C897.195 368.102 898.422 370.638 898.422 370.638H928.573C928.573 370.638 929.138 369.475 930.139 367.36C930.623 366.358 931.189 365.147 931.851 363.742C933.514 360.222 935.678 355.506 938.197 349.935C934.499 351.001 928.072 352.615 920.288 353.52C919.707 353.584 919.109 353.649 918.496 353.714C915.363 354.02 912.02 354.198 908.564 354.182C907.256 354.182 905.948 354.15 904.607 354.085C899.714 353.843 894.643 353.148 889.653 351.824V351.808Z" fill="#4A429A"/>
<path d="M912.666 209.502L913.893 370.654H915.718L914.491 209.502C914.491 209.002 914.071 208.614 913.57 208.598C913.07 208.598 912.666 209.018 912.666 209.518V209.502Z" fill="white"/>
<path d="M860.892 369.394L862.394 373.399L863.346 375.935L866.076 383.186L867.028 385.721L869.838 393.166L870.791 395.701L882.838 427.676H948.614L960.661 395.701L961.614 393.166L964.424 385.721L965.376 383.186L968.106 375.935L969.058 373.399L970.56 369.394C971.594 366.649 969.575 363.726 966.636 363.726H864.8C861.877 363.726 859.858 366.649 860.876 369.394H860.892Z" fill="#48CFAD"/>
<path d="M862.41 373.399L863.346 375.935H968.105L969.058 373.399H862.41Z" fill="#308A73"/>
<path d="M866.092 383.186L867.045 385.721H964.424L965.376 383.186H866.092Z" fill="#308A73"/>
<path d="M869.854 393.166L870.807 395.701H960.661L961.614 393.166H869.854Z" fill="#308A73"/>
<path d="M933.353 449.607L937.003 461.363L987.775 625.051H997.707L965.506 464.706L962.47 449.607H933.353Z" fill="#6E4945"/>
<path d="M962.47 449.607H933.353L937.003 461.363L965.506 464.706L962.47 449.607Z" fill="#3D2027"/>
<path d="M833.455 625.051H843.386L895.677 456.519L897.809 449.607H868.708L867.965 453.273L833.455 625.051Z" fill="#6E4945"/>
<path d="M867.965 453.273L895.677 456.519L897.809 449.607H868.708L867.965 453.273Z" fill="#3D2027"/>
<path d="M854.335 530.498H977.375C979.587 530.498 981.38 528.705 981.38 526.493V524.119C981.38 521.907 979.587 520.114 977.375 520.114H854.335C852.124 520.114 850.33 521.907 850.33 524.119V526.493C850.33 528.705 852.124 530.498 854.335 530.498Z" fill="#8C5D55"/>
<g opacity="0.06">
<path d="M7.21875 627.441C7.21875 633.335 46.8971 638.115 95.845 638.115C144.793 638.115 184.471 633.335 184.471 627.441C184.471 621.546 144.793 616.766 95.845 616.766C46.8971 616.766 7.21875 621.546 7.21875 627.441Z" fill="black"/>
</g>
<path d="M914.216 86.7691H973.855L982.575 27.1305H922.953L914.216 86.7691Z" fill="#8C5D55"/>
<path d="M982.576 27.1305L990.844 86.7691H973.855L982.576 27.1305Z" fill="#3D2027"/>
<path d="M970.221 82.5219L977.714 31.3777H926.57L919.093 82.5219H970.221Z" fill="#DFDBC8"/>
<path d="M969.495 81.666L976.73 32.2336H927.297L920.062 81.666H969.495Z" fill="white"/>
<path d="M931.738 38.2733L926.28 75.61H965.086L970.544 38.2733H931.738Z" fill="#E5C09F"/>
<path d="M961.582 60.0929C964.234 53.6904 961.194 46.3503 954.791 43.6983C948.389 41.0463 941.049 44.0867 938.397 50.4892C935.745 56.8917 938.785 64.2318 945.187 66.8838C951.59 69.5358 958.93 66.4954 961.582 60.0929Z" fill="#F2D6BA"/>
<path d="M951.198 56.2634C951.198 56.2634 943.333 47.0423 930.382 47.6721L926.296 75.6262L951.214 56.2796L951.198 56.2634Z" fill="#00443C"/>
<path d="M968.752 50.5628C968.752 50.5628 957.641 48.302 946.095 56.9579C934.548 65.6138 926.28 75.6262 926.28 75.6262H965.086L968.752 50.5628Z" fill="#006D61"/>
<g opacity="0.06">
<path d="M763.998 111.623H1012.92L1016.18 100.27H760.267L763.998 111.623Z" fill="black"/>
</g>
<path d="M760.057 100.254L1016.25 100.254V86.7529L760.057 86.7529V100.254Z" fill="#6E4945"/>
<path d="M1003.47 100.27L997.998 111.719H985.111L981.445 100.27H1003.47Z" fill="#3D2027"/>
<path d="M776.804 100.27L782.278 111.719H795.165L798.831 100.27H776.804Z" fill="#3D2027"/>
<path d="M789.756 72.2673H787.866V69.4412L859.601 69.5381C861.974 69.5381 864.138 70.507 865.689 72.0735C867.239 73.6238 868.208 75.7878 868.208 78.1617C868.208 82.9257 864.348 86.7691 859.584 86.7691L787.85 86.6722V84.2176H789.756V72.2834V72.2673Z" fill="#4A429A"/>
<path d="M789.255 72.2672V84.2014L855.062 84.2822C858.276 84.2822 860.876 81.6176 860.892 78.3232C860.892 76.6759 860.246 75.1741 859.197 74.0921C858.147 73.0101 856.693 72.348 855.079 72.3318L789.255 72.2511V72.2672Z" fill="white"/>
<path d="M789.255 75.2871V77.112L853.367 77.1927C853.867 77.1927 854.271 76.789 854.271 76.2884C854.271 75.7877 853.867 75.3679 853.367 75.3679L789.255 75.2871Z" fill="#E5C09F"/>
<path d="M789.255 79.7766V81.6015L853.367 81.6822C853.867 81.6822 854.271 81.2785 854.271 80.7779C854.271 80.2772 853.867 79.8574 853.367 79.8574L789.255 79.7766Z" fill="#E5C09F"/>
<path d="M796.167 55.0523H794.277V52.2262L866.012 52.3231C868.386 52.3231 870.55 53.292 872.1 54.8585C873.65 56.425 874.619 58.5728 874.619 60.9467C874.619 65.7107 870.759 69.5542 865.996 69.5542L794.261 69.4573V67.0026H796.167V55.0684V55.0523Z" fill="#FBB416"/>
<path d="M795.666 55.0362V66.9704L861.474 67.0511C864.687 67.0511 867.287 64.3865 867.303 61.0921C867.303 59.4449 866.657 57.943 865.608 56.861C864.558 55.779 863.105 55.1169 861.49 55.1008L795.666 55.02V55.0362Z" fill="white"/>
<path d="M795.666 58.0721V59.897L859.778 59.9777C860.279 59.9777 860.682 59.574 860.682 59.0734C860.682 58.5728 860.279 58.1529 859.778 58.1529L795.666 58.0721Z" fill="#E5C09F"/>
<path d="M795.666 62.5616V64.3865L859.778 64.4672C860.279 64.4672 860.682 64.0635 860.682 63.5629C860.682 63.0623 860.279 62.6424 859.778 62.6424L795.666 62.5616Z" fill="#E5C09F"/>
<path d="M783.651 37.8051H781.762V34.979L853.496 35.0759C855.87 35.0759 858.034 36.0448 859.584 37.6113C861.135 39.1616 862.104 41.3256 862.104 43.6995C862.104 48.4635 858.244 52.307 853.48 52.307L781.746 52.2101V49.7554H783.651V37.8212V37.8051Z" fill="#5C4DA0"/>
<path d="M783.167 37.8051V49.7393L848.974 49.82C852.188 49.82 854.788 47.1554 854.804 43.861C854.804 42.2138 854.158 40.7119 853.108 39.6299C852.059 38.5479 850.605 37.8858 848.99 37.8697L783.167 37.7889V37.8051Z" fill="white"/>
<path d="M783.167 40.825V42.6498L847.278 42.7305C847.779 42.7305 848.183 42.3268 848.183 41.8262C848.183 41.3256 847.779 40.9057 847.278 40.9057L783.167 40.825Z" fill="#E5C09F"/>
<path d="M783.15 45.3145V47.1393L847.262 47.22C847.763 47.22 848.167 46.8163 848.167 46.3157C848.167 45.8151 847.763 45.3952 847.262 45.3952L783.15 45.3145Z" fill="#E5C09F"/>
<path d="M729.996 350.525L808.629 327.709L817.782 359.256C820.005 366.917 815.59 374.941 807.929 377.164L757.073 391.92C749.411 394.143 741.388 389.728 739.165 382.066L730.012 350.52L729.996 350.525Z" fill="#48CFAD"/>
<path d="M745.991 356.249L799.525 341.117" stroke="white" stroke-linecap="round" stroke-linejoin="round"/>
<path d="M794.067 351.873L801.689 349.725" stroke="white" stroke-linecap="round" stroke-linejoin="round"/>
<path d="M748.139 364.856L785.395 354.327" stroke="white" stroke-linecap="round" stroke-linejoin="round"/>
<path d="M751.644 375.079L774.236 368.296" stroke="white" stroke-linecap="round" stroke-linejoin="round"/>
<path d="M807.484 313.391L723.299 337.817L727.218 351.325L811.404 326.899L807.484 313.391Z" fill="#308A73"/>
<path d="M727.226 351.259C728.938 346.059 730.698 340.294 732.41 335.094L738.611 333.285C736.463 338.76 735.026 343.701 733.621 349.402C733.621 349.402 729.099 350.742 727.242 351.243L727.226 351.259Z" fill="white"/>
<path d="M742.035 346.931C743.746 341.731 745.474 336.03 747.186 330.83L753.307 329.038C751.159 334.512 749.625 339.438 748.22 345.155L742.035 346.931Z" fill="white"/>
<path d="M759.056 342.054C760.768 336.854 762.528 331.073 764.24 325.873L770.861 323.919C768.729 329.393 767.018 334.399 765.613 340.1L759.056 342.054Z" fill="white"/>
<path d="M775.997 337.128C777.708 331.928 779.501 326.05 781.213 320.85C781.213 320.85 787.333 319.268 787.382 319.106C785.234 324.581 783.571 329.603 782.166 335.304C782.166 335.304 776.013 337.048 776.013 337.112L775.997 337.128Z" fill="white"/>
<path d="M792.372 332.348C794.083 327.148 795.86 321.383 797.572 316.183L803.724 314.391L798.476 330.572L792.372 332.365V332.348Z" fill="white"/>
<path d="M787.637 276.904L715.431 326.604L723.406 338.19L795.612 288.49L787.637 276.904Z" fill="#308A73"/>
<path d="M723.399 338.178C723.399 332.704 723.237 326.68 723.221 321.205L728.534 317.54C728.227 323.402 728.405 328.553 728.873 334.415C728.873 334.415 725.014 337.112 723.399 338.178Z" fill="white"/>
<path d="M736.092 329.409C736.092 323.935 735.93 317.976 735.914 312.501L741.163 308.868C740.856 314.73 740.953 319.897 741.405 325.76L736.092 329.409Z" fill="white"/>
<path d="M750.707 319.413C750.707 313.938 750.545 307.899 750.529 302.424L756.198 298.484C755.891 304.346 755.842 309.643 756.311 315.489L750.691 319.413H750.707Z" fill="white"/>
<path d="M765.241 309.4C765.241 303.926 765.08 297.789 765.063 292.315C765.063 292.315 770.36 288.875 770.36 288.714C770.054 294.576 770.037 299.873 770.506 305.735C770.506 305.735 765.209 309.32 765.241 309.4Z" fill="white"/>
<path d="M779.291 299.711C779.291 294.237 779.146 288.213 779.129 282.722L784.41 279.073L784.523 296.078L779.291 299.695V299.711Z" fill="white"/>
<path d="M745.507 383.622C748.462 386.819 753.178 388.273 757.425 387.304" stroke="white" stroke-linecap="round" stroke-linejoin="round"/>
<path d="M766.242 383.767L786.477 377.873" stroke="white" stroke-linecap="round" stroke-linejoin="round"/>
<path d="M193.288 411.35H293.3C298.5 411.35 302.715 415.565 302.715 420.765V488.252C302.715 495.664 296.707 501.672 289.295 501.672H197.293C189.881 501.672 183.874 495.664 183.874 488.252V420.765C183.874 415.565 188.088 411.35 193.288 411.35Z" fill="white"/>
<path d="M193.288 411.35H293.3C298.5 411.35 302.715 415.565 302.715 420.765V422.137H183.874V420.765C183.874 415.565 188.088 411.35 193.288 411.35Z" fill="#493293"/>
<path d="M191.9 416.744C191.9 417.519 191.27 418.149 190.495 418.149C189.72 418.149 189.09 417.519 189.09 416.744C189.09 415.968 189.72 415.339 190.495 415.339C191.27 415.339 191.9 415.968 191.9 416.744Z" fill="#010101"/>
<path d="M197.584 418.149C198.36 418.149 198.989 417.52 198.989 416.744C198.989 415.968 198.36 415.339 197.584 415.339C196.808 415.339 196.179 415.968 196.179 416.744C196.179 417.52 196.808 418.149 197.584 418.149Z" fill="white"/>
<path d="M205.271 418.149C206.047 418.149 206.676 417.52 206.676 416.744C206.676 415.968 206.047 415.339 205.271 415.339C204.495 415.339 203.866 415.968 203.866 416.744C203.866 417.52 204.495 418.149 205.271 418.149Z" fill="#C7B7DA"/>
<path d="M195.921 487.557H188.977V494.501H195.921V487.557Z" fill="#493293"/>
<path d="M191.593 492.208V489.834" stroke="white" stroke-width="0.64" stroke-miterlimit="10"/>
<path d="M193.289 492.208V489.834" stroke="white" stroke-width="0.64" stroke-miterlimit="10"/>
<path d="M293.671 489.334H198.101V493.161H293.671V489.334Z" fill="#E5DBED"/>
<path d="M237.812 489.334H198.101V493.161H237.812V489.334Z" fill="#493293"/>
<path d="M300.163 432.941V464.077" stroke="#9A89C1" stroke-linecap="round" stroke-linejoin="round"/>
<path d="M300.163 426.562V429.663" stroke="#9A89C1" stroke-linecap="round" stroke-linejoin="round"/>
<path d="M201.654 499.637H238.991" stroke="#9A89C1" stroke-linecap="round" stroke-linejoin="round"/>
<path d="M251.522 473.917C260.644 470.187 265.015 459.768 261.285 450.645C257.555 441.523 247.136 437.152 238.014 440.882C228.892 444.612 224.52 455.031 228.251 464.153C231.981 473.276 242.4 477.647 251.522 473.917Z" fill="#493293"/>
<path d="M239.313 464.286V450.527L252.184 456.147L239.313 464.286Z" fill="white"/>
<path d="M232.046 449.881C234.178 445.069 239.523 441.904 244.756 442.34" stroke="#9A89C1" stroke-linecap="round" stroke-linejoin="round"/>
<g opacity="0.06">
<path d="M511.232 655.976C672.164 655.976 802.626 643.077 802.626 627.166C802.626 611.255 672.164 598.356 511.232 598.356C350.299 598.356 219.837 611.255 219.837 627.166C219.837 643.077 350.299 655.976 511.232 655.976Z" fill="black"/>
</g>
<path d="M347.884 584.371C351.323 587.811 355.054 591.089 359.107 594.19C379.358 609.741 407.361 620.884 444.552 624.615C634.74 643.654 697.592 554.431 712.95 417.163C719.797 355.991 703.777 315.618 683.914 289.666C681.831 286.953 679.715 284.402 677.583 281.995C676.372 280.639 675.145 279.315 673.869 278.023C648.224 251.829 611.195 239.491 574.811 245.482C546.211 250.182 520.227 265.459 499.152 295.997C465.433 344.815 497.327 386.787 400.982 389.597C327.229 391.745 280.493 517.142 347.9 584.387L347.884 584.371Z" fill="#48CFAD"/>
<path d="M639.052 287.954C639.052 287.954 661.548 336.079 635.58 424.414C609.612 512.75 575.215 505.79 552.993 505.79C514.171 505.79 435.557 469.228 420.199 440.418C404.842 411.608 433.829 409.896 488.106 405.633C542.4 401.37 582.902 268.899 639.052 287.954Z" fill="#308A73"/>
<path d="M590.282 542.852C590.702 542.852 591.138 542.69 591.461 542.351C592.074 541.705 592.058 540.688 591.396 540.058C571.985 521.6 553.446 510.731 541.301 504.853C528.108 498.474 519.597 496.488 519.242 496.407C518.37 496.213 517.498 496.746 517.304 497.618C517.11 498.49 517.643 499.362 518.515 499.556C518.903 499.653 552.703 507.728 589.151 542.4C589.458 542.69 589.862 542.852 590.266 542.852H590.282Z" fill="#308A73"/>
<path d="M583.87 521.228C584.387 521.228 584.904 520.986 585.211 520.518C585.711 519.775 585.517 518.774 584.775 518.273C584.016 517.756 565.945 505.773 537.975 502.721C537.086 502.624 536.295 503.27 536.198 504.159C536.101 505.047 536.747 505.838 537.635 505.935C564.814 508.906 582.804 520.824 582.982 520.954C583.257 521.147 583.58 521.228 583.886 521.228H583.87Z" fill="#308A73"/>
<path d="M642.524 387.578C643.331 387.578 644.025 386.981 644.122 386.157C646.464 367.44 654.522 353.132 660.853 344.428C667.748 334.964 674.176 329.878 674.24 329.829C674.935 329.28 675.064 328.263 674.515 327.552C673.966 326.841 672.948 326.728 672.238 327.278C671.963 327.487 665.455 332.639 658.301 342.425C651.712 351.453 643.347 366.294 640.893 385.753C640.779 386.642 641.409 387.449 642.298 387.562C642.362 387.562 642.427 387.562 642.507 387.562L642.524 387.578Z" fill="#308A73"/>
<path d="M347.884 584.371C351.324 587.811 355.054 591.089 359.107 594.19C382.507 608.239 411.075 617.493 442.534 621.11C452.288 622.241 462.139 622.79 471.99 622.79C499.152 622.79 526.38 618.559 552.041 610.242C618.801 588.618 666.974 542.351 687.677 479.983C699.03 445.78 704.601 412.529 704.246 381.135C703.971 355.991 699.886 331.977 692.15 309.756C689.566 302.343 686.756 295.658 683.914 289.666C681.831 286.953 679.715 284.402 677.584 281.995C676.372 280.639 675.145 279.315 673.869 278.023C678.94 286.711 684.366 297.741 689.001 311.064C700.935 345.413 709.833 402.419 684.447 478.901C664.099 540.219 616.702 585.711 551.007 606.996C481.211 629.605 400.481 620.432 350.129 584.193C349.434 583.693 348.497 583.79 347.916 584.387L347.884 584.371Z" fill="#308A73"/>
<path d="M626.778 232.369C626.778 232.369 653.037 205.53 614.796 186.619C576.538 167.708 531.482 196.599 524.102 217.674C516.706 238.748 626.794 232.369 626.794 232.369H626.778Z" fill="#5C4DA0"/>
<path d="M581.093 213.959C581.319 213.959 581.561 213.879 581.755 213.717C592.187 204.787 609.676 205.61 609.854 205.61H609.903C610.435 205.61 610.888 205.19 610.904 204.658C610.936 204.092 610.5 203.624 609.951 203.592C609.208 203.543 591.476 202.72 580.43 212.183C580.011 212.538 579.962 213.184 580.317 213.604C580.511 213.83 580.802 213.959 581.093 213.959Z" fill="#4A429A"/>
<path d="M606.737 215.235C607.092 215.235 607.448 215.041 607.625 214.702C607.884 214.202 607.706 213.604 607.206 213.33C606.689 213.055 594.593 206.692 586.018 208.695C585.469 208.824 585.13 209.357 585.259 209.906C585.388 210.455 585.921 210.794 586.47 210.665C594.319 208.84 606.14 215.058 606.253 215.122C606.398 215.203 606.56 215.235 606.721 215.235H606.737Z" fill="#4A429A"/>
<path d="M342.118 568.238L328.65 593.059C328.65 593.059 312.097 596.951 292.395 598.469C262.471 600.762 253.605 596.047 251.49 602.733C249.842 607.949 272.597 619.721 283.126 621.579C293.655 623.436 316.651 632.867 331.589 634.53C346.511 636.177 353.1 617.331 356.491 610.63C359.866 603.912 370.508 581.19 370.508 581.19L342.135 568.238H342.118Z" fill="#F79A86"/>
<path d="M263.23 609.289C263.165 611.162 263.504 612.939 264.489 614.376C264.651 614.602 264.812 614.812 265.006 615.022C270.303 620.868 291.523 623.71 291.523 623.71C289.827 622.079 289.02 619.786 288.778 617.218C288.116 610.468 291.329 601.812 292.718 598.437C293.106 597.516 293.348 597 293.348 597C289.682 596.144 286.194 595.659 283.045 595.433C279.944 595.207 277.166 595.207 274.873 595.304C270.545 595.498 267.897 596.031 267.897 596.031C267.897 596.031 267.154 597.226 266.266 599.067C264.974 601.715 263.375 605.688 263.246 609.289H263.23Z" fill="#5C4DA0"/>
<path d="M272.257 605.187L279.605 605.946C279.605 605.946 280.574 602.361 281.672 599.067C282.124 597.726 282.609 596.418 283.045 595.449C279.944 595.223 277.167 595.223 274.873 595.32C274.437 596.289 273.921 597.662 273.469 599.18C272.887 601.102 272.387 603.266 272.273 605.187H272.257Z" fill="#4A429A"/>
<path d="M254.09 606.398C254.09 606.398 322.626 628.103 331.847 629.702C341.052 631.316 346.075 629.508 346.075 629.508C346.075 629.508 345.784 633.271 345.009 636.807C344.105 640.974 339.777 643.428 335.707 642.169C317.378 636.5 256.77 617.574 252.636 614.215C247.759 610.258 248.825 606.043 254.09 606.398Z" fill="#5C4DA0"/>
<path d="M405.278 562.538L406.166 584.839C406.166 584.839 393.925 596.661 377.776 608.03C353.229 625.309 343.2 625.794 344.799 632.609C346.043 637.922 371.639 636.42 381.619 632.625C391.615 628.846 416.211 625.18 429.889 618.979C443.567 612.761 439.578 593.205 439.061 585.712C438.529 578.218 437.414 561.326 437.414 561.326L405.278 562.538Z" fill="#F79A86"/>
<path d="M358.235 632.237C359.14 633.884 360.335 635.241 361.934 635.968C362.176 636.081 362.434 636.177 362.709 636.258C370.25 638.584 389.936 630.17 389.936 630.17C387.659 629.637 385.786 628.087 384.252 626.004C380.23 620.545 378.567 611.469 378.05 607.852C377.905 606.867 377.857 606.286 377.857 606.286C374.255 607.432 371.026 608.805 368.199 610.21C365.422 611.599 363.032 613.02 361.11 614.279C357.493 616.653 355.49 618.462 355.49 618.462C355.49 618.462 355.458 619.867 355.635 621.902C355.878 624.841 356.54 629.072 358.268 632.237H358.235Z" fill="#5C4DA0"/>
<path d="M363.888 624.098L370.589 620.997C370.589 620.997 369.588 617.412 368.845 614.021C368.539 612.632 368.296 611.276 368.167 610.21C365.389 611.599 362.999 613.02 361.078 614.279C361.207 615.329 361.449 616.782 361.837 618.317C362.321 620.271 362.999 622.386 363.888 624.098Z" fill="#4A429A"/>
<path d="M348.885 634.433C348.885 634.433 418.891 618.026 427.628 614.699C436.364 611.372 439.756 607.254 439.756 607.254C439.756 607.254 441.435 610.646 442.582 614.069C443.922 618.107 441.468 622.435 437.333 623.436C418.681 627.941 356.911 642.669 351.646 641.894C345.429 640.99 344.185 636.823 348.901 634.417L348.885 634.433Z" fill="#5C4DA0"/>
<path d="M381.458 385.382C399.222 371.72 463.027 377.34 513.008 384.413C514.429 407.054 507.453 388.257 511.668 410.526C449.268 413.724 431.73 418.649 431.73 418.649C431.73 418.649 441.064 469.438 440.612 490.674C440.16 511.91 447.685 573.357 447.685 573.357L402.694 581.836C402.694 581.836 356.023 404.939 381.458 385.382Z" fill="white"/>
<path d="M400.417 571.953C400.611 572.017 400.82 572.033 401.03 571.985L445.457 562.909C446.119 562.78 446.539 562.134 446.409 561.472C446.28 560.81 445.634 560.39 444.972 560.519L400.546 569.595C399.884 569.724 399.464 570.37 399.593 571.032C399.69 571.468 399.997 571.807 400.401 571.936L400.417 571.953Z" fill="#D8D8D8"/>
<path d="M436.914 563.313C437.107 563.377 437.334 563.393 437.543 563.345C438.206 563.2 438.609 562.554 438.48 561.908C438.432 561.682 433.684 539.234 433.409 502.947C433.135 466.402 421.927 411.963 421.814 411.43C421.685 410.768 421.039 410.349 420.377 410.494C419.715 410.623 419.295 411.269 419.44 411.931C419.553 412.48 430.712 466.677 430.971 502.98C431.245 539.525 436.042 562.198 436.09 562.424C436.187 562.861 436.494 563.184 436.898 563.313H436.914Z" fill="#D8D8D8"/>
<path d="M453.434 151.414C455.808 151.898 459.038 149.25 462.074 148.233C466.063 146.892 471.618 143.662 474.283 140.998C478.271 137.025 489.382 124.655 489.188 119.972C488.978 115.288 478.578 125.22 476.398 127.206C474.218 129.193 472.006 129.742 472.006 129.742C472.006 129.742 494.13 105.131 493.548 101.432C492.967 97.7343 478.982 110.492 475.542 113.657C475.542 113.657 491.174 94.1815 490.076 91.9529C487.864 87.4796 469.874 108.603 469.874 108.603C469.874 108.603 482.196 91.5492 479.337 89.6113C476.301 87.5442 463.156 105.857 463.156 105.857C463.156 105.857 469.567 93.5678 467.871 90.774C466.176 87.9641 450.721 112.737 448.799 116.823C446.878 120.908 440.805 131.518 439.239 137.219C438.173 141.095 445.957 149.864 453.45 151.398L453.434 151.414Z" fill="#F79A86"/>
<path d="M456.599 110.686C456.744 110.25 457.181 109.975 457.649 110.056C468.549 112.026 474.185 121.425 474.412 121.829C474.67 122.265 474.525 122.846 474.089 123.105C473.653 123.363 473.071 123.218 472.813 122.782C472.764 122.685 467.354 113.722 457.31 111.897C456.809 111.8 456.47 111.316 456.567 110.815C456.567 110.783 456.583 110.734 456.599 110.702V110.686Z" fill="#F3796B"/>
<path d="M449.833 133.085C449.946 132.729 450.253 132.471 450.64 132.439C461.686 131.551 464.561 123.363 464.593 123.266C464.755 122.782 465.288 122.523 465.772 122.685C466.257 122.846 466.515 123.363 466.37 123.847C466.241 124.251 463.059 133.311 450.818 134.296C450.301 134.344 449.865 133.957 449.817 133.44C449.817 133.311 449.817 133.198 449.849 133.085H449.833Z" fill="#F3796B"/>
<path d="M508.502 228.558H508.583V228.542H507.808L506.694 228.574C505.918 228.574 505.127 228.574 504.32 228.574C502.705 228.558 501.041 228.526 499.378 228.429C496.035 228.251 492.66 228.009 489.301 227.589C487.622 227.379 485.942 227.169 484.262 226.911C482.583 226.652 480.92 226.362 479.272 226.055C477.609 225.748 475.962 225.377 474.315 225.005C472.667 224.634 471.036 224.23 469.421 223.794C456.454 220.322 444.229 214.928 433.377 207.58C432.698 207.128 432.02 206.66 431.358 206.175C430.68 205.707 430.034 205.223 429.372 204.722L428.871 204.351C429.081 204.496 429.275 204.69 429.501 204.883C429.921 205.271 430.373 205.723 430.777 206.208C431.18 206.708 431.552 207.225 431.859 207.758C432.166 208.275 432.408 208.792 432.602 209.26C432.989 210.197 433.134 210.956 433.199 211.408C433.264 211.876 433.248 212.086 433.231 212.102C433.199 212.134 433.215 211.488 433.409 210.584C433.587 209.68 433.91 208.517 434.313 207.257C434.733 205.998 435.234 204.625 435.831 203.204C436.994 200.362 438.464 197.358 440.03 194.306C443.228 188.201 446.958 181.968 450.882 175.783C452.836 172.682 454.871 169.582 456.922 166.513C457.939 164.963 458.973 163.429 460.023 161.911L463.043 157.486L435.605 133.521L434.443 134.748L433.377 135.895L431.277 138.188C429.905 139.722 428.564 141.272 427.224 142.839C424.559 145.972 421.975 149.153 419.424 152.431C414.353 158.988 409.508 165.819 405.003 173.344C402.742 177.107 400.594 181.064 398.559 185.375C397.558 187.539 396.589 189.816 395.669 192.239C394.764 194.677 393.908 197.277 393.214 200.216C392.52 203.156 391.938 206.434 391.825 210.439C391.777 212.425 391.874 214.638 392.229 217.06C392.584 219.466 393.246 222.179 394.393 224.957C394.958 226.346 395.669 227.767 396.476 229.139C397.3 230.512 398.236 231.869 399.27 233.128C400.303 234.372 401.434 235.567 402.613 236.6C403.194 237.133 403.808 237.602 404.389 238.07L405.084 238.587C406.004 239.281 406.941 239.975 407.877 240.654C408.814 241.332 409.767 241.994 410.72 242.656C412.625 243.964 414.563 245.224 416.533 246.451C418.503 247.646 420.49 248.825 422.508 249.923C424.527 251.038 426.562 252.087 428.613 253.105C430.68 254.106 432.747 255.075 434.846 255.963C443.228 259.597 451.867 262.374 460.604 264.393C464.964 265.394 469.357 266.202 473.749 266.815C478.142 267.413 482.551 267.881 486.976 268.091C489.188 268.204 491.4 268.269 493.613 268.301C495.825 268.333 498.038 268.301 500.266 268.204C502.495 268.123 504.723 267.994 506.984 267.784C508.115 267.671 509.261 267.558 510.424 267.413C511.005 267.348 511.603 267.267 512.217 267.187L514.397 266.848L508.535 228.558H508.502Z" fill="#5C4DA0"/>
<path d="M403.872 217.803C403.937 218.384 404.437 218.852 405.051 218.869C414.321 219.111 424.511 216.462 424.931 216.349C425.576 216.188 425.964 215.51 425.803 214.864C425.641 214.218 424.963 213.83 424.317 213.992C424.22 214.024 414.03 216.656 405.099 216.43C404.437 216.414 403.872 216.947 403.856 217.609C403.856 217.674 403.856 217.722 403.856 217.787L403.872 217.803Z" fill="#4A429A"/>
<path d="M413.997 223.374C414.03 223.6 414.11 223.81 414.256 223.988C414.676 224.505 415.435 224.585 415.968 224.165C416.258 223.939 422.96 218.481 424.801 216.188C425.221 215.671 425.14 214.912 424.623 214.476C424.107 214.056 423.348 214.137 422.912 214.654C421.216 216.737 414.498 222.228 414.417 222.276C414.078 222.551 413.933 222.954 413.981 223.358L413.997 223.374Z" fill="#4A429A"/>
<path d="M432.763 141.208C432.796 141.466 432.941 141.724 433.183 141.87C442.404 147.393 457.487 160.554 457.633 160.683C458.004 161.006 458.586 160.974 458.925 160.603C459.264 160.231 459.232 159.65 458.86 159.327C458.715 159.198 443.502 145.939 434.152 140.319C433.716 140.061 433.151 140.206 432.892 140.626C432.779 140.804 432.731 141.014 432.763 141.208Z" fill="#4A429A"/>
<path d="M503.803 229.753C500.622 239.41 505.903 262.891 500.783 304.184C500.412 307.22 499.976 310.353 499.475 313.599C499.007 316.635 498.49 319.784 497.909 323.03C497.36 326.05 496.762 329.167 496.116 332.348C495.535 335.142 494.921 338.017 494.243 340.94C493.548 343.96 492.822 347.028 492.03 350.177C491.804 351.065 491.562 352.034 491.304 353.035C491.239 353.294 491.175 353.536 491.11 353.794C491.045 354.02 490.997 354.246 490.932 354.489C490.884 354.666 490.852 354.844 490.803 355.005L490.706 355.393C490.642 355.619 490.593 355.861 490.529 356.087C490.529 356.136 490.512 356.184 490.496 356.217C490.432 356.491 490.351 356.782 490.27 357.073C490.27 357.121 490.254 357.153 490.238 357.202C490.173 357.444 490.109 357.702 490.044 357.945C489.737 359.107 489.414 360.335 489.091 361.594C489.011 361.901 488.93 362.224 488.833 362.547C488.72 362.967 488.607 363.403 488.494 363.839C488.268 364.695 488.025 365.551 487.799 366.439C487.686 366.875 487.557 367.327 487.444 367.763C487.186 368.716 486.927 369.669 486.653 370.654C486.604 370.832 486.556 371.009 486.507 371.187C485.878 373.512 485.199 375.902 484.521 378.357C484.214 379.455 483.891 380.586 483.584 381.7C483.197 383.056 482.809 384.429 482.422 385.802C481.84 387.82 481.259 389.839 480.661 391.858L479.902 394.425C479.676 395.201 479.434 395.976 479.208 396.751C478.934 397.671 478.659 398.608 478.384 399.529C478.207 400.142 478.013 400.756 477.819 401.37C477.706 401.757 477.593 402.129 477.48 402.516C477.254 403.275 477.012 404.034 476.786 404.793C476.56 405.552 476.317 406.295 476.091 407.038C475.93 407.571 475.768 408.088 475.607 408.604C475.461 409.073 475.316 409.525 475.171 409.977C475.122 410.106 475.09 410.219 475.058 410.348C474.977 410.607 474.896 410.881 474.799 411.14C474.622 411.673 474.46 412.222 474.283 412.738C474.089 413.352 473.879 413.982 473.685 414.596C472.086 419.505 470.52 424.075 469.05 428.032C479.967 440.58 498.506 451.545 520.307 458.117L532.403 450.253L542.529 463.091C563.829 466.208 586.648 464.981 607.674 457.326C614.618 443.131 626.068 391.05 629.314 375.483C629.96 372.382 630.541 369.265 631.074 366.148C633.658 351.146 635.031 335.917 635.951 319.914C636 319.041 636.048 318.169 636.097 317.297C636.097 317.2 636.096 317.087 636.113 316.991C637.098 303.506 654.716 263.779 652.94 249.487C649.42 221.162 631.365 228.623 615.087 224.246C609.741 222.809 605.252 221 601.57 219.143C600.036 218.368 598.647 217.593 597.387 216.834C596.854 216.527 596.37 216.22 595.901 215.897C590.847 212.619 588.085 209.857 588.085 209.857L551.152 205.998C547.503 210.293 543.191 212.797 538.653 214.411C538.152 214.589 537.652 214.751 537.135 214.912C536.376 215.154 535.617 215.364 534.858 215.558C521.809 218.949 508.002 217.092 503.819 229.753H503.803Z" fill="#5C4DA0"/>
<path d="M596.499 428.581C596.903 428.581 597.29 428.322 597.452 427.919C617.654 373.674 628.119 280.009 628.216 279.072C628.28 278.523 627.877 278.023 627.327 277.958C626.778 277.894 626.278 278.297 626.213 278.846C626.116 279.783 615.684 373.206 595.562 427.208C595.368 427.725 595.627 428.306 596.16 428.516C596.273 428.565 596.402 428.581 596.515 428.581H596.499Z" fill="#4A429A"/>
<path d="M560.777 228.784C560.39 229.963 561.795 231.481 563.926 232.176C566.058 232.87 568.093 232.498 568.48 231.32C568.868 230.141 567.463 228.623 565.331 227.928C563.2 227.234 561.165 227.605 560.777 228.784Z" fill="#4A429A"/>
<path d="M544.273 224.585C543.885 225.764 545.29 227.282 547.422 227.977C549.554 228.671 551.588 228.3 551.976 227.121C552.363 225.942 550.958 224.424 548.827 223.729C546.695 223.035 544.66 223.406 544.273 224.585Z" fill="#4A429A"/>
<path d="M539.606 233.403C540.058 233.403 540.462 233.096 540.591 232.644C540.736 232.111 540.397 231.546 539.864 231.416C525.621 227.767 524.732 219.192 524.7 218.836C524.652 218.287 524.167 217.867 523.618 217.916C523.069 217.964 522.649 218.449 522.698 218.998C522.73 219.418 523.65 229.349 539.38 233.387C539.46 233.403 539.541 233.419 539.638 233.419L539.606 233.403Z" fill="#4A429A"/>
<path d="M517.724 322.707C536.715 322.707 553.171 317.83 564.185 313.405C577.911 307.899 586.438 301.859 586.519 301.794C586.971 301.471 587.084 300.841 586.761 300.389C586.438 299.937 585.808 299.824 585.356 300.147C585.275 300.212 576.91 306.138 563.393 311.548C550.942 316.538 531.418 322.126 509.197 320.333C508.632 320.285 508.147 320.705 508.115 321.254C508.067 321.803 508.487 322.304 509.036 322.336C511.991 322.578 514.898 322.675 517.74 322.675L517.724 322.707Z" fill="#4A429A"/>
<path d="M575.214 358.445C575.214 358.445 529.835 346.882 501.558 346.543L492.918 383.961C492.918 383.961 537.732 391.502 566.09 396.444L575.214 358.445Z" fill="#4A429A"/>
<path d="M600.665 242.172C609.402 242.172 616.088 239.733 620.642 237.214C627.893 233.209 631.429 228.284 631.575 228.074C631.898 227.621 631.785 226.992 631.332 226.669C630.88 226.346 630.25 226.459 629.928 226.911C629.928 226.911 626.472 231.723 619.592 235.486C613.246 238.958 602.571 242.285 587.714 238.393C587.181 238.248 586.616 238.571 586.486 239.12C586.341 239.653 586.664 240.218 587.213 240.347C592.139 241.639 596.644 242.156 600.681 242.156L600.665 242.172Z" fill="#4A429A"/>
<path d="M484.473 378.357C485.151 375.902 485.829 373.512 486.459 371.187C485.813 373.512 485.151 375.902 484.473 378.357Z" fill="#28100C"/>
<path d="M487.767 366.439C488.009 365.551 488.235 364.695 488.461 363.839C488.235 364.695 487.993 365.551 487.767 366.439Z" fill="#28100C"/>
<path d="M497.747 318.056C497.747 318.056 497.892 318.105 497.973 318.105C498.635 318.186 499.249 317.717 499.33 317.055C501.542 300.163 503.981 280.09 504.207 274.421C504.239 273.759 503.722 273.194 503.044 273.162C502.382 273.13 501.817 273.646 501.784 274.325C501.558 279.912 499.12 299.889 496.924 316.748C496.843 317.33 497.198 317.879 497.747 318.056Z" fill="#4A429A"/>
<path d="M541.915 129.467C541.915 129.467 530.207 138.672 537.894 152.706C537.894 152.706 542.109 136.315 541.915 129.467Z" fill="#28100C"/>
<path d="M588.795 192.788C588.795 192.788 596.386 200.168 597.952 194.726C599.518 189.284 596.87 186.57 596.87 186.57C596.87 186.57 605.074 194.451 605.203 188.508C605.332 182.582 601.053 177.269 601.053 177.269C601.053 177.269 608.659 171.697 606.172 162.783C603.685 153.869 603.378 147.344 605.865 140.045C608.352 132.746 607.222 125.204 603.62 121.942C598.356 117.162 590.701 117.905 590.701 117.905C590.701 117.905 586.632 104.565 571.387 104.921C556.142 105.276 547.26 93.3741 539.573 96.4747C531.886 99.5753 523.069 124.978 543.756 132.503C543.756 132.503 584.742 159.989 588.795 192.788Z" fill="#28100C"/>
<path d="M550.086 200.039L549.085 209.68C550.119 210.713 551.168 211.618 552.25 212.425C567.931 224.214 587.278 213.669 587.278 213.669L590.766 180.272L554.947 197.697L550.102 200.055L550.086 200.039Z" fill="#F79A86"/>
<path d="M550.183 199.199L549.085 209.68C550.119 210.713 551.168 211.618 552.25 212.425C567.075 208.275 579.009 194.419 579.009 194.419L554.947 197.697L550.183 199.215V199.199Z" fill="#28100C"/>
<path d="M542.512 156.081C542.512 156.081 537.716 149.04 533.953 155.193C530.191 161.346 531.192 174.669 539.751 173.393L542.529 156.081H542.512Z" fill="#F3796B"/>
<path d="M534.308 178.141C534.308 178.141 532.193 198.052 552.928 200.168C573.518 202.284 589.248 187.572 590.055 186.91H590.087L590.749 182.727L594.189 161.12L596.03 149.573C596.03 149.573 600.843 128.934 581.367 123.04C567.139 118.728 553.267 119.729 545.613 126.577C545.37 126.803 545.128 127.029 544.902 127.255C542.464 129.693 540.752 132.794 539.977 136.589L537.151 157.373L536.456 162.476L534.324 178.125L534.308 178.141Z" fill="#F79A86"/>
<path d="M594.173 161.136C594.173 161.136 589.506 162.589 587.455 168.257C584.371 167.934 582.223 165.06 582.788 162.008C583.111 160.231 583.531 158.116 584.015 155.726C585.501 148.572 587.778 146.311 583.628 141.821C579.477 137.332 583.385 134.667 579.607 131.502C575.456 128.03 565.218 134.183 557.676 132.616C548.729 130.759 549.488 124.687 541.688 131.647C541.688 131.647 543.756 121.167 553.93 118.341C564.103 115.498 592.687 118.001 597.064 131.615C601.44 145.229 594.173 161.136 594.173 161.136Z" fill="#28100C"/>
<path d="M577.782 146.101C576.409 148.459 573.405 149.282 571.015 147.942C569.626 147.167 567.979 146.375 566.203 145.794C563.7 144.97 562.375 142.225 563.344 139.77C563.344 139.77 573.68 139.9 577.782 146.117V146.101Z" fill="#28100C"/>
<path d="M539.46 141.805C540.267 144.244 542.884 145.584 545.338 144.825C546.776 144.373 548.455 143.969 550.183 143.775C552.654 143.501 554.398 141.224 553.994 138.769C553.994 138.769 544.434 136.88 539.46 141.805Z" fill="#28100C"/>
<path d="M563.877 162.799C563.732 164.252 566.59 165.738 570.272 166.126C573.954 166.513 577.071 165.641 577.216 164.204C577.362 162.751 574.503 161.265 570.821 160.877C567.139 160.49 564.023 161.362 563.877 162.799Z" fill="#F3796B"/>
<path d="M536.424 162.508C536.941 162.621 537.474 162.702 538.023 162.751C541.705 163.138 544.821 162.266 544.967 160.813C545.112 159.359 542.254 157.874 538.572 157.486C538.071 157.438 537.587 157.405 537.118 157.405L536.424 162.508Z" fill="#F3796B"/>
<path d="M563.49 154.692C563.28 156.678 564.023 158.39 565.137 158.503C566.251 158.616 567.317 157.098 567.527 155.112C567.737 153.126 566.994 151.414 565.88 151.301C564.765 151.188 563.7 152.706 563.49 154.692Z" fill="#28100C"/>
<path d="M543.481 152.593C543.271 154.579 544.014 156.291 545.129 156.404C546.243 156.517 547.309 154.999 547.519 153.013C547.729 151.026 546.986 149.315 545.871 149.201C544.757 149.088 543.691 150.606 543.481 152.593Z" fill="#28100C"/>
<path d="M549.989 173.183C557.272 173.942 563.877 168.322 563.974 168.241C564.313 167.951 564.362 167.418 564.055 167.078C563.764 166.739 563.231 166.691 562.892 166.998C562.456 167.369 552.218 176.057 543.885 168.693C543.546 168.387 543.029 168.419 542.722 168.758C542.415 169.097 542.447 169.614 542.787 169.921C545.112 171.988 547.583 172.924 549.989 173.183Z" fill="#28100C"/>
<path d="M584.403 178.157C584.467 178.383 586.454 184.746 590.039 186.91H590.055L590.717 182.727C590.717 182.727 587.503 181.823 584.387 178.141L584.403 178.157Z" fill="#28100C"/>
<path d="M589.49 164.705C589.49 164.705 598.565 154.838 603.523 163.849C607.609 171.277 596.628 188.379 587.762 181.193L589.49 164.688V164.705Z" fill="#F79A86"/>
<path d="M589.199 178.108C589.619 178.157 590.006 177.882 590.087 177.462C591.815 169.452 598.888 167.353 599.195 167.256C599.631 167.127 599.89 166.675 599.761 166.239C599.631 165.803 599.179 165.544 598.743 165.674C598.404 165.77 590.426 168.112 588.472 177.107C588.375 177.559 588.666 177.995 589.102 178.092C589.134 178.092 589.167 178.092 589.199 178.092V178.108Z" fill="#28100C"/>
<path d="M597.354 173.942C597.597 173.974 597.839 173.893 598.017 173.7C598.339 173.377 598.339 172.86 598.017 172.537C597.71 172.23 595.013 169.614 592.494 169.985C592.041 170.05 591.735 170.47 591.799 170.922C591.864 171.374 592.284 171.681 592.736 171.616C594.189 171.406 596.192 173.054 596.854 173.7C596.999 173.845 597.177 173.91 597.354 173.942Z" fill="#28100C"/>
<path d="M554.301 163.865C554.753 163.913 555.157 163.59 555.205 163.138C555.254 162.686 554.931 162.282 554.479 162.234C551.459 161.911 550.215 160.183 549.828 159.44C553.8 153.045 557.757 146.601 557.805 146.521C558.047 146.133 557.918 145.633 557.531 145.39C557.143 145.148 556.643 145.277 556.4 145.665C556.352 145.729 552.25 152.431 548.197 158.939C548.067 159.149 548.035 159.408 548.116 159.65C548.164 159.795 549.456 163.364 554.301 163.865Z" fill="#28100C"/>
<g opacity="0.5">
<path d="M553.913 157.341C553.752 160.118 558.241 162.637 563.974 162.993C569.691 163.348 574.471 161.378 574.633 158.6C574.794 155.823 570.305 153.303 564.572 152.948C558.855 152.609 554.075 154.563 553.913 157.341Z" fill="white"/>
</g>
<g opacity="0.5">
<path d="M527.413 156.226C527.251 159.004 531.741 161.523 537.474 161.879C543.191 162.234 547.971 160.264 548.132 157.486C548.294 154.708 543.804 152.189 538.071 151.834C532.355 151.495 527.574 153.449 527.413 156.226Z" fill="white"/>
</g>
<path d="M548.084 157.454C548.229 157.454 548.374 157.405 548.487 157.308C550.668 155.403 553.542 157.276 553.655 157.357C553.93 157.534 554.317 157.47 554.495 157.195C554.672 156.921 554.608 156.549 554.333 156.356C553.041 155.484 549.989 154.385 547.696 156.404C547.438 156.63 547.422 157.002 547.631 157.26C547.744 157.405 547.922 157.47 548.084 157.47V157.454Z" fill="#28100C"/>
<path d="M596.531 160.247C596.709 160.247 596.886 160.167 597.015 160.005C597.225 159.747 597.177 159.359 596.902 159.149C587.762 152.06 574.891 157.179 574.358 157.389C574.051 157.518 573.906 157.873 574.019 158.18C574.148 158.487 574.504 158.632 574.81 158.519C574.94 158.471 587.568 153.449 596.16 160.118C596.273 160.199 596.402 160.247 596.531 160.247Z" fill="#28100C"/>
<path d="M613.568 440.515C613.568 440.515 610.71 523.86 510.117 490.674C456.389 472.942 432.553 459.329 432.553 459.329C432.553 459.329 415.613 506.355 406.505 525.54C397.397 544.725 372.091 591.687 372.091 591.687L328.682 580.996C328.682 580.996 379.229 405.068 410.445 397.623C441.661 390.178 479.111 402.016 545.161 417.002C545.161 417.002 602.845 425.835 613.552 440.515H613.568Z" fill="white"/>
<path d="M370.864 575.893C371.38 576.07 371.978 575.86 372.269 575.376C386.286 552.703 400.207 518.354 411.382 490.755C416.081 479.144 420.151 469.099 423.542 461.606C428.128 451.448 430.002 449.429 430.712 449.122C433.829 447.782 444.067 452.417 457.019 458.263C475.784 466.741 504.126 479.563 537.102 486.411C554.01 489.915 568.674 487.622 580.64 479.58C601.957 465.271 607.222 438.157 607.432 437.011C607.561 436.348 607.125 435.719 606.463 435.606C605.801 435.476 605.171 435.912 605.042 436.575C604.993 436.849 599.729 463.866 579.268 477.593C567.85 485.248 553.833 487.412 537.587 484.053C504.885 477.27 476.672 464.512 458.004 456.066C442.937 449.252 433.845 445.15 429.743 446.91C426.013 448.509 420.102 462.736 409.121 489.85C397.978 517.352 384.106 551.605 370.185 574.1C369.83 574.665 370.008 575.424 370.573 575.764C370.654 575.812 370.734 575.86 370.831 575.877L370.864 575.893Z" fill="#D8D8D8"/>
<path d="M333.93 567.528C333.93 567.528 333.979 567.528 333.995 567.544L377.872 579.139C378.518 579.316 379.18 578.929 379.358 578.283C379.535 577.637 379.148 576.959 378.502 576.797L334.625 565.202C333.979 565.024 333.317 565.412 333.139 566.058C332.978 566.688 333.333 567.318 333.93 567.511V567.528Z" fill="#D8D8D8"/>
<path d="M382.945 391.196L381.386 407.724C381.361 407.981 381.551 408.21 381.808 408.234L514.867 420.788C515.125 420.813 515.353 420.624 515.377 420.366L516.937 403.838C516.961 403.581 516.772 403.352 516.514 403.328L383.455 390.774C383.198 390.749 382.97 390.938 382.945 391.196Z" fill="#28100C"/>
<path d="M367.327 406.86C362.289 406.392 358.187 402.581 357.347 397.591L341.133 301.374C340.148 295.496 344.993 290.28 350.936 290.829L410.93 296.481C414.983 296.869 418.277 299.889 419.004 303.894L438.948 413.611L367.327 406.86Z" fill="#28100C"/>
<path d="M401.628 387.045L400.917 381.878L404.987 382.184L403.759 377.42L409.153 377.84L410.38 382.604L413.707 382.863L412.48 378.099L417.874 378.519L419.101 383.283L423.816 383.638L424.527 388.806L420.457 388.499L421.556 392.875L426.271 393.23L426.982 398.398L422.912 398.091L424.139 402.855L418.746 402.435L417.518 397.671L414.192 397.413L415.419 402.177L410.025 401.757L408.798 396.993L404.082 396.638L403.372 391.47L407.441 391.777L406.343 387.401L401.628 387.045ZM412.835 392.197L416.162 392.455L415.064 388.079L411.737 387.82L412.835 392.197Z" fill="#4A429A"/>
<path d="M348.53 317.217C349.935 323.499 355.635 328.989 361.271 329.49C366.907 329.991 370.331 325.291 368.926 319.009C367.521 312.727 361.82 307.237 356.184 306.736C350.548 306.235 347.125 310.935 348.53 317.217Z" fill="#FBB416"/>
<path d="M359.931 316.086C360.205 317.346 360.835 318.396 361.319 318.444C361.804 318.492 361.982 317.507 361.691 316.248C361.416 314.988 360.787 313.938 360.302 313.89C359.818 313.841 359.64 314.827 359.931 316.086Z" fill="#28100C"/>
<path d="M354.602 315.618C354.876 316.878 355.506 317.927 355.99 317.976C356.475 318.024 356.652 317.039 356.362 315.779C356.087 314.52 355.457 313.47 354.973 313.422C354.488 313.373 354.311 314.358 354.602 315.618Z" fill="#28100C"/>
<path d="M359.883 323.644C364.275 324.032 364.178 319.219 364.178 319.171C364.178 318.912 363.952 318.638 363.71 318.557C363.452 318.476 363.258 318.622 363.274 318.896C363.274 319.074 363.322 322.982 359.673 322.659C356.007 322.336 354.279 318.266 354.214 318.105C354.101 317.83 353.827 317.636 353.601 317.685C353.374 317.717 353.278 317.976 353.391 318.25C353.407 318.299 355.506 323.273 359.899 323.66L359.883 323.644Z" fill="#28100C"/>
<path d="M419.004 303.91L438.787 412.722L445.65 413.368L425.868 304.556C425.141 300.551 421.846 297.515 417.793 297.143L410.93 296.497C414.983 296.885 418.277 299.905 419.004 303.91Z" fill="#28100C"/>
<path d="M438.173 411.996C438.173 411.996 438.286 411.996 438.351 411.979C438.9 411.883 439.271 411.35 439.158 410.801L419.602 302.23C419.505 301.681 418.972 301.31 418.423 301.407C417.874 301.504 417.502 302.036 417.616 302.585L437.172 411.156C437.253 411.64 437.689 411.996 438.173 411.996Z" fill="#5A4C54"/>
<path d="M397.187 353.972C397.994 359.996 393.876 364.42 387.982 363.871C382.088 363.322 376.661 357.977 375.854 351.953C375.047 345.93 379.165 341.505 385.059 342.054C390.953 342.603 396.379 347.948 397.187 353.956V353.972Z" fill="white"/>
<path d="M535.714 353.875C536.134 353.875 536.537 353.601 536.666 353.181C548.391 318.186 565.331 231.013 565.493 230.125C565.606 229.576 565.234 229.043 564.685 228.946C564.136 228.833 563.603 229.204 563.506 229.753C563.345 230.625 546.437 317.669 534.745 352.551C534.567 353.084 534.858 353.649 535.374 353.827C535.488 353.859 535.584 353.875 535.697 353.875H535.714Z" fill="white"/>
<path d="M510.65 350.548C511.151 350.548 511.587 350.177 511.651 349.676C518.789 297.579 548.584 227.46 548.891 226.749C549.117 226.233 548.875 225.635 548.358 225.425C547.841 225.199 547.244 225.441 547.034 225.958C546.727 226.669 516.819 297.03 509.649 349.402C509.568 349.951 509.956 350.468 510.521 350.548C510.569 350.548 510.618 350.548 510.666 350.548H510.65Z" fill="white"/>
<path d="M582.643 486.443C584.791 486.443 587.1 485.7 589.458 484.23C598.049 478.853 608.449 462.542 612.309 438.254C612.389 437.705 612.018 437.188 611.469 437.091C610.92 436.994 610.403 437.382 610.306 437.931C606.543 461.606 596.579 477.383 588.376 482.519C585.582 484.263 582.933 484.828 580.721 484.15C578.945 483.601 577.556 482.389 576.522 480.419C569.368 466.935 581.803 426.32 581.932 425.916C582.094 425.383 581.803 424.818 581.27 424.656C580.737 424.495 580.172 424.786 580.01 425.319C579.478 427.014 567.204 467.161 574.746 481.372C576.038 483.811 577.863 485.393 580.156 486.088C580.963 486.33 581.803 486.459 582.659 486.459L582.643 486.443Z" fill="white"/>
<path d="M714.226 173.07C711.981 172.941 709.704 169.759 707.217 168.112C703.955 165.948 699.724 161.685 697.964 158.665C695.331 154.127 688.306 140.303 689.614 136.153C690.922 131.986 697.899 143.436 699.385 145.746C700.87 148.071 702.727 149.088 702.727 149.088C702.727 149.088 688.758 121.603 690.163 118.421C691.568 115.24 701.096 130.081 703.422 133.763C703.422 133.763 694.039 112.462 695.573 110.718C698.642 107.23 709.752 130.582 709.752 130.582C709.752 130.582 702.776 112.268 705.812 111.203C709.042 110.072 716.454 129.726 716.454 129.726C716.454 129.726 713.644 117.113 715.857 114.998C718.069 112.882 725.998 138.898 726.741 143.049C727.484 147.199 730.391 158.213 730.423 163.719C730.455 167.466 721.331 173.49 714.209 173.054L714.226 173.07Z" fill="#F79A86"/>
<path d="M721.186 135.636C721.17 135.2 720.831 134.845 720.395 134.813C710.108 133.957 702.776 141.062 702.469 141.353C702.13 141.692 702.13 142.241 702.469 142.58C702.808 142.919 703.357 142.919 703.697 142.58C703.697 142.58 710.802 135.733 720.266 136.524C720.734 136.557 721.154 136.218 721.202 135.733C721.202 135.701 721.202 135.652 721.202 135.62L721.186 135.636Z" fill="#F3796B"/>
<path d="M721.896 157.437C721.896 157.098 721.67 156.775 721.315 156.662C711.593 153.206 710.98 145.132 710.963 145.051C710.931 144.583 710.527 144.211 710.043 144.244C709.575 144.276 709.219 144.68 709.235 145.148C709.252 145.536 709.93 154.466 720.734 158.31C721.186 158.471 721.67 158.229 721.832 157.777C721.864 157.664 721.88 157.551 721.88 157.454L721.896 157.437Z" fill="#F3796B"/>
<path d="M637.178 232.369L637.114 232.337H637.178L637.388 232.402L637.873 232.531L638.939 232.821C639.682 233.015 640.457 233.225 641.248 233.419C642.831 233.807 644.446 234.178 646.093 234.517C649.387 235.179 652.746 235.777 656.121 236.213C657.817 236.423 659.513 236.633 661.208 236.81C662.904 236.972 664.6 237.117 666.311 237.214C668.007 237.327 669.719 237.376 671.415 237.424C673.11 237.472 674.806 237.489 676.502 237.456C690.067 237.295 703.438 235.05 716.018 230.528C716.81 230.254 717.585 229.963 718.376 229.656C719.167 229.366 719.926 229.043 720.702 228.736L721.283 228.494C721.041 228.59 720.799 228.72 720.524 228.849C720.007 229.123 719.442 229.446 718.925 229.834C718.392 230.221 717.892 230.641 717.456 231.094C717.02 231.53 716.632 231.982 716.309 232.385C715.679 233.209 715.324 233.92 715.146 234.339C714.953 234.775 714.92 235.002 714.92 235.018C714.936 235.066 715.098 234.42 715.162 233.484C715.227 232.547 715.243 231.336 715.195 229.979C715.146 228.623 715.017 227.153 714.823 225.619C714.468 222.534 713.871 219.208 713.176 215.816C711.739 209.018 709.817 201.944 707.702 194.871C706.652 191.334 705.521 187.782 704.359 184.229C703.794 182.452 703.196 180.692 702.598 178.932L700.871 173.829L734.121 157.115L734.913 158.616L735.64 160.021L737.044 162.799C737.949 164.656 738.837 166.513 739.725 168.387C741.453 172.133 743.1 175.912 744.683 179.772C747.816 187.491 750.658 195.42 752.984 203.963C754.146 208.226 755.164 212.651 755.955 217.415C756.343 219.805 756.666 222.276 756.876 224.892C757.102 227.508 757.199 230.286 757.086 233.354C756.956 236.423 756.633 239.798 755.648 243.754C755.148 245.725 754.453 247.872 753.436 250.182C752.435 252.459 751.046 254.962 749.172 257.4C748.236 258.628 747.17 259.839 746.007 260.985C744.828 262.132 743.553 263.23 742.196 264.199C740.84 265.168 739.418 266.04 737.997 266.767C737.287 267.138 736.56 267.461 735.866 267.768L735.042 268.107C733.944 268.559 732.862 269.012 731.764 269.448C730.666 269.884 729.567 270.304 728.453 270.707C726.241 271.531 724.012 272.274 721.767 272.984C719.523 273.662 717.262 274.325 715.001 274.906C712.74 275.504 710.463 276.02 708.186 276.505C705.909 276.973 703.616 277.409 701.339 277.764C692.198 279.25 683.026 279.815 673.982 279.605C669.461 279.508 664.971 279.202 660.53 278.685C656.089 278.168 651.68 277.522 647.32 276.634C645.14 276.198 642.976 275.713 640.812 275.181C638.648 274.648 636.5 274.082 634.369 273.42C632.221 272.774 630.089 272.096 627.941 271.321C626.859 270.933 625.793 270.53 624.695 270.094C624.146 269.867 623.597 269.658 623.016 269.415L620.981 268.543L637.162 232.337L637.178 232.369Z" fill="#5C4DA0"/>
<path d="M748.268 238.587C748.042 239.136 747.445 239.459 746.863 239.313C737.852 237.149 728.695 231.949 728.308 231.739C727.726 231.4 727.517 230.674 727.856 230.092C728.195 229.511 728.922 229.301 729.503 229.64C729.6 229.689 738.756 234.872 747.428 236.972C748.074 237.133 748.478 237.779 748.317 238.441C748.317 238.506 748.284 238.554 748.268 238.603V238.587Z" fill="#4A429A"/>
<path d="M737.044 241.364C736.964 241.574 736.818 241.752 736.625 241.897C736.076 242.285 735.317 242.172 734.929 241.623C734.719 241.332 729.648 234.307 728.453 231.626C728.179 231.013 728.453 230.302 729.067 230.028C729.681 229.753 730.391 230.028 730.666 230.641C731.764 233.096 736.835 240.137 736.899 240.202C737.158 240.557 737.19 240.993 737.044 241.364Z" fill="#4A429A"/>
<path d="M737.577 166.093C737.48 166.352 737.27 166.546 736.98 166.626C726.515 169.711 708.283 178.787 708.105 178.883C707.653 179.11 707.104 178.932 706.862 178.464C706.636 178.011 706.813 177.462 707.265 177.236C707.443 177.139 725.821 167.999 736.447 164.866C736.931 164.721 737.448 164.995 737.593 165.496C737.658 165.706 737.642 165.916 737.561 166.093H737.577Z" fill="#4A429A"/>
<path d="M638.535 615.523C638.793 616.653 639.1 617.767 639.455 618.849C641.829 626.133 646.19 631.946 652.116 634.352C674.564 643.461 695.67 640.312 738.627 639.31C781.567 638.309 813.462 626.94 809.489 591.574C809.166 588.78 808.633 586.18 807.907 583.741C806.954 580.544 805.662 577.653 804.128 575.037C802.335 571.952 800.203 569.239 797.878 566.882C785.831 554.641 767.679 550.636 751.417 556.207C735.365 561.714 706.991 564.378 677.454 564.96C645.721 565.606 633.852 595.256 638.535 615.49V615.523Z" fill="#48CFAD"/>
<path d="M638.535 615.523C638.793 616.653 639.1 617.767 639.455 618.849C647.061 625.487 661.402 629.685 682.186 631.333C688.71 631.866 695.896 632.108 703.616 632.108C721.493 632.108 742.325 630.719 765.079 627.99C784.329 625.68 797.345 618.898 803.788 607.836C808.585 599.6 808.827 590.605 807.906 583.757C806.954 580.56 805.662 577.669 804.127 575.053C805.791 580.172 809.457 594.706 802.303 606.996C796.15 617.574 783.554 624.065 764.869 626.31C697.366 634.417 651.422 630.477 638.535 615.523Z" fill="#308A73"/>
<path d="M766.871 571.775C780.065 572.841 789.819 584.872 787.655 597.936C787.607 598.195 787.575 598.437 787.51 598.695C784.668 612.923 765.531 612.503 712.401 613.003C670.784 613.391 649.387 598.501 660.465 580.108C669.266 565.477 738.772 569.514 766.871 571.775Z" fill="#308A73"/>
<path d="M666.505 582.546C685.868 606.657 764.837 608.013 775.205 589.959C780.259 581.174 778.854 569.901 776.109 560.664C775.818 559.695 775.511 558.742 775.205 557.822C772.362 549.505 768.793 543.433 768.793 543.433C768.793 543.433 769.116 552.024 739.983 548.94C736.657 548.585 732.862 548.439 728.808 548.488C728.049 548.488 727.29 548.504 726.515 548.536C695.105 549.473 649.791 561.73 666.521 582.562L666.505 582.546Z" fill="#28100C"/>
<path d="M729.955 568.174C734.509 573.261 742.438 575.182 752.854 573.713C753.096 573.68 753.322 573.648 753.548 573.616C766.678 571.597 773.073 565.347 776.093 560.664C775.802 559.695 775.495 558.743 775.188 557.822C772.96 562.134 767.081 569.482 752.531 571.516C742.89 572.873 735.639 571.193 731.602 566.688C727.968 562.618 726.999 556.336 728.776 548.472C728.017 548.472 727.258 548.488 726.483 548.52C724.69 556.885 725.885 563.652 729.938 568.174H729.955Z" fill="#FBAB47"/>
<path d="M677.454 564.992C677.454 564.992 658.915 563.619 656.719 554.269C654.522 544.919 697.059 553.123 701.742 533.841C706.442 514.575 687.628 499.201 681.524 504.837C674.289 511.522 690.131 514.365 690.987 524.28C691.698 532.516 686.595 540.106 670.752 541.237C654.91 542.367 647.837 544.822 647.901 552.186C647.982 560.196 660.804 568.464 668.604 568.981C676.404 569.498 677.454 564.992 677.454 564.992Z" fill="#28100C"/>
<path d="M758.797 536.328C758.797 536.328 764.304 529.174 773.25 524.41C774.558 523.715 776.109 524.765 775.947 526.234L774.252 542.642C774.252 542.642 761.397 543.74 758.781 536.344L758.797 536.328Z" fill="#28100C"/>
<path d="M771.119 540.656C771.846 536.941 772.023 533.033 772.879 528.641C772.879 528.641 763.206 534.406 762.641 537.571C762.641 537.571 767.97 541.608 771.119 540.656Z" fill="#5A4C54"/>
<path d="M742.018 536.99C742.018 536.99 734.46 532.436 724.561 531.192C722.946 530.982 721.751 532.694 722.478 534.164L729.244 547.664C729.244 547.664 742.277 544.838 742.002 536.99H742.018Z" fill="#28100C"/>
<path d="M732.119 545.5C730.084 542.303 728.501 538.718 726.111 534.955C726.111 534.955 737.206 536.812 738.901 539.557C738.901 539.557 735.397 545.258 732.119 545.516V545.5Z" fill="#5A4C54"/>
<path d="M765.983 536.618C765.983 536.618 777.433 538.362 776.577 551.782C775.721 565.202 762.657 566.623 762.657 566.623C762.657 566.623 760.331 570.935 752.257 572.679C747.089 573.793 739.402 573.438 737.448 569.643C737.448 569.643 726.241 565.541 726.37 555.545C726.515 544.467 739.854 530.869 765.983 536.618Z" fill="#28100C"/>
<path d="M777.611 568.335C777.611 568.335 772.944 587.375 769.019 591.315C765.111 595.239 760.864 597.403 755.406 598.065C746.604 599.131 748.219 605.01 750.852 607.028C753.888 609.37 759.282 608.029 767.388 608.029C774.381 608.029 780.97 606.641 783.344 602.038C785.701 597.436 785.556 583.838 783.037 576.183C781.487 571.468 779.306 568.997 777.627 568.351L777.611 568.335Z" fill="#28100C"/>
<path d="M718.457 569.595C718.457 569.595 723.124 588.634 727.048 592.575C730.956 596.499 735.236 598.453 740.662 599.325C747.299 600.375 746.685 606.641 745.216 608.288C742.648 611.146 736.786 609.289 728.679 609.289C721.687 609.289 713.418 606.495 711.044 601.893C708.687 597.29 710.511 585.098 713.031 577.443C714.581 572.728 716.761 570.257 718.441 569.611L718.457 569.595Z" fill="#28100C"/>
<path d="M679.36 565.8C679.36 565.8 667.038 562.844 663.065 572.13C656.815 586.729 661.805 595.078 678.455 597.403C695.105 599.729 714.016 602.878 699.724 591.025C685.415 579.187 679.36 565.8 679.36 565.8Z" fill="#28100C"/>
<path d="M745.668 558.29C745.668 558.29 750.642 557.757 751.966 558.371C754.195 559.388 750.61 563.539 748.333 563.894C746.055 564.249 743.843 561.585 743.875 559.841C743.908 558.113 745.668 558.29 745.668 558.29Z" fill="#5A4C54"/>
<path d="M743.116 554.463C743.359 554.318 743.617 554.625 743.439 554.834C742.454 556.013 740.629 557.564 738.159 557.047C736.124 556.611 735.349 555.19 735.074 553.946C735.01 553.672 735.397 553.51 735.526 553.769C736.059 554.689 737.077 555.626 739.063 555.755C740.565 555.852 742.099 555.109 743.116 554.479V554.463Z" fill="#5A4C54"/>
<path d="M762.382 553.446C762.592 553.252 762.899 553.51 762.77 553.752C762.011 555.093 760.509 556.95 757.989 556.902C755.906 556.853 754.889 555.593 754.388 554.415C754.275 554.156 754.614 553.93 754.808 554.156C755.486 554.964 756.665 555.706 758.652 555.464C760.137 555.287 761.526 554.269 762.398 553.462L762.382 553.446Z" fill="#5A4C54"/>
</g>
<defs>
<clipPath id="clip0_314_390">
<rect width="1016.71" height="655.96" fill="white"/>
</clipPath>
</defs>
</svg>
