<svg width="745" height="656" viewBox="0 0 745 656" fill="none" xmlns="http://www.w3.org/2000/svg">
<g clip-path="url(#clip0_315_298)">
<path d="M42.9077 342.727C-34.8598 389.76 24.5784 459.146 19.2828 539.317C13.9872 619.495 76.3097 636.313 76.3097 636.313L698.519 634.483C733.867 571.718 729.936 497.998 702.907 417.657C680.306 350.473 596.444 247.669 461.588 316.505C412.718 341.448 335.377 327.554 308.154 266.937C308.154 266.937 287.545 180.09 216.454 166.739C158.419 155.845 102.036 196.357 93.3751 241.536C84.7067 286.716 92.8246 317.598 42.9154 342.719" fill="#7775B7"/>
<path d="M715.964 418.176C723.912 429.279 738.434 427.814 743.35 415.152C744.97 410.966 745.474 405.67 743.846 398.979C737.643 373.493 718.98 365.646 706.776 381.293C699.24 390.946 708.094 407.174 715.972 418.176H715.964Z" fill="#7775B7"/>
<path d="M724.253 323.39L724.377 313.055L714.693 312.938C714.235 310.48 713.367 308.1 712.118 305.867L718.864 299.277L711.646 291.88L705.187 298.183C702.582 296.361 699.69 295.121 696.689 294.485L696.805 284.801L686.47 284.677L686.346 294.656C684.322 295.144 682.353 295.912 680.492 296.951L673.902 290.197L666.505 297.416L672.808 303.874C670.986 306.48 669.746 309.372 669.11 312.372L660.643 312.271L660.519 322.607L669.28 322.715C669.908 325.297 670.971 327.794 672.49 330.081L666.032 336.385L673.25 343.782L680.004 337.191C682.57 338.711 685.353 339.696 688.23 340.145L688.114 349.884L698.449 350.008L698.581 339.447C700.729 338.804 702.799 337.842 704.722 336.555L711.025 343.014L718.422 335.796L711.832 329.042C712.917 327.212 713.731 325.259 714.266 323.25L724.245 323.374L724.253 323.39ZM698.472 323.995C694.735 327.647 688.726 327.569 685.074 323.832C681.422 320.095 681.5 314.086 685.237 310.434C688.974 306.782 694.983 306.86 698.635 310.597C702.287 314.334 702.209 320.343 698.472 323.995V323.995Z" fill="#7775B7"/>
<path d="M715.84 244.529L715.91 238.885L710.622 238.823C710.374 237.481 709.893 236.179 709.211 234.954L712.901 231.356L708.955 227.317L705.427 230.759C704.008 229.759 702.426 229.084 700.783 228.735L700.845 223.44L695.2 223.37L695.138 228.821C694.029 229.092 692.959 229.503 691.944 230.077L688.346 226.386L684.307 230.333L687.749 233.86C686.749 235.279 686.074 236.861 685.725 238.505L681.097 238.451L681.027 244.095L685.819 244.149C686.16 245.561 686.741 246.925 687.571 248.173L684.043 251.616L687.99 255.656L691.68 252.058C693.084 252.888 694.603 253.423 696.177 253.671L696.115 258.997L701.76 259.067L701.829 253.298C703 252.95 704.132 252.422 705.187 251.717L708.629 255.245L712.669 251.298L709.071 247.607C709.668 246.607 710.11 245.545 710.405 244.444L715.856 244.514L715.84 244.529ZM701.752 244.863C699.713 246.855 696.425 246.817 694.433 244.777C692.44 242.738 692.479 239.451 694.518 237.458C696.565 235.465 699.845 235.504 701.837 237.543C703.83 239.59 703.791 242.87 701.752 244.863Z" fill="#7775B7"/>
<path d="M73.4876 271.829L75.4802 261.688L65.9822 259.827C65.9822 257.33 65.548 254.826 64.7261 252.407L72.5572 247.15L66.7963 238.575L59.3065 243.607C57.0734 241.343 54.4528 239.598 51.615 238.435L53.4836 228.929L43.342 226.937L41.4192 236.729C39.3412 236.846 37.2711 237.241 35.2474 237.931L29.9905 230.1L21.4152 235.861L26.4472 243.351C24.1832 245.584 22.4386 248.204 21.2756 251.042L12.9716 249.414L10.979 259.556L19.5776 261.246C19.7249 263.897 20.3219 266.549 21.4074 269.069L13.9098 274.101L19.6707 282.676L27.5017 277.42C29.7502 279.373 32.3166 280.847 35.0536 281.808L33.1772 291.368L43.3188 293.361L45.3502 282.994C47.5832 282.746 49.7929 282.172 51.9174 281.265L56.9494 288.763L65.5247 283.002L60.2679 275.171C61.6713 273.566 62.8188 271.798 63.7104 269.914L73.5031 271.837L73.4876 271.829ZM48.0174 267.766C43.6832 270.682 37.7828 269.519 34.8752 265.185C31.9599 260.85 33.1229 254.95 37.4571 252.042C41.7913 249.127 47.6917 250.29 50.5993 254.624C53.5146 258.959 52.3516 264.859 48.0174 267.766V267.766Z" fill="#7775B7"/>
<path d="M84.3346 195.333L85.4201 189.79L80.2253 188.774C80.2253 187.409 79.9927 186.045 79.5352 184.719L83.8151 181.842L80.6672 177.152L76.5734 179.904C75.3561 178.663 73.9217 177.718 72.371 177.074L73.3945 171.879L67.8507 170.794L66.804 176.144C65.6643 176.206 64.5322 176.423 63.4312 176.803L60.5547 172.523L55.8639 175.671L58.6163 179.764C57.3758 180.982 56.4299 182.416 55.7863 183.967L51.2505 183.075L50.165 188.619L54.8637 189.542C54.9412 190.992 55.2668 192.441 55.8639 193.822L51.77 196.574L54.9179 201.265L59.1978 198.388C60.4229 199.458 61.8263 200.265 63.3227 200.784L62.2992 206.01L67.843 207.095L68.9517 201.435C70.169 201.304 71.3786 200.986 72.5416 200.49L75.2941 204.583L79.9849 201.435L77.1084 197.156C77.876 196.279 78.504 195.31 78.9925 194.279L84.3424 195.333H84.3346ZM70.4171 193.116C68.0446 194.705 64.8269 194.077 63.2297 191.705C61.6402 189.332 62.2682 186.115 64.6408 184.517C67.0134 182.928 70.231 183.556 71.8283 185.928C73.4177 188.301 72.7897 191.519 70.4171 193.116Z" fill="#7775B7"/>
<path opacity="0.06" d="M742.412 641.345C742.412 649.416 578.007 655.96 375.199 655.96C172.391 655.96 7.98633 649.416 7.98633 641.345C7.98633 633.273 172.391 626.729 375.199 626.729C578.007 626.729 742.412 633.273 742.412 641.345Z" fill="black"/>
<path d="M579.084 409.461C581.782 431.714 561.833 439.653 569.198 455.47C576.564 471.288 571.788 487.795 556.692 490.865C541.596 493.936 530.315 495.347 530.92 514.002C531.524 532.656 514.878 549.342 501.464 540.232C498.122 537.968 494.509 535.51 490.974 533.091C490.004 532.432 489.043 531.773 488.097 531.129C487.88 530.982 487.655 530.834 487.438 530.679C473.203 520.964 468.295 502.03 476.467 486.857C479.778 480.716 484.825 475.878 492.517 474.924C516.607 471.931 499.58 453.788 508.357 439.173C518.467 422.34 536.184 428.729 542.356 415.447C550.939 396.97 576.386 387.201 579.084 409.461Z" fill="#5C4EA0"/>
<path d="M557.297 429.047L490.974 533.083C490.004 532.424 489.043 531.765 488.097 531.121L554.358 427.178C554.878 426.364 555.956 426.124 556.762 426.643C557.576 427.163 557.816 428.24 557.297 429.047V429.047Z" fill="white"/>
<path d="M617.479 495.719C610.633 518.731 587.651 518.018 588.14 536.704C588.628 555.382 576.89 569.571 560.755 566.144C544.612 562.717 532.927 559.297 525.569 577.882C518.211 596.468 494.734 605.756 485.445 591.087C483.127 587.435 480.63 583.48 478.188 579.596C477.521 578.534 476.854 577.479 476.195 576.44C476.04 576.2 475.885 575.96 475.738 575.719C465.899 560.104 469.147 539.402 483.654 527.989C489.523 523.368 496.548 520.77 504.511 523.112C529.454 530.447 520.468 505.356 535.323 494.75C552.435 482.522 567.12 496.362 578.844 485.942C595.157 471.458 624.325 472.714 617.479 495.727V495.719Z" fill="#6760A0"/>
<path d="M587.729 505.667L478.188 579.588C477.521 578.526 476.854 577.472 476.195 576.433L585.643 502.581C586.496 502.007 587.659 502.232 588.233 503.085C588.807 503.937 588.582 505.101 587.729 505.674V505.667Z" fill="white"/>
<path d="M250.538 341.456C248.964 359.281 265.083 365.088 259.617 377.897C254.151 390.706 258.392 403.747 270.503 405.809C282.622 407.864 291.655 408.702 291.655 423.596C291.655 438.49 305.363 451.369 315.822 443.755C318.427 441.863 321.25 439.808 324.002 437.785C324.754 437.234 325.506 436.684 326.243 436.141C326.414 436.017 326.584 435.893 326.755 435.769C337.858 427.651 341.285 412.423 334.376 400.529C331.577 395.714 327.421 391.993 321.265 391.427C301.975 389.659 315.086 374.749 307.704 363.32C299.207 350.155 285.235 355.706 279.97 345.27C272.643 330.756 252.096 323.623 250.522 341.44L250.538 341.456Z" fill="#5C4EA0"/>
<path d="M268.417 356.513L324.01 437.793C324.762 437.242 325.514 436.692 326.251 436.149L270.713 354.947C270.278 354.311 269.418 354.148 268.782 354.582C268.146 355.016 267.983 355.877 268.417 356.513V356.513Z" fill="white"/>
<path d="M208.692 394.21C214.957 415.269 235.985 414.61 235.535 431.706C235.085 448.795 245.832 461.774 260.586 458.642C275.349 455.509 286.041 452.377 292.779 469.38C299.509 486.384 320.986 494.881 329.492 481.46C331.608 478.118 333.896 474.498 336.136 470.946C336.749 469.977 337.354 469.008 337.958 468.054C338.098 467.837 338.238 467.612 338.377 467.395C347.379 453.106 344.402 434.172 331.135 423.728C325.762 419.502 319.335 417.122 312.054 419.269C289.236 425.976 297.462 403.026 283.862 393.319C268.208 382.13 254.771 394.792 244.048 385.263C229.123 372.012 202.435 373.16 208.7 394.21H208.692Z" fill="#6760A0"/>
<path d="M235.915 403.313L336.136 470.939C336.749 469.97 337.354 469 337.959 468.047L237.83 400.475C237.047 399.948 235.985 400.149 235.458 400.932C234.93 401.716 235.132 402.778 235.915 403.305V403.313Z" fill="white"/>
<path d="M144.385 140.532C150.844 159.319 169.817 157.931 170.065 173.391C170.313 188.852 180.509 200.164 193.728 196.776C206.948 193.38 216.492 190.146 223.223 205.25C229.953 220.354 249.677 227.224 256.849 214.771C258.64 211.67 260.563 208.313 262.455 205.018C262.967 204.118 263.486 203.219 263.99 202.335C264.107 202.133 264.231 201.924 264.339 201.722C271.93 188.472 268.526 171.476 256.136 162.544C251.12 158.931 245.227 157.023 238.722 159.241C218.361 166.173 224.921 145.122 212.267 136.864C197.698 127.351 186.037 139.299 175.988 131.096C162.001 119.69 137.934 121.737 144.393 140.524L144.385 140.532Z" fill="#5C4EA0"/>
<path d="M169.328 147.719L262.447 205.018C262.959 204.118 263.478 203.219 263.982 202.335L170.948 145.091C170.22 144.641 169.274 144.866 168.824 145.595C168.374 146.324 168.599 147.27 169.328 147.719V147.719Z" fill="white"/>
<path d="M170.352 43.9855C167.615 66.5636 187.851 74.6117 180.385 90.6537C172.91 106.696 177.764 123.443 193.069 126.56C208.383 129.669 219.827 131.104 219.214 150.03C218.594 168.948 235.489 185.874 249.088 176.632C252.477 174.337 256.144 171.84 259.726 169.39C260.703 168.723 261.688 168.057 262.641 167.398C262.866 167.25 263.091 167.095 263.308 166.94C277.745 157.086 282.731 137.88 274.434 122.489C271.077 116.263 265.952 111.355 258.152 110.386C233.721 107.347 250.988 88.9479 242.087 74.1233C231.829 57.0424 213.856 63.532 207.599 50.0565C198.892 31.3163 173.081 21.4074 170.344 43.9777L170.352 43.9855Z" fill="#5C4EA0"/>
<path d="M192.449 63.8577L259.726 169.398C260.703 168.731 261.688 168.064 262.642 167.405L195.434 61.9581C194.907 61.1362 193.822 60.8958 192.992 61.4153C192.17 61.9426 191.93 63.028 192.449 63.8577Z" fill="white"/>
<path d="M555.444 77.1859C580.317 63.9507 601.43 46.831 588.078 39.031C574.719 31.2233 538.944 61.3688 524.182 94.2978L516.482 104.3C527.663 80.4966 528.477 47.5521 516.374 42.4581C504.348 37.395 505.798 59.3684 510.473 79.2251C514.032 94.3366 512.893 105.044 511.776 110.417L475.412 157.644C493.005 119.892 494.238 67.8972 475.094 59.8336C456.013 51.801 458.316 86.6684 465.728 118.171C471.326 141.974 469.597 158.9 467.837 167.483L460.588 176.896C462.022 178.408 463.464 179.912 464.922 181.408L508.186 125.226C513.807 123.218 522.026 121.233 532.935 120.939C553.319 120.381 574.944 116.17 566.973 105.835C560.057 96.872 535.579 102.478 516.04 115.023L531.005 95.5927C536.657 90.3746 544.721 82.9002 555.451 77.1937L555.444 77.1859Z" fill="#5C4EA0"/>
<path d="M234.527 173.12H226.626V592.94H234.527V173.12Z" fill="#353390"/>
<path d="M523.74 173.12H515.839V592.94H523.74V173.12Z" fill="#353390"/>
<path d="M527.26 588.396H223.176C217.811 588.396 213.461 592.746 213.461 598.111V622.271C213.461 627.637 217.811 631.986 223.176 631.986H527.26C532.625 631.986 536.975 627.637 536.975 622.271V598.111C536.975 592.746 532.625 588.396 527.26 588.396Z" fill="#2C2B7E"/>
<path d="M536.936 610.191H213.422C213.422 604.175 215.857 598.732 219.811 594.785C223.75 590.839 229.201 588.396 235.217 588.396H515.141C527.183 588.396 536.936 598.158 536.936 610.191Z" fill="#353390"/>
<path d="M506.705 588.396H243.661C243.661 588.396 238.427 463.449 305.565 411.307L305.58 411.291C306.115 410.702 321.327 393.83 321.327 385.426C321.327 377.021 301.114 356.691 299.85 355.427L299.788 355.365C238.73 300.765 243.661 183.098 243.661 183.098H506.705C506.705 183.098 511.699 302.471 449.229 356.544C444.755 361.157 428.853 378.067 428.853 385.426C428.853 393.156 441.716 408.042 444.205 410.849C511.962 462.712 506.705 588.396 506.705 588.396Z" fill="white"/>
<path d="M369.283 391.59C369.283 391.59 372.361 367.972 333.004 346.759C312.07 335.47 274.993 293.88 270.372 241.009C270.372 241.009 325.817 230.395 378.176 263.254C439.196 301.541 469.295 252.221 481.871 224.238C481.871 224.238 488.392 290.973 445.593 327.251C420.681 348.364 381.797 362.157 381.115 391.59C381.115 391.59 387.791 482.453 410.888 516.506C431.008 546.178 454.354 549.195 472.831 564.593C481.592 571.889 486.089 580.922 488.384 588.404H262.006C264.309 580.922 268.798 571.897 277.559 564.593C296.044 549.195 319.374 546.178 339.502 516.506C362.6 482.453 369.275 391.59 369.275 391.59H369.283Z" fill="#48CFAD"/>
<path d="M476.25 235.628C461.208 263.269 431.497 296.71 378.176 263.254C325.817 230.402 270.372 241.009 270.372 241.009C270.372 241.009 281.668 231.682 307.332 232.193C350.884 233.07 372.702 249.453 391.52 260.168C411.795 271.721 454.044 270.992 476.242 235.628H476.25Z" fill="#308A73"/>
<path d="M536.936 161.303C536.936 167.328 534.502 172.771 530.548 176.717C526.601 180.664 521.15 183.106 515.134 183.106H235.217C223.184 183.106 213.422 173.345 213.422 161.311C213.422 155.294 215.857 149.852 219.811 145.905C223.75 141.958 229.201 139.516 235.217 139.516H515.141C527.183 139.516 536.936 149.278 536.936 161.311V161.303Z" fill="#2C2B7E"/>
<path d="M536.936 161.303H213.422C213.422 155.287 215.857 149.844 219.811 145.897C223.75 141.951 229.201 139.508 235.217 139.508H515.141C527.183 139.508 536.936 149.27 536.936 161.303V161.303Z" fill="#353390"/>
<path d="M76.2401 642.903H36.8835C31.5336 642.903 26.7884 638.809 25.1369 632.762L8.45144 571.734C7.76913 569.237 9.23454 566.64 11.4365 566.438C41.8224 563.639 71.9059 563.639 101.695 566.438C103.897 566.648 105.354 569.237 104.672 571.734L87.9789 632.769C86.3274 638.817 81.5823 642.911 76.2324 642.911L76.2401 642.903Z" fill="#48CFAD"/>
<path d="M101.183 570.873C101.183 572.494 81.3261 573.812 56.8328 573.812C32.3396 573.812 12.4829 572.494 12.4829 570.873C12.4829 569.253 32.3396 567.935 56.8328 567.935C81.3261 567.935 101.183 569.253 101.183 570.873Z" fill="#1B1750"/>
<path d="M107.06 488.392C91.1034 484.189 66.7187 517.312 59.3064 549.613V502.557C63.0281 495.959 70.1303 486.027 83.0165 475.529C103.059 459.208 121.505 438.258 105.517 434.048C90.5374 430.101 68.1221 459.06 59.3142 489.338V428.907C61.8961 424.899 66.1295 419.642 72.8905 414.129C85.5209 403.84 97.1434 390.644 87.0716 387.984C78.3257 385.681 65.5712 401.157 59.3142 418.618V399.033C60.3454 392.977 61.8108 384.325 65.8193 375.478C75.108 354.978 80.1245 333.857 67.8818 335.431C55.6235 337.005 47.6762 373.508 54.3752 401.537V411.617C49.8472 391.109 34.3092 369.864 24.1676 372.539C14.0881 375.191 25.7183 388.395 38.3487 398.684C47.9631 406.515 52.4601 413.842 54.3752 417.789V465.395C47.1102 432.939 22.5549 399.436 6.51295 403.662C-9.47473 407.872 8.9708 428.822 29.0135 445.143C44.1561 457.479 51.3048 469.031 54.3829 475.319V532.401C46.6217 500.534 22.6867 468.38 6.9549 472.52C-9.03278 476.731 4.67537 492.036 27.1992 510.551C42.5046 523.135 50.7 536.409 54.3829 543.628V570.517C56.1662 571.013 57.841 571.013 59.3219 570.517V559.817C62.4543 553.482 69.6108 542.054 84.575 529.873C104.618 513.552 123.063 492.602 107.076 488.392H107.06Z" fill="#5C4EA0"/>
<path d="M605.027 108.153C605.027 103.075 609.16 98.9422 614.238 98.9422C619.317 98.9422 623.45 103.075 623.45 108.153C623.45 113.232 619.317 117.364 614.238 117.364C609.16 117.364 605.027 113.232 605.027 108.153ZM607.919 108.153C607.919 111.642 610.757 114.48 614.246 114.48C617.735 114.48 620.573 111.642 620.573 108.153C620.573 104.664 617.735 101.826 614.246 101.826C610.757 101.826 607.919 104.664 607.919 108.153Z" fill="#5C4EA0"/>
<path d="M571.858 140.478C571.858 135.399 575.991 131.266 581.069 131.266C586.148 131.266 590.28 135.399 590.28 140.478C590.28 145.556 586.148 149.689 581.069 149.689C575.991 149.689 571.858 145.556 571.858 140.478ZM574.75 140.478C574.75 143.967 577.588 146.804 581.077 146.804C584.566 146.804 587.404 143.967 587.404 140.478C587.404 136.988 584.566 134.151 581.077 134.151C577.588 134.151 574.75 136.988 574.75 140.478Z" fill="#308A73"/>
<path d="M569.687 179.633C570.486 179.633 571.129 178.989 571.129 178.191V171.817C571.129 171.019 570.486 170.375 569.687 170.375C568.889 170.375 568.245 171.019 568.245 171.817V178.191C568.245 178.989 568.889 179.633 569.687 179.633Z" fill="#5C4EA0"/>
<path d="M569.687 190.79C570.486 190.79 571.129 190.146 571.129 189.348V182.974C571.129 182.176 570.486 181.532 569.687 181.532C568.889 181.532 568.245 182.176 568.245 182.974V189.348C568.245 190.146 568.889 190.79 569.687 190.79Z" fill="#5C4EA0"/>
<path d="M560.74 182.021H566.462C567.26 182.021 567.904 181.377 567.904 180.579C567.904 179.78 567.26 179.136 566.462 179.136H560.74C559.941 179.136 559.297 179.78 559.297 180.579C559.297 181.377 559.941 182.021 560.74 182.021Z" fill="#5C4EA0"/>
<path d="M572.912 182.021H578.634C579.433 182.021 580.077 181.377 580.077 180.579C580.077 179.78 579.425 179.136 578.634 179.136H572.912C572.114 179.136 571.47 179.78 571.47 180.579C571.47 181.377 572.114 182.021 572.912 182.021Z" fill="#5C4EA0"/>
<path d="M620.566 143.92C621.364 143.92 622.008 143.277 622.008 142.478V136.105C622.008 135.306 621.364 134.662 620.566 134.662C619.767 134.662 619.124 135.306 619.124 136.105V142.478C619.124 143.277 619.767 143.92 620.566 143.92Z" fill="#308A73"/>
<path d="M620.566 155.07C621.364 155.07 622.008 154.426 622.008 153.627V147.254C622.008 146.455 621.364 145.812 620.566 145.812C619.767 145.812 619.124 146.455 619.124 147.254V153.627C619.124 154.426 619.767 155.07 620.566 155.07Z" fill="#308A73"/>
<path d="M611.618 146.308H617.34C618.139 146.308 618.782 145.665 618.782 144.866C618.782 144.067 618.139 143.424 617.34 143.424H611.618C610.819 143.424 610.176 144.067 610.176 144.866C610.176 145.665 610.819 146.308 611.618 146.308Z" fill="#308A73"/>
<path d="M623.791 146.308H629.513C630.311 146.308 630.955 145.665 630.955 144.866C630.955 144.067 630.311 143.424 629.513 143.424H623.791C622.992 143.424 622.349 144.067 622.349 144.866C622.349 145.665 622.992 146.308 623.791 146.308Z" fill="#308A73"/>
<path d="M107.378 68.7734C107.378 63.6948 111.511 59.5622 116.589 59.5622C121.668 59.5622 125.8 63.6948 125.8 68.7734C125.8 73.8519 121.668 77.9845 116.589 77.9845C111.511 77.9845 107.378 73.8519 107.378 68.7734ZM122.916 68.7734C122.916 65.2843 120.078 62.4465 116.589 62.4465C113.1 62.4465 110.262 65.2843 110.262 68.7734C110.262 72.2624 113.1 75.1002 116.589 75.1002C120.078 75.1002 122.916 72.2624 122.916 68.7734Z" fill="#5C4EA0"/>
<path d="M85.4277 106.595C85.4277 101.516 89.5603 97.3837 94.6389 97.3837C99.7174 97.3837 103.85 101.516 103.85 106.595C103.85 111.673 99.7174 115.806 94.6389 115.806C89.5603 115.806 85.4277 111.673 85.4277 106.595ZM100.966 106.595C100.966 103.106 98.1279 100.268 94.6389 100.268C91.1498 100.268 88.312 103.106 88.312 106.595C88.312 110.084 91.1498 112.922 94.6389 112.922C98.1279 112.922 100.966 110.084 100.966 106.595Z" fill="#308A73"/>
<path d="M56.0654 122.334C56.0654 121.536 56.709 120.892 57.5076 120.892H63.8809C64.6795 120.892 65.3231 121.536 65.3231 122.334C65.3231 123.133 64.6795 123.777 63.8809 123.777H57.5076C56.709 123.777 56.0654 123.133 56.0654 122.334Z" fill="#5C4EA0"/>
<path d="M44.9082 122.334C44.9082 121.536 45.5517 120.892 46.3504 120.892H52.7237C53.5223 120.892 54.1659 121.536 54.1659 122.334C54.1659 123.133 53.5223 123.777 52.7237 123.777H46.3504C45.5517 123.777 44.9082 123.133 44.9082 122.334Z" fill="#5C4EA0"/>
<path d="M53.6694 131.282V125.56C53.6694 124.761 54.313 124.118 55.1116 124.118C55.9102 124.118 56.5537 124.761 56.5537 125.56V131.282C56.5537 132.081 55.9102 132.724 55.1116 132.724C54.313 132.724 53.6694 132.081 53.6694 131.282Z" fill="#5C4EA0"/>
<path d="M53.6694 119.117V113.395C53.6694 112.596 54.313 111.953 55.1116 111.953C55.9102 111.953 56.5537 112.596 56.5537 113.395V119.117C56.5537 119.915 55.9102 120.559 55.1116 120.559C54.313 120.559 53.6694 119.915 53.6694 119.117Z" fill="#5C4EA0"/>
<path d="M142.641 97.3837C142.641 96.5851 143.284 95.9416 144.083 95.9416H150.456C151.255 95.9416 151.898 96.5851 151.898 97.3837C151.898 98.1823 151.255 98.8259 150.456 98.8259H144.083C143.284 98.8259 142.641 98.1823 142.641 97.3837Z" fill="#308A73"/>
<path d="M131.491 97.3837C131.491 96.5851 132.135 95.9416 132.933 95.9416H139.307C140.105 95.9416 140.749 96.5851 140.749 97.3837C140.749 98.1823 140.105 98.8259 139.307 98.8259H132.933C132.135 98.8259 131.491 98.1823 131.491 97.3837Z" fill="#308A73"/>
<path d="M140.252 106.331V100.609C140.252 99.8106 140.896 99.167 141.695 99.167C142.493 99.167 143.137 99.8106 143.137 100.609V106.331C143.137 107.13 142.493 107.773 141.695 107.773C140.896 107.773 140.252 107.13 140.252 106.331Z" fill="#308A73"/>
<path d="M140.252 94.1583V88.4362C140.252 87.6376 140.896 86.994 141.695 86.994C142.493 86.994 143.137 87.6376 143.137 88.4362V94.1583C143.137 94.9569 142.493 95.6004 141.695 95.6004C140.896 95.6004 140.252 94.9569 140.252 94.1583Z" fill="#308A73"/>
<path d="M582.969 608.997V621.628L594.521 621.449L595.281 608.059L582.969 608.997Z" fill="#F8A794"/>
<path d="M584.985 620.457C584.985 620.457 582.085 616.65 579.821 616.844C577.557 617.038 560.212 631.149 554.234 632.366C548.257 633.583 549.466 637.987 550.59 640.228C551.715 642.469 598.073 639.631 598.073 639.631C598.073 639.631 599.523 624.907 597.949 620.666C596.375 616.433 589.683 621.41 584.985 620.457Z" fill="#5C4EA0"/>
<path d="M575.424 630.273C575.634 630.335 575.874 630.312 576.083 630.187C576.487 629.955 576.618 629.443 576.386 629.04C576.308 628.908 574.44 625.745 571.959 624.535C568.663 622.915 566.128 624.799 566.019 624.884C565.647 625.163 565.577 625.69 565.857 626.063C566.136 626.435 566.663 626.505 567.035 626.225C567.105 626.171 568.873 624.907 571.222 626.055C573.238 627.047 574.92 629.87 574.936 629.901C575.052 630.094 575.231 630.226 575.432 630.281L575.424 630.273Z" fill="white"/>
<path d="M577.898 627.885C578.107 627.947 578.348 627.923 578.557 627.799C578.96 627.567 579.092 627.047 578.859 626.652C578.782 626.52 576.913 623.357 574.432 622.147C571.129 620.527 568.602 622.411 568.493 622.496C568.121 622.775 568.051 623.302 568.33 623.675C568.609 624.047 569.137 624.117 569.509 623.837C569.579 623.783 571.346 622.519 573.696 623.667C575.727 624.659 577.394 627.482 577.41 627.513C577.526 627.706 577.704 627.838 577.906 627.892L577.898 627.885Z" fill="white"/>
<path d="M572.052 632.234C572.261 632.296 572.502 632.273 572.711 632.149C573.114 631.916 573.246 631.397 573.013 631.002C572.936 630.87 571.067 627.706 568.586 626.497C565.283 624.876 562.755 626.76 562.647 626.838C562.275 627.117 562.205 627.644 562.484 628.016C562.763 628.389 563.29 628.458 563.663 628.179C563.732 628.125 565.5 626.861 567.849 628.009C569.881 629.001 571.548 631.823 571.563 631.854C571.68 632.048 571.858 632.18 572.06 632.234H572.052Z" fill="white"/>
<path d="M610.393 397.389C610.098 402.289 609.765 407.81 609.4 413.741C609.331 414.827 609.269 415.928 609.199 417.044C609.16 417.703 609.121 418.362 609.075 419.029C606.741 456.998 603.438 508.481 601.732 524.957C598.274 558.437 598.096 609.183 598.096 609.183H579.674C577.937 573.145 574.921 472.133 573.409 419.479C573.362 417.82 573.316 416.199 573.269 414.633C573.075 407.794 572.905 401.948 572.781 397.389H610.393Z" fill="#48CFAD"/>
<path d="M610.393 397.389C610.098 402.289 609.765 407.81 609.4 413.741C609.269 413.757 609.129 413.772 608.997 413.78C598.189 414.897 586.187 415.346 573.269 414.633C573.075 407.794 572.905 401.948 572.781 397.389H610.393Z" fill="#308A73"/>
<path d="M602.539 397.389C600.833 431.791 598.15 482.367 596.103 503.426C593.994 525.182 591.955 585.194 591.195 609.191H593.599C594.359 585.163 596.398 525.329 598.491 503.658C600.538 482.538 603.236 431.815 604.942 397.397H602.539V397.389Z" fill="#308A73"/>
<path d="M577.642 602.539L578.472 610.967H600.561L601.228 602.539H577.642Z" fill="#308A73"/>
<path d="M622.798 608.222L623.271 620.852L634.808 620.232L635.064 606.826L622.798 608.222Z" fill="#F8A794"/>
<path d="M628.474 617.441C628.474 617.441 634.63 616.092 636.313 616.2C637.995 616.309 648.703 629.412 652.464 630.327C659.287 631.979 658.814 642.725 654.603 643.074C642.423 644.074 621.93 638.034 621.93 638.034C621.93 638.034 620.635 624.163 621.659 619.875C622.682 615.588 625.039 618.573 628.474 617.448V617.441Z" fill="#5C4EA0"/>
<path d="M637.972 629.66C637.755 629.699 637.523 629.653 637.329 629.505C636.957 629.226 636.879 628.707 637.15 628.334C637.243 628.21 639.438 625.264 642.027 624.326C645.478 623.07 647.796 625.21 647.897 625.303C648.238 625.621 648.246 626.156 647.928 626.489C647.61 626.822 647.075 626.838 646.741 626.52C646.679 626.466 645.059 625.008 642.601 625.9C640.484 626.667 638.523 629.304 638.5 629.327C638.368 629.505 638.174 629.622 637.972 629.653V629.66Z" fill="white"/>
<path d="M635.77 627.016C635.553 627.055 635.32 627.009 635.127 626.861C634.754 626.582 634.677 626.063 634.948 625.69C635.041 625.566 637.236 622.62 639.825 621.682C643.276 620.426 645.594 622.566 645.695 622.659C646.028 622.977 646.044 623.512 645.726 623.845C645.408 624.186 644.873 624.194 644.539 623.876C644.477 623.822 642.857 622.364 640.399 623.256C638.275 624.031 636.321 626.66 636.297 626.683C636.166 626.861 635.972 626.978 635.762 627.009L635.77 627.016Z" fill="white"/>
<path d="M641.12 631.963C640.903 632.002 640.671 631.955 640.477 631.808C640.105 631.529 640.027 631.009 640.298 630.629C640.391 630.505 642.586 627.567 645.175 626.621C648.626 625.365 650.944 627.505 651.045 627.598C651.378 627.916 651.394 628.451 651.076 628.784C650.758 629.117 650.223 629.133 649.889 628.815C649.827 628.761 648.207 627.303 645.749 628.195C643.625 628.97 641.671 631.599 641.647 631.622C641.516 631.8 641.322 631.917 641.112 631.948L641.12 631.963Z" fill="white"/>
<path d="M645.617 397.389C645.539 400.142 645.446 403.359 645.346 406.98C645.338 407.259 645.33 407.531 645.322 407.81C643.958 455.532 640.601 570.261 638.724 609.183H620.302C620.302 609.183 620.124 558.444 616.666 524.957C614.96 508.473 611.657 456.959 609.323 418.99C609.284 418.339 609.245 417.688 609.199 417.052C609.129 415.951 609.067 414.865 608.997 413.788C608.633 407.833 608.3 402.305 608.005 397.389H645.617V397.389Z" fill="#48CFAD"/>
<path d="M645.617 397.389C645.54 400.142 645.447 403.359 645.346 406.98C636.173 409.516 624.373 412.105 610.548 413.617C610.447 413.633 610.339 413.64 610.238 413.656C609.959 413.687 609.687 413.718 609.408 413.749C609.277 413.764 609.137 413.78 609.005 413.788C608.641 407.833 608.307 402.305 608.013 397.389H645.625H645.617Z" fill="#308A73"/>
<path d="M615.859 397.389H613.456C615.161 431.815 617.86 482.53 619.906 503.651C622 525.322 624.039 585.155 624.799 609.183H627.202C626.443 585.186 624.403 525.182 622.295 503.418C620.255 482.36 617.565 431.784 615.859 397.381V397.389Z" fill="#308A73"/>
<path d="M640.755 602.539L639.926 610.967H617.828L617.162 602.539H640.755Z" fill="#308A73"/>
<path d="M587.311 301.448C575.882 318.226 544.977 332.865 544.977 332.865C533.618 330.453 526.415 327.042 519.266 323.103C521.383 318.032 522.298 312.876 523.476 306.185C534.029 309.124 543.147 310.69 543.147 310.69C565.423 300.362 591.583 248.29 591.583 248.29C598.794 263.13 587.311 301.448 587.311 301.448Z" fill="#5A3B97"/>
<path d="M660.162 289.941C650.897 298.168 634.436 290.864 625.768 290.577C610.261 290.065 615.169 290.29 601.6 292.64C588.032 294.997 593.095 249.569 592.172 232.791C591.59 222.269 587.419 209.026 587.419 203.699V203.63C587.349 202.746 587.31 201.862 587.303 200.994C587.202 188.224 595.072 164.893 622.767 168.599C622.767 168.599 645.748 171.22 648.361 193.682C648.361 193.682 649.447 204.041 650.176 211.546C652.23 232.791 660.061 221.719 657.549 247.607C656.72 256.175 670.986 280.327 660.154 289.941H660.162Z" fill="#12122D"/>
<path d="M572.974 401.196C595.576 417.858 647.865 402.072 647.865 402.072C653.75 394.877 645.578 378.44 643.182 359.188C641.158 342.983 643.492 321.002 646.477 304.743C647.036 301.703 647.617 298.858 648.199 296.284C651.874 280.009 652.238 252.818 652.238 252.818C649.4 251.36 644.826 249.406 640.189 247.522C637.305 246.351 634.397 245.204 631.854 244.219C627.35 242.467 623.992 241.226 623.992 241.226L605.345 244.087L601.67 245.212L595.607 247.065L591.575 248.297C591.575 248.297 588.714 266.704 585.985 277.885C585.233 280.947 584.496 283.467 583.829 284.925C580.72 291.678 581.488 294.95 584.76 303.89C585.535 306.007 586.039 308.255 586.31 310.705C586.38 311.31 586.434 311.938 586.473 312.566C586.954 320.118 585.465 329.492 583.015 342.177C580.154 356.978 573.16 385.542 570.757 395.241C570.199 397.498 571.106 399.816 572.974 401.196V401.196Z" fill="#5C4EA0"/>
<path d="M586.303 310.698C586.372 311.302 586.427 311.93 586.466 312.558C595.746 320.413 611.742 331.128 629.986 331.128C630.342 331.128 630.637 330.833 630.637 330.477C630.637 330.12 630.342 329.825 629.986 329.825C611.447 329.825 595.235 318.482 586.295 310.698H586.303Z" fill="#453C98"/>
<path d="M605.074 280.8C614.347 280.8 622.899 270.945 623.264 270.511C623.496 270.24 623.465 269.821 623.194 269.589C622.922 269.356 622.504 269.387 622.271 269.658C622.178 269.759 613.223 280.079 604.275 279.459C603.919 279.435 603.601 279.707 603.578 280.064C603.554 280.42 603.826 280.738 604.182 280.761C604.477 280.785 604.779 280.792 605.074 280.792V280.8Z" fill="#453C98"/>
<path d="M626.745 374.578C627.07 374.578 627.357 374.33 627.396 373.997C627.435 373.64 627.179 373.315 626.822 373.276C602.879 370.523 592.955 329.073 592.862 328.655C592.777 328.306 592.428 328.081 592.079 328.166C591.73 328.251 591.505 328.6 591.59 328.949C591.994 330.694 601.825 371.717 626.675 374.578C626.698 374.578 626.729 374.578 626.752 374.578H626.745Z" fill="#453C98"/>
<path d="M617.208 362.033C617.425 362.033 617.642 361.925 617.766 361.723C617.952 361.413 617.859 361.01 617.557 360.824C604.818 352.969 602.926 341.401 602.911 341.285C602.856 340.928 602.523 340.68 602.166 340.735C601.81 340.789 601.562 341.122 601.616 341.479C601.693 341.975 603.593 353.753 616.867 361.94C616.975 362.01 617.092 362.041 617.208 362.041V362.033Z" fill="#453C98"/>
<path d="M596.832 205.173C596.832 205.173 592.878 200.164 589.931 204.304C586.993 208.452 591.149 220.687 598.352 217.702L596.832 205.173V205.173Z" fill="#F5896D"/>
<path d="M595.126 216.857C595.126 217.586 594.537 218.175 593.808 218.175C593.08 218.175 592.49 217.586 592.49 216.857C592.49 216.128 593.08 215.539 593.808 215.539C594.537 215.539 595.126 216.128 595.126 216.857Z" fill="white"/>
<path d="M596.778 213.919C596.514 213.919 596.266 213.748 596.188 213.492C595.072 209.716 590.955 208.181 590.908 208.165C590.598 208.049 590.435 207.716 590.559 207.421C590.676 207.126 591.032 206.971 591.342 207.088C591.536 207.157 596.08 208.832 597.359 213.182C597.452 213.492 597.258 213.81 596.94 213.895C596.886 213.911 596.832 213.919 596.778 213.919Z" fill="#D65C48"/>
<path d="M592.622 212.019C592.506 212.019 592.397 211.988 592.296 211.926C592.017 211.755 591.932 211.399 592.118 211.127C592.149 211.081 592.878 210.026 594.405 209.375C594.708 209.243 595.072 209.375 595.212 209.67C595.351 209.964 595.212 210.305 594.902 210.437C593.723 210.941 593.149 211.748 593.142 211.755C593.025 211.926 592.831 212.019 592.63 212.019H592.622Z" fill="#D65C48"/>
<path d="M627.327 230.782V244.281C627.327 244.281 620.349 251.182 614.898 251.647C609.455 252.12 607.579 245.7 607.579 245.7V231.721L627.327 230.775V230.782Z" fill="#F8A794"/>
<path d="M627.326 232.256V238.249C623.674 242.304 617.185 243.738 607.586 242.32V233.201L627.326 232.256Z" fill="#F5896D"/>
<path d="M594.452 210.887C594.622 212.337 594.832 213.81 595.087 215.283C596.809 225.045 602.988 235.597 610.788 237.365C627.629 241.188 634.622 227.96 637.321 218.198C637.615 217.113 637.057 215.872 637.297 214.593C637.856 211.554 639.081 208.096 639.36 204.692C639.554 202.327 639.685 200.001 639.786 197.9C640.058 191.968 636.623 186.51 631.25 184.378C623.504 181.3 611.75 178.857 600.616 185.393C596.499 187.805 593.924 192.271 593.831 197.163C593.762 200.9 593.855 205.777 594.452 210.895V210.887Z" fill="#F8A794"/>
<path d="M615.006 218.439C615.316 218.439 615.596 218.214 615.65 217.896C615.712 217.539 615.471 217.206 615.115 217.144L612.866 216.764L615.96 208.522C616.084 208.181 615.913 207.809 615.58 207.677C615.239 207.553 614.867 207.723 614.735 208.057L611.083 217.788L614.898 218.431C614.898 218.431 614.967 218.439 615.006 218.439V218.439Z" fill="#F5896D"/>
<path d="M641.562 196.109C641.454 198.257 641.314 200.629 641.112 203.033C640.019 203.684 637.352 203.979 637.236 205.731C636.941 210.375 636.716 213.554 635.739 213.283C634.103 212.81 633.088 207.189 634.956 203.552C634.956 203.552 633.452 201.102 627.319 198.737C619.449 195.706 611.874 191.216 611.874 191.216C611.874 191.216 608.889 189.418 607.741 187.456C607.741 187.456 605.943 192.147 600.926 194.434C596.716 196.357 596.049 200.249 595.537 203.831C595.483 204.242 595.421 204.653 595.359 205.056C595.126 206.615 594.84 208.057 594.204 209.173C594.064 209.429 593.909 209.476 593.754 209.344C593.553 207.708 593.413 206.088 593.304 204.529C593.273 204.11 593.25 203.692 593.227 203.281C593.072 200.35 593.049 197.636 593.095 195.349C593.196 190.363 595.917 185.812 600.252 183.354C611.99 176.694 624.38 179.175 632.545 182.315C638.205 184.486 641.826 190.046 641.547 196.093L641.562 196.109Z" fill="#12122D"/>
<path d="M606.756 207.53C606.756 208.972 606.012 210.143 605.097 210.143C604.182 210.143 603.438 208.972 603.438 207.53C603.438 206.088 604.182 204.917 605.097 204.917C606.012 204.917 606.756 206.088 606.756 207.53Z" fill="#12122D"/>
<path d="M625.272 207.53C625.272 208.972 624.527 210.143 623.612 210.143C622.697 210.143 621.953 208.972 621.953 207.53C621.953 206.088 622.697 204.917 623.612 204.917C624.527 204.917 625.272 206.088 625.272 207.53Z" fill="#12122D"/>
<path d="M601.213 200.691C602.547 200.427 605.245 200.001 608.114 200.102C608.866 200.125 609.478 200.699 609.37 201.304V201.319C609.284 201.8 608.773 202.125 608.168 202.079C606.206 201.932 601.089 201.963 598.701 202.676C598.631 202.327 598.864 201.963 599.205 201.645C599.717 201.156 600.43 200.854 601.213 200.699V200.691Z" fill="#12122D"/>
<path d="M627.885 201.001C626.551 200.722 623.861 200.257 620.992 200.319C620.232 200.334 619.62 200.9 619.72 201.497V201.513C619.798 201.994 620.31 202.327 620.914 202.288C622.876 202.164 627.993 202.273 630.366 203.009C630.436 202.668 630.211 202.296 629.877 201.97C629.373 201.474 628.66 201.164 627.885 201.001Z" fill="#12122D"/>
<path d="M607.749 222.331C608.237 224.626 609.842 228.844 615.278 228.844C620.713 228.844 622.248 224.99 622.768 222.331H607.749Z" fill="white"/>
<path d="M615.2 232.791C613.634 232.791 612.254 231.945 612.192 231.914C611.889 231.728 611.796 231.333 611.983 231.03C612.169 230.728 612.564 230.635 612.866 230.821C612.866 230.821 614.006 231.511 615.2 231.511C616.495 231.511 617.65 230.829 617.666 230.821C617.968 230.643 618.364 230.736 618.542 231.038C618.728 231.341 618.627 231.736 618.325 231.914C618.263 231.953 616.859 232.791 615.2 232.791Z" fill="#F5896D"/>
<path d="M637.398 205.134C637.398 205.134 641.996 199.551 644.71 203.575C647.424 207.599 643.586 219.486 636.941 216.586L637.398 205.134V205.134Z" fill="#F8A794"/>
<path d="M641.12 216.857C641.12 217.586 640.531 218.175 639.802 218.175C639.073 218.175 638.484 217.586 638.484 216.857C638.484 216.128 639.073 215.539 639.802 215.539C640.531 215.539 641.12 216.128 641.12 216.857Z" fill="white"/>
<path d="M638.391 212.911C638.639 212.911 638.864 212.748 638.934 212.5C639.965 208.832 643.764 207.344 643.803 207.328C644.09 207.22 644.237 206.894 644.128 206.607C644.02 206.32 643.694 206.173 643.407 206.281C643.229 206.351 639.042 207.972 637.856 212.197C637.771 212.5 637.949 212.81 638.244 212.887C638.298 212.903 638.344 212.911 638.399 212.911H638.391Z" fill="#F5896D"/>
<path d="M642.229 211.065C642.329 211.065 642.438 211.034 642.531 210.972C642.795 210.802 642.864 210.461 642.702 210.197C642.671 210.15 642.004 209.127 640.593 208.499C640.313 208.375 639.98 208.499 639.848 208.786C639.724 209.073 639.848 209.398 640.135 209.53C641.221 210.019 641.756 210.802 641.756 210.809C641.864 210.98 642.042 211.065 642.229 211.065V211.065Z" fill="#F5896D"/>
<path d="M569.31 374.573C606.392 371.973 634.346 339.805 631.746 302.723C629.147 265.641 596.978 237.687 559.896 240.286C522.814 242.886 494.86 275.054 497.46 312.136C500.059 349.219 532.228 377.172 569.31 374.573Z" fill="#48CFAD"/>
<path d="M618.418 292.857C620.341 300.137 620.775 307.565 619.72 314.946C618.705 322.08 616.332 328.872 612.696 335.129C609.052 341.386 604.314 346.798 598.615 351.202C592.715 355.761 586.039 359.048 578.759 360.971C575.952 361.708 573.122 362.235 570.284 362.53C565.756 363.01 561.205 362.925 556.661 362.274C555.816 362.157 554.979 362.01 554.141 361.855C547.931 360.676 542 358.459 536.479 355.249C535.587 354.729 534.711 354.187 533.851 353.621C528.695 350.232 524.182 346.053 520.406 341.169C518.142 338.238 516.188 335.121 514.568 331.826C512.916 328.484 511.606 324.972 510.637 321.312C508.714 314.039 508.28 306.604 509.334 299.222C510.358 292.089 512.715 285.297 516.359 279.04C520.003 272.783 524.74 267.371 530.439 262.967C536.34 258.408 543.015 255.121 550.296 253.198C553.963 252.228 557.662 251.639 561.383 251.422C565.051 251.213 568.726 251.368 572.393 251.887C578.511 252.763 584.372 254.624 589.862 257.431C590.777 257.896 591.684 258.392 592.576 258.912C598.088 262.122 602.95 266.185 607.036 271.007C607.586 271.651 608.121 272.318 608.648 272.992C611.455 276.613 613.774 280.536 615.596 284.716C616.735 287.328 617.681 290.05 618.418 292.849V292.857Z" fill="white"/>
<path d="M555.607 273.256C555.103 273.388 554.591 273.093 554.459 272.589L552.273 264.293C552.141 263.789 552.435 263.277 552.939 263.145C553.443 263.014 553.955 263.308 554.087 263.812L556.273 272.108C556.405 272.612 556.111 273.124 555.607 273.256Z" fill="#0D385A"/>
<path d="M576.13 351.016C575.626 351.147 575.114 350.853 574.983 350.349L572.796 342.053C572.664 341.549 572.967 341.037 573.463 340.905C573.967 340.773 574.479 341.068 574.61 341.572L576.797 349.868C576.929 350.372 576.634 350.884 576.13 351.016Z" fill="#0D385A"/>
<path d="M530.702 316.009C530.834 316.513 530.54 317.024 530.036 317.156L521.739 319.343C521.235 319.474 520.724 319.18 520.592 318.676C520.46 318.172 520.755 317.66 521.259 317.528L529.555 315.342C530.059 315.21 530.571 315.505 530.702 316.009Z" fill="#0D385A"/>
<path d="M608.47 295.485C608.602 295.989 608.307 296.501 607.803 296.633L599.507 298.819C599.003 298.951 598.491 298.656 598.36 298.152C598.228 297.648 598.522 297.137 599.026 297.005L607.323 294.818C607.827 294.687 608.338 294.981 608.47 295.485Z" fill="#0D385A"/>
<path d="M586.586 267.329L581.321 276.367L582.943 277.312L588.207 268.274L586.586 267.329Z" fill="#0D385A"/>
<path d="M541.666 346.348C541.216 346.084 541.069 345.511 541.325 345.061L545.644 337.649C545.907 337.199 546.481 337.052 546.923 337.307C547.373 337.571 547.52 338.145 547.264 338.595L542.945 346.007C542.682 346.457 542.108 346.604 541.666 346.348Z" fill="#0D385A"/>
<path d="M534.3 289.476C534.036 289.926 533.463 290.073 533.021 289.817L525.608 285.499C525.159 285.235 525.011 284.661 525.267 284.212C525.531 283.762 526.105 283.615 526.547 283.87L533.959 288.189C534.409 288.453 534.556 289.026 534.3 289.468V289.476Z" fill="#0D385A"/>
<path d="M603.802 329.949C603.538 330.399 602.965 330.546 602.523 330.291L595.11 325.972C594.661 325.708 594.513 325.134 594.769 324.693C595.033 324.243 595.607 324.095 596.049 324.351L603.461 328.67C603.911 328.934 604.058 329.507 603.802 329.949Z" fill="#0D385A"/>
<path d="M581.813 309.697L563.693 307.565L563.879 305.968L581.999 308.1C582.441 308.154 582.759 308.55 582.705 308.992C582.651 309.434 582.255 309.752 581.813 309.697Z" fill="#308A73"/>
<path d="M565.516 307.65L538.022 314.908C537.596 315.024 537.154 314.768 537.037 314.334C536.921 313.907 537.177 313.465 537.611 313.349L563.546 306.503L557.956 285.336C557.84 284.909 558.096 284.467 558.53 284.351C558.956 284.235 559.398 284.491 559.515 284.925L565.516 307.65V307.65Z" fill="#0D385A"/>
<path opacity="0.5" d="M589.862 257.439L533.859 353.621C528.703 350.232 524.19 346.053 520.414 341.169C518.15 338.238 516.196 335.121 514.576 331.826L561.391 251.43C565.059 251.221 568.734 251.376 572.401 251.895C578.519 252.771 584.38 254.632 589.87 257.439H589.862Z" fill="white"/>
<path opacity="0.5" d="M615.596 284.716L570.292 362.522C565.764 363.002 561.213 362.917 556.669 362.266C555.824 362.15 554.987 362.002 554.149 361.847L607.044 271.007C607.594 271.651 608.129 272.318 608.656 272.992C611.463 276.613 613.781 280.536 615.603 284.716H615.596Z" fill="white"/>
<path d="M493.998 300.727C493.998 300.727 501.232 301.269 503.581 303.735C505.93 306.2 496.052 307.007 496.052 307.007C496.052 307.007 507.985 306.123 508.737 308.93C509.497 311.736 497.929 312.93 497.929 312.93C497.929 312.93 506.101 313.559 506.899 315.652C507.69 317.745 499.278 318.963 499.278 318.963C499.278 318.963 505.705 320.118 506.481 321.638C507.256 323.157 500.286 325.026 496.533 324.685C492.78 324.344 494.285 319.505 494.285 319.505C494.285 319.505 492.4 315.443 493.641 313.745C493.641 313.745 491.4 310.186 492.145 307.891C492.145 307.891 489.392 301.944 493.998 300.727V300.727Z" fill="#F8A794"/>
<path d="M575.463 358.723L572.92 360.01C570.648 361.157 568.253 360.692 566.206 359.18C565.306 358.513 563.864 357.18 563.151 356.831C561.166 355.846 556.584 354.83 555.328 355.358C554.072 355.893 555.436 358.032 556.793 358.591C558.15 359.149 560.143 359.723 561.569 360.754C563.004 361.785 557.77 367.988 555.405 370.019C553.04 372.051 547.551 372.997 548.225 375.47C548.9 377.943 552.629 376.478 552.629 376.478C552.629 376.478 552.606 379.029 556.405 379.207C556.405 379.207 556.878 381.456 559.321 381.541C559.321 381.541 560.367 384.154 562.926 383.697C565.477 383.231 573.417 381.743 582.837 366.631L575.448 358.738L575.463 358.723Z" fill="#F8A794"/>
<path d="M632.762 299.943C630.063 318.28 621.488 331.748 621.488 331.748C621.488 331.748 612.331 337.191 598.328 346.48C588.947 352.706 575.463 358.723 575.463 358.723C578.014 362.041 581.038 368.825 580.053 370.779C608.237 364.46 635.925 345.968 635.925 345.968C657.953 320.428 657.526 263.425 657.526 263.425C657.526 263.425 656.813 254.973 652.238 252.818C652.238 252.818 643.012 256.253 639.81 267.076C636.607 277.9 632.762 299.936 632.762 299.936V299.943Z" fill="#534A9B"/>
<path d="M617.185 206.305V207.421C617.185 209.67 618.061 211.786 619.658 213.368C621.232 214.934 623.31 215.787 625.52 215.787H625.791C627.707 215.748 629.451 214.973 630.978 213.492C632.514 211.996 633.39 209.863 633.39 207.623V206.305C633.39 205.94 633.32 205.591 633.196 205.266C633.049 204.87 632.824 204.521 632.529 204.227C631.994 203.692 631.265 203.366 630.451 203.366H620.124C618.953 203.366 617.945 204.048 617.472 205.041C617.294 205.405 617.193 205.801 617.185 206.227C617.185 206.25 617.185 206.281 617.185 206.305V206.305ZM618.402 206.305C618.402 205.351 619.178 204.583 620.124 204.583H630.451C631.405 204.583 632.173 205.351 632.173 206.305V207.623C632.173 209.53 631.428 211.352 630.126 212.616C628.831 213.872 627.365 214.531 625.768 214.562H625.52C623.636 214.562 621.86 213.833 620.519 212.492C619.154 211.135 618.41 209.336 618.41 207.413V206.297L618.402 206.305Z" fill="white"/>
<path d="M596.506 206.305V207.421C596.506 209.67 597.39 211.786 598.98 213.368C600.554 214.934 602.632 215.787 604.841 215.787H605.12C607.036 215.748 608.78 214.973 610.3 213.492C611.835 211.996 612.711 209.863 612.711 207.623V206.305C612.711 206.305 612.711 206.266 612.711 206.25C612.711 205.855 612.618 205.467 612.463 205.126C612.006 204.087 610.974 203.374 609.78 203.374H599.445C598.538 203.374 597.724 203.785 597.189 204.436C596.925 204.754 596.731 205.126 596.623 205.522C596.545 205.77 596.506 206.041 596.506 206.312V206.305ZM597.724 206.305C597.724 205.351 598.499 204.583 599.445 204.583H609.78C610.726 204.583 611.502 205.351 611.502 206.305V207.623C611.502 209.53 610.757 211.352 609.455 212.616C608.16 213.872 606.694 214.531 605.097 214.562H604.849C602.965 214.562 601.189 213.833 599.848 212.492C598.483 211.135 597.731 209.336 597.731 207.413V206.297L597.724 206.305Z" fill="white"/>
<path d="M640.019 202.862C636.902 202.87 634.669 203.769 633.754 204.234C633.475 204.366 632.739 204.847 632.708 204.87L633.289 205.909C633.289 205.909 634.103 205.421 634.421 205.273C635.127 204.948 636.445 204.382 638.337 204.165L640.019 202.862V202.862Z" fill="white"/>
<path d="M618.007 206.351L618.41 205.204C618.34 205.18 616.627 204.591 614.75 204.591C612.75 204.591 611.463 205.204 611.409 205.235L611.944 206.328C611.944 206.328 613.052 205.808 614.75 205.808C616.448 205.808 617.999 206.351 618.015 206.351H618.007Z" fill="white"/>
<path d="M597.662 204.653L597.127 205.746C597.127 205.746 596.413 205.397 595.374 205.064C594.785 204.87 594.08 204.676 593.32 204.537C593.289 204.118 593.265 203.699 593.242 203.289C594.08 203.42 594.87 203.622 595.545 203.831C596.754 204.211 597.584 204.607 597.654 204.645L597.662 204.653Z" fill="white"/>
<path d="M350.705 174.965C350.674 173.973 353.605 171.995 356.482 170.297C356.427 170.197 356.373 170.088 356.319 169.98C352.186 171.856 344.983 174.818 345.154 172.639C345.262 171.212 351.341 168.483 355.047 166.94C354.977 166.739 354.908 166.537 354.838 166.335C350.395 168.103 341.665 171.274 341.983 168.809C342.2 167.165 349.837 164.312 353.799 162.939C353.745 162.753 353.698 162.575 353.652 162.404C349.821 163.754 342.394 166.056 342.711 163.606C342.998 161.389 354.636 158.45 354.636 158.45L358.846 156.814C358.846 156.814 358.482 155.294 355.117 155.015C351.752 154.736 349.79 152.852 353.838 152.154C358.412 151.363 362.653 152.085 365.817 151.425C368.988 150.774 372.337 153.643 372.337 153.643L377.176 160.823C377.176 160.823 366.46 170.91 358.947 172.492C355.295 174.523 350.752 176.702 350.697 174.965H350.705Z" fill="#F8A794"/>
<path d="M345.921 77.1549L323.25 139.508L341.68 139.524L355.388 112.844C355.388 112.844 353.969 81.4426 345.921 77.1549V77.1549Z" fill="#48CFAD"/>
<path d="M318.055 137.337C318.055 137.337 316.466 144.184 313.76 146.068C311.054 147.952 311.736 138.384 311.736 138.384C311.736 138.384 310.829 149.937 308.022 150.247C305.223 150.557 305.782 139.307 305.782 139.307C305.782 139.307 303.975 147.045 301.851 147.494C299.726 147.944 299.804 139.71 299.804 139.71C299.804 139.71 297.749 145.696 296.175 146.215C294.601 146.735 293.841 139.788 294.725 136.244C295.609 132.701 300.013 134.849 300.013 134.849C300.013 134.849 304.177 133.647 305.626 135.081C305.626 135.081 309.364 133.461 311.457 134.507C311.457 134.507 317.559 132.747 318.048 137.337H318.055Z" fill="#F8A794"/>
<path d="M393.202 63.0125C381.548 67.1219 369.864 71.1304 358.141 75.0227C352.163 77.0076 345.681 74.0302 343.246 68.2229C343.231 68.1919 343.223 68.1609 343.207 68.1298C339.307 58.8489 331.306 48.2887 329.592 43.497L329.569 43.435C329.22 42.6674 328.902 41.8843 328.615 41.1012C324.421 29.6493 324.01 6.14076 350.1 0.581511C350.1 0.581511 371.608 -4.44274 381.176 14.9099C381.176 14.9099 385.487 23.873 388.542 30.3936C392.031 37.8215 394.683 40.2406 397.001 42.0471C404.483 47.8855 402.553 59.7018 393.605 62.8652C393.465 62.9118 393.326 62.966 393.186 63.0125H393.202Z" fill="#12122D"/>
<path d="M354.993 139.524C355.171 130.685 355.574 136.368 354.024 125.653C353.977 125.234 353.923 124.808 353.869 124.381C353.729 124.141 353.59 123.901 353.466 123.66C351.101 119.473 349.837 117.047 349.023 113.999C346.456 104.37 348.379 98.2521 349.077 92.1967C348.511 89.3977 346.549 79.9462 345.921 77.1627L358.273 72.402L360.847 71.4096L361.002 71.3475L363.63 70.3318L363.832 70.2543C369.787 67.9593 376.16 66.9668 382.518 67.3545C382.937 67.3778 383.347 67.4088 383.766 67.4475L388.488 67.8662L388.666 67.8817L391.698 68.1531L409.236 69.7116L410.531 139.524H354.993V139.524Z" fill="#48CFAD"/>
<path d="M391.69 68.1531C385.96 79.698 371.942 92.5921 364.754 88.6146C360.335 86.1722 358.528 78.1474 358.272 72.3943L360.847 71.4096L361.002 71.3475L363.63 70.3318L363.832 70.2543C369.786 67.9593 376.16 66.9668 382.518 67.3623C382.735 67.3933 382.952 67.4243 383.169 67.4475C383.37 67.4708 383.564 67.4941 383.758 67.5173L388.48 67.8662L388.658 67.8817L391.682 68.1531H391.69Z" fill="#F8A794"/>
<path d="M353.869 124.374C353.923 124.8 353.977 125.226 354.024 125.645C357.063 126.296 366.615 127.638 382.851 123.746C384.952 123.242 387.177 122.645 389.503 121.955C389.984 121.815 390.248 121.311 390.116 120.83C389.969 120.357 389.465 120.086 388.992 120.225C365.576 127.18 353.613 123.691 353.496 123.66C353.481 123.66 353.473 123.66 353.465 123.653C353.597 123.885 353.729 124.125 353.869 124.374V124.374Z" fill="#308A73"/>
<path d="M338.524 41.8068C338.524 41.8068 333.361 38.5736 332.043 43.2412C330.732 47.9165 338.4 57.5851 343.921 52.5841L338.524 41.8068V41.8068Z" fill="#F5896D"/>
<path d="M340.75 52.8555C340.983 53.5068 340.641 54.2278 339.99 54.4604C339.339 54.693 338.618 54.3519 338.385 53.7006C338.152 53.0493 338.494 52.3282 339.145 52.0956C339.796 51.863 340.517 52.2042 340.75 52.8555Z" fill="white"/>
<path d="M341.292 49.6921C341.052 49.7773 340.781 49.7076 340.633 49.4982C338.416 46.4589 334.221 46.4046 334.175 46.4046C333.857 46.4046 333.609 46.1565 333.616 45.8463C333.624 45.5362 333.896 45.2881 334.213 45.2958C334.407 45.2958 339.028 45.3424 341.587 48.8469C341.765 49.095 341.703 49.4439 341.44 49.6223C341.393 49.6533 341.347 49.6765 341.3 49.6921H341.292Z" fill="#D65C48"/>
<path d="M336.935 49.3121C336.834 49.3509 336.718 49.3587 336.61 49.3354C336.299 49.2734 336.113 48.9787 336.191 48.6763C336.206 48.6298 336.517 47.4435 337.68 46.3658C337.912 46.1487 338.277 46.1487 338.494 46.3658C338.711 46.5829 338.695 46.9318 338.463 47.1489C337.563 47.9785 337.307 48.8934 337.307 48.9012C337.261 49.095 337.114 49.2424 336.935 49.3044V49.3121Z" fill="#D65C48"/>
<path d="M374.175 55.042L378.997 68.5485C378.997 68.5485 374.454 75.6352 369.701 77.8062C364.964 79.9772 361.211 74.8133 361.211 74.8133L356.722 62.2449L374.175 55.0497V55.042Z" fill="#F8A794"/>
<path d="M374.648 56.36L376.571 61.7487C374.586 66.5714 369.213 69.9441 360.126 71.7507L357.195 63.5553L374.648 56.36V56.36Z" fill="#F5896D"/>
<path d="M338.222 47.7072C338.843 48.9555 339.502 50.2193 340.207 51.4521C344.898 59.6785 353.838 67.1839 361.421 66.269C377.796 64.2996 379.835 50.1573 379.122 40.5119C379.044 39.442 378.137 38.5038 377.943 37.271C377.47 34.3557 377.463 30.8588 376.617 27.7032C376.036 25.5167 375.408 23.3767 374.819 21.4539C373.159 16.0264 368.314 12.2272 362.801 12.0411C354.846 11.762 343.495 13.3437 335.578 22.7952C332.655 26.2843 331.771 31.1302 333.252 35.5575C334.392 38.938 336.044 43.2954 338.222 47.7072V47.7072Z" fill="#F8A794"/>
<path d="M359.133 47.901C359.412 47.8002 359.591 47.5056 359.536 47.2032C359.474 46.862 359.149 46.6372 358.815 46.6992L356.675 47.0791L356.807 38.6744C356.807 38.3332 356.536 38.0463 356.195 38.0386C355.853 38.0386 355.567 38.3099 355.559 38.6511L355.396 48.5756L359.032 47.9243C359.032 47.9243 359.102 47.9088 359.133 47.901Z" fill="#F5896D"/>
<path d="M338.773 30.8278C333.818 35.6427 338.207 42.0006 337.47 46.2495C337.423 46.5286 337.299 46.6139 337.121 46.5441C334.88 42.0549 333.198 37.6121 332.035 34.1696C330.523 29.6571 331.508 24.6871 334.617 21.0895C343.037 11.3356 354.977 9.5833 363.328 9.78489C369.12 9.9167 374.159 13.7547 375.85 19.2829C376.447 21.2445 377.075 23.4233 377.672 25.6563C376.896 26.5944 374.594 27.7187 375.059 29.3314C376.284 33.6036 377.106 36.5344 376.137 36.5964C374.516 36.6972 371.795 31.9676 372.306 28.0909C372.306 28.0909 370.166 26.3696 363.894 26.2145C355.846 26.0129 347.596 24.408 347.596 24.408C347.596 24.408 344.332 23.7489 342.673 22.3533C342.673 22.3533 342.564 27.1527 338.788 30.8201L338.773 30.8278Z" fill="#12122D"/>
<path d="M348.736 40.5507C349.201 41.8455 348.906 43.1326 348.084 43.4272C347.263 43.7219 346.216 42.9078 345.751 41.6129C345.285 40.3181 345.58 39.031 346.402 38.7364C347.224 38.4418 348.27 39.2559 348.736 40.5507Z" fill="#12122D"/>
<path d="M364.855 34.7899C365.321 36.0847 365.026 37.3718 364.204 37.6664C363.382 37.961 362.335 37.1469 361.87 35.8521C361.405 34.5573 361.7 33.2702 362.522 32.9756C363.343 32.6809 364.39 33.495 364.855 34.7899V34.7899Z" fill="#12122D"/>
<path d="M341.029 36.3638C342.146 35.7048 344.433 34.4487 347.046 33.6191C347.736 33.402 348.465 33.7199 348.558 34.2936V34.3091C348.643 34.7666 348.279 35.2241 347.72 35.3791C345.914 35.8754 341.316 37.5501 339.401 38.9535C339.23 38.6666 339.323 38.2634 339.517 37.8602C339.82 37.2632 340.362 36.7515 341.021 36.3638H341.029Z" fill="#12122D"/>
<path d="M365.111 28.0831C363.824 28.2614 361.258 28.7034 358.691 29.6803C358.017 29.9362 357.644 30.6418 357.924 31.1535V31.169C358.156 31.5799 358.722 31.7117 359.249 31.4791C360.971 30.7425 365.607 29.1919 367.98 29.0911C367.933 28.7577 367.608 28.5018 367.204 28.3157C366.592 28.0366 365.848 27.9823 365.103 28.0831H365.111Z" fill="#12122D"/>
<path d="M353.861 53.7316C355.032 55.639 357.838 58.9109 362.723 57.1742C367.616 55.4296 367.747 51.4676 367.367 48.909L353.861 53.7316Z" fill="white"/>
<path d="M363.917 60.7408C362.506 61.2447 360.994 60.9268 360.932 60.9191C360.599 60.8493 360.389 60.5237 360.459 60.1903C360.529 59.8569 360.855 59.6475 361.188 59.7173C361.188 59.7173 362.436 59.9732 363.506 59.5855C364.669 59.1668 365.491 58.1821 365.499 58.1744C365.716 57.9107 366.096 57.872 366.36 58.0891C366.623 58.3062 366.662 58.6861 366.445 58.9497C366.406 59.004 365.406 60.2058 363.917 60.7408V60.7408Z" fill="#F5896D"/>
<path d="M374.989 28.7421C374.989 28.7421 377.331 22.2447 381.068 24.9895C384.805 27.7342 385.17 39.6591 378.261 39.1861L374.989 28.7421V28.7421Z" fill="#F8A794"/>
<path d="M382.107 38.0851C382.339 38.7364 381.998 39.4575 381.347 39.6901C380.696 39.9227 379.975 39.5815 379.742 38.9302C379.509 38.2789 379.851 37.5579 380.502 37.3253C381.153 37.0927 381.874 37.4338 382.107 38.0851Z" fill="white"/>
<path d="M378.385 35.4179C378.602 35.3404 378.757 35.1233 378.742 34.8752C378.486 31.2465 381.432 28.6879 381.463 28.6569C381.688 28.463 381.711 28.1296 381.525 27.9048C381.331 27.6799 380.998 27.6489 380.773 27.8427C380.634 27.959 377.393 30.7658 377.68 34.9527C377.703 35.2473 377.959 35.4722 378.253 35.4489C378.3 35.4489 378.354 35.4334 378.393 35.4179H378.385Z" fill="#F5896D"/>
<path d="M381.246 32.5181C381.339 32.4871 381.425 32.4251 381.495 32.3398C381.673 32.1072 381.634 31.766 381.394 31.5877C381.355 31.5567 380.417 30.8511 378.951 30.7348C378.657 30.7115 378.401 30.9286 378.378 31.231C378.354 31.5256 378.572 31.7815 378.874 31.8048C380.006 31.8901 380.735 32.4328 380.742 32.4328C380.89 32.5491 381.084 32.5724 381.246 32.5103V32.5181Z" fill="#F5896D"/>
<path d="M374.167 163.459C374.167 163.459 400.234 160.156 434.334 139.532C434.334 139.532 435.342 139.19 435.342 139.175C436.04 128.692 429.411 111.069 424.782 95.6469C421.719 85.4511 417.695 73.1618 409.236 69.7193C407.74 71.4716 404.995 78.7211 404.801 82.4118C404.344 91.336 406.778 100.33 408.445 105.292C410.833 112.418 412.508 121.52 414.687 128.638C414.687 128.638 414.904 129.607 414.896 129.615C414.625 129.685 405.608 134.686 393.303 140.354C379.82 146.564 370.027 152.17 370.027 152.17C374.377 156.085 374.175 163.467 374.175 163.467L374.167 163.459Z" fill="#48CFAD"/>
<path d="M242.436 260.99C241.831 261.075 239.994 255.625 240.389 251.554C240.831 247.034 241.521 237.404 246.228 237.667C247.949 237.768 245.437 241.916 246.592 245.77C246.592 245.77 251.632 243.289 255.005 240.746C257.974 238.505 264.123 234.868 266.976 233.209C267.759 232.752 268.666 233.628 268.209 234.411C267.472 235.675 265.681 237.574 261.541 240.218C261.541 240.218 271.837 234.333 273.566 235.628C275.288 236.923 262.285 244.041 262.285 244.041C262.285 244.041 272.791 239.707 273.652 241.296C274.171 242.265 263.874 248.437 263.874 248.437C263.874 248.437 274.109 245.212 272.209 247.662C271.659 248.375 259.3 255.973 247.693 267.325C247.693 267.325 243.855 264.549 242.444 260.99H242.436Z" fill="#F9AE83"/>
<path d="M140.09 266.068L176.128 266.534C176.128 266.534 192.123 284.064 196.458 287.166C196.458 287.166 209.259 275.799 220.082 270.372C230.906 264.944 240.932 257.478 240.932 257.478C242.893 261.478 245.63 264.192 248.577 266.557C248.577 266.557 214.585 304.696 196.178 308.635C183.083 311.434 147.797 281.102 140.082 266.061L140.09 266.068Z" fill="#5C4EA0"/>
<path d="M102.757 429.264C102.702 412.524 106.843 401.297 106.843 401.297C133.732 399.56 176.012 401.297 176.012 401.297C176.074 401.46 176.128 401.623 176.182 401.785C176.182 401.785 180.524 417.068 177.981 429.272C151.821 445.476 126.614 444.406 102.749 429.272L102.757 429.264Z" fill="#2D2D2C"/>
<path d="M178.493 426.093C178.493 426.093 184.277 504.868 183.595 524.531L188.782 627.784L171.608 626.768C167.878 579.464 161.497 555.723 161.683 525.205L146.975 433.358C146.975 433.358 161.273 426.426 178.493 426.085V426.093Z" fill="#2D2D2C"/>
<path d="M170.988 625.923C171.476 619.139 177.531 615.44 183.719 617.131C189.766 618.79 190.495 628.877 190.495 628.877C190.495 628.877 197.884 635.444 199.497 647.082C199.536 647.338 199.582 647.594 199.606 647.865C199.846 650.021 198.342 651.99 196.217 652.339C185.487 654.115 175.074 654.254 165.01 652.424C162.893 652.045 161.427 650.075 161.699 647.92C161.714 647.834 161.714 647.757 161.722 647.679C162.397 642.539 163.792 633.103 170.088 629.606L170.988 625.923V625.923Z" fill="#48CFAD"/>
<path d="M173.384 633.739L172.841 632.498C173.213 632.335 182.122 628.513 188.611 632.754L187.875 633.886C181.99 630.048 173.469 633.7 173.384 633.739V633.739Z" fill="white"/>
<path d="M174.5 633.568C174.36 634.398 173.577 634.956 172.748 634.816C171.918 634.677 171.36 633.894 171.499 633.064C171.639 632.234 172.422 631.676 173.252 631.816C174.081 631.955 174.64 632.738 174.5 633.568Z" fill="white"/>
<path d="M189.805 633.196C189.666 634.025 188.883 634.584 188.053 634.444C187.223 634.305 186.665 633.521 186.805 632.692C186.944 631.862 187.727 631.304 188.557 631.444C189.387 631.583 189.945 632.366 189.805 633.196Z" fill="white"/>
<path d="M173.538 629.916L172.996 628.675C173.368 628.513 182.277 624.69 188.766 628.931L188.03 630.063C182.145 626.225 173.624 629.877 173.538 629.916V629.916Z" fill="white"/>
<path d="M174.655 629.745C174.515 630.575 173.732 631.133 172.903 630.994C172.073 630.854 171.515 630.071 171.654 629.241C171.794 628.412 172.577 627.854 173.406 627.993C174.236 628.133 174.794 628.916 174.655 629.745Z" fill="white"/>
<path d="M189.96 629.373C189.82 630.203 189.037 630.761 188.208 630.622C187.378 630.482 186.82 629.699 186.959 628.869C187.099 628.04 187.882 627.481 188.712 627.621C189.541 627.761 190.1 628.544 189.96 629.373Z" fill="white"/>
<path d="M173.384 637.545L172.841 636.305C173.213 636.142 182.122 632.32 188.611 636.561L187.875 637.693C181.99 633.855 173.469 637.507 173.384 637.545V637.545Z" fill="white"/>
<path d="M174.5 637.375C174.36 638.204 173.577 638.763 172.748 638.623C171.918 638.484 171.36 637.701 171.499 636.871C171.639 636.041 172.422 635.483 173.252 635.623C174.081 635.762 174.64 636.545 174.5 637.375Z" fill="white"/>
<path d="M189.805 637.01C189.666 637.84 188.883 638.398 188.053 638.259C187.223 638.119 186.665 637.336 186.805 636.506C186.944 635.677 187.727 635.119 188.557 635.258C189.387 635.398 189.945 636.181 189.805 637.01Z" fill="white"/>
<path d="M184.595 621.504C184.595 621.504 180.02 619.922 176.12 621.845C175.764 622.667 175.717 623.861 176.12 624.962C176.12 624.962 181.385 624.116 184.711 624.768C184.711 624.768 185.339 622.891 184.602 621.504H184.595Z" fill="white"/>
<path d="M196.217 652.347C185.487 654.122 175.074 654.262 165.01 652.432C162.893 652.052 161.427 650.083 161.699 647.927C161.714 647.842 161.714 647.765 161.722 647.687C168.002 649.447 182.664 652.308 199.497 647.09C199.536 647.346 199.582 647.602 199.606 647.873C199.846 650.029 198.342 651.998 196.217 652.347V652.347Z" fill="#308A73"/>
<path d="M102.842 426.093C102.842 426.093 97.058 504.868 97.7403 524.531L92.5532 627.784L109.727 626.768C113.457 579.464 119.838 555.723 119.652 525.205L134.36 433.358C134.36 433.358 120.063 426.426 102.842 426.085V426.093Z" fill="#2D2D2C"/>
<path d="M110.355 625.923C109.867 619.139 103.811 615.44 97.624 617.131C91.5763 618.79 90.8475 628.877 90.8475 628.877C90.8475 628.877 83.4584 635.444 81.8457 647.082C81.8069 647.338 81.7604 647.594 81.7371 647.865C81.4968 650.021 83.001 651.99 85.1254 652.339C95.8562 654.115 106.269 654.254 116.333 652.424C118.45 652.045 119.915 650.075 119.644 647.92C119.628 647.834 119.628 647.757 119.621 647.679C118.946 642.539 117.55 633.103 111.255 629.606L110.355 625.923V625.923Z" fill="#48CFAD"/>
<path d="M107.959 633.739L108.502 632.498C108.13 632.335 99.2211 628.513 92.7314 632.754L93.468 633.886C99.3529 630.048 107.874 633.7 107.959 633.739Z" fill="white"/>
<path d="M106.843 633.568C106.982 634.398 107.765 634.956 108.595 634.816C109.425 634.677 109.983 633.894 109.843 633.064C109.704 632.234 108.921 631.676 108.091 631.816C107.261 631.955 106.703 632.738 106.843 633.568Z" fill="white"/>
<path d="M91.5375 633.196C91.6771 634.025 92.4602 634.584 93.2898 634.444C94.1194 634.305 94.6777 633.521 94.5381 632.692C94.3985 631.862 93.6154 631.304 92.7858 631.444C91.9562 631.583 91.3979 632.366 91.5375 633.196Z" fill="white"/>
<path d="M107.804 629.916L108.347 628.675C107.975 628.513 99.0658 624.69 92.5762 628.931L93.3128 630.063C99.1976 626.225 107.719 629.877 107.804 629.916Z" fill="white"/>
<path d="M106.687 629.745C106.827 630.575 107.61 631.133 108.44 630.994C109.269 630.854 109.828 630.071 109.688 629.241C109.548 628.412 108.765 627.854 107.936 627.993C107.106 628.133 106.548 628.916 106.687 629.745Z" fill="white"/>
<path d="M91.3822 629.373C91.5218 630.203 92.3049 630.761 93.1345 630.622C93.9641 630.482 94.5224 629.699 94.3828 628.869C94.2433 628.04 93.4602 627.481 92.6305 627.621C91.8009 627.761 91.2427 628.544 91.3822 629.373Z" fill="white"/>
<path d="M107.959 637.545L108.502 636.305C108.13 636.142 99.2211 632.32 92.7314 636.561L93.468 637.693C99.3529 633.855 107.874 637.507 107.959 637.545Z" fill="white"/>
<path d="M106.843 637.375C106.982 638.204 107.765 638.763 108.595 638.623C109.425 638.484 109.983 637.701 109.843 636.871C109.704 636.041 108.921 635.483 108.091 635.623C107.261 635.762 106.703 636.545 106.843 637.375Z" fill="white"/>
<path d="M91.5375 637.01C91.6771 637.84 92.4602 638.398 93.2898 638.259C94.1194 638.119 94.6777 637.336 94.5381 636.506C94.3985 635.677 93.6154 635.119 92.7858 635.258C91.9562 635.398 91.3979 636.181 91.5375 637.01Z" fill="white"/>
<path d="M96.7404 621.504C96.7404 621.504 101.315 619.922 105.215 621.845C105.572 622.667 105.618 623.861 105.215 624.962C105.215 624.962 99.9503 624.116 96.6241 624.768C96.6241 624.768 95.996 622.891 96.7326 621.504H96.7404Z" fill="white"/>
<path d="M85.1254 652.347C95.8562 654.122 106.269 654.262 116.333 652.432C118.45 652.052 119.915 650.083 119.644 647.927C119.628 647.842 119.628 647.765 119.621 647.687C113.34 649.447 98.6785 652.308 81.8457 647.09C81.8069 647.346 81.7604 647.602 81.7371 647.873C81.4968 650.029 83.001 651.998 85.1254 652.347V652.347Z" fill="#308A73"/>
<path d="M179.385 407.98C171.74 411.989 164.638 414.935 157.528 416.711C152.178 418.052 146.812 418.735 141.191 418.696C136.221 418.735 131.507 418.2 126.855 417.153C119.249 415.447 111.759 412.338 103.447 407.98L106.595 342.688L106.254 266.534L125.591 261.339L131.414 259.788C134.624 258.928 137.911 258.509 141.199 258.486C144.486 258.509 147.774 258.928 150.984 259.788L157.536 261.548L176.144 266.534L175.803 342.688L179.393 407.98H179.385Z" fill="#5C4EA0"/>
<path d="M157.528 261.556V416.711C152.178 418.052 146.812 418.735 141.191 418.696C136.221 418.735 131.507 418.2 126.855 417.153L126.832 413.292L126.793 409.244L126.715 399.847L126.692 395.8L126.615 386.418L126.576 382.371L126.514 372.989L126.475 368.957L126.397 359.575L126.374 355.559L126.297 346.162L126.258 342.13L126.18 332.733L126.157 328.717L126.08 319.312L126.056 315.303L125.979 305.883L125.94 301.89L125.862 292.469L125.839 288.476L125.762 279.071L125.738 275.078L125.661 265.642L125.622 261.664V261.323L131.445 259.773C134.655 258.912 137.942 258.493 141.23 258.47C144.517 258.493 147.805 258.912 151.015 259.773L157.497 261.517L157.559 261.533L157.528 261.556Z" fill="white"/>
<path d="M157.528 265.689V269.627C151.953 270.597 146.518 270.93 141.517 270.93C135.33 270.93 129.825 270.395 125.622 269.798L125.583 265.82C132.98 266.89 145.021 267.867 157.458 265.673L157.52 265.689H157.528Z" fill="#E2E2E2"/>
<path d="M157.528 276.908V280.878C152.038 281.831 146.673 282.18 141.757 282.18C135.523 282.18 129.964 281.622 125.739 280.994L125.715 277.001C133.128 278.11 145.13 279.125 157.536 276.908H157.528Z" fill="#E2E2E2"/>
<path d="M157.528 288.445V292.438C152.116 293.392 146.828 293.741 141.974 293.741C135.702 293.741 130.111 293.151 125.831 292.485L125.808 288.492C133.205 289.655 145.145 290.725 157.528 288.437V288.445Z" fill="#E2E2E2"/>
<path d="M157.528 301.913V305.906C152.178 306.86 146.975 307.208 142.168 307.208C135.865 307.208 130.259 306.596 125.948 305.906L125.909 301.913C133.306 303.115 145.177 304.223 157.52 301.913H157.528Z" fill="#E2E2E2"/>
<path d="M157.528 315.388V319.366C152.255 320.32 147.115 320.684 142.354 320.684C136.012 320.684 130.375 320.048 126.056 319.327L126.033 315.319C133.415 316.575 145.215 317.707 157.528 315.381V315.388Z" fill="#E2E2E2"/>
<path d="M157.528 328.841V332.834C152.31 333.803 147.231 334.152 142.532 334.152C136.167 334.152 130.499 333.485 126.157 332.756L126.134 328.74C133.507 330.042 145.246 331.221 157.528 328.841V328.841Z" fill="#E2E2E2"/>
<path d="M157.528 342.301V346.294C152.372 347.263 147.34 347.627 142.696 347.627C136.33 347.627 130.654 346.945 126.281 346.177L126.243 342.146C133.616 343.487 145.277 344.704 157.528 342.301Z" fill="#E2E2E2"/>
<path d="M157.528 355.768V359.762C152.411 360.738 147.441 361.103 142.851 361.103C136.454 361.103 130.778 360.397 126.382 359.591L126.359 355.575C133.717 356.955 145.316 358.195 157.528 355.768V355.768Z" fill="#E2E2E2"/>
<path d="M157.528 369.236V373.245C152.465 374.214 147.549 374.578 142.982 374.578C136.586 374.578 130.91 373.85 126.506 373.012L126.467 368.98C133.81 370.43 145.363 371.694 157.535 369.244L157.528 369.236Z" fill="#E2E2E2"/>
<path d="M157.528 382.696V386.689C152.504 387.666 147.635 388.046 143.114 388.046C136.718 388.046 131.034 387.286 126.607 386.426L126.568 382.378C133.911 383.867 145.386 385.17 157.528 382.689V382.696Z" fill="#E2E2E2"/>
<path d="M157.528 396.149V400.165C152.542 401.142 147.72 401.522 143.238 401.522C136.834 401.522 131.143 400.754 126.708 399.855L126.685 395.807C134.019 397.335 145.417 398.669 157.528 396.149Z" fill="#E2E2E2"/>
<path d="M157.528 409.616V413.633C152.581 414.61 147.805 414.99 143.362 414.99C136.966 414.99 131.282 414.206 126.832 413.292L126.793 409.244C134.112 410.795 145.463 412.152 157.536 409.609L157.528 409.616Z" fill="#E2E2E2"/>
<path d="M81.7683 407.918C81.7683 407.918 83.2647 412.881 84.924 416.494C86.5832 420.099 85.4435 422.89 86.4359 426.147C87.4284 429.403 83.5361 429.163 82.784 425.744C82.0319 422.324 82.3576 420.712 81.6443 420.595C80.9309 420.487 78.8995 428.814 78.6049 431.202C78.3103 433.59 78.7987 439.584 77.9071 440.514C77.0077 441.444 74.8522 438.079 75.5345 431.846C76.2168 425.612 75.7128 425.744 75.7128 425.744C75.7128 425.744 75.1236 428.163 74.5033 430.768C73.883 433.373 73.883 436.544 73.9993 438.32C74.1156 440.095 72.3013 440.979 71.7663 440.026C71.2313 439.072 70.3784 432.869 71.0995 430.45C71.8206 428.023 72.6967 423.867 72.6967 423.867C72.6967 423.867 70.3164 429.442 69.9055 430.884C69.4946 432.319 70.1769 437.816 68.9208 438.816C68.4013 439.227 66.7421 438.676 67.0212 430.853C67.0212 430.853 67.595 427.031 68.4168 424.666C68.4168 424.666 67.1375 426.434 66.5095 428.806C65.959 430.892 65.6566 433.086 65.4705 435.203C65.2844 437.32 63.4546 437.04 63.4546 433.303C63.4546 429.574 64.0826 425.457 65.1293 423.472C66.1761 421.487 67.7113 409.872 70.8126 405.608L81.7606 407.911L81.7683 407.918Z" fill="#F9AE83"/>
<path d="M116.899 283.467C116.899 283.467 107.967 324.832 100.477 339.137C100.477 339.137 96.3601 359.265 82.055 408.678C82.055 408.678 74.5806 411.648 70.2231 405.98C70.2231 405.98 77.1315 351.659 81.3029 334.291C81.3029 334.291 99.9888 274.279 106.261 266.541C106.261 266.541 115.914 270.465 116.899 283.467V283.467Z" fill="#5C4EA0"/>
<path d="M151.247 248.832L150.914 255.159L150.495 263.083C150.495 263.083 148.921 266.068 141.819 266.068C134.717 266.068 133.259 264.029 133.259 264.029L132.972 260.509L132.019 248.825H151.255L151.247 248.832Z" fill="#F9AE83"/>
<path d="M151.247 248.832L150.914 255.159C147.952 257.377 140.935 261.742 132.964 260.517L132.011 248.832H151.247V248.832Z" fill="#F58A69"/>
<path d="M119.877 220.067C119.877 220.067 114.434 214.74 110.092 218.214C104.959 222.316 110.324 237.094 119.435 235.527L119.877 220.067Z" fill="#F8A279"/>
<path d="M116.698 231.852C116.248 231.837 115.868 231.488 115.83 231.023C115.248 223.75 110.991 222.494 110.805 222.44C110.332 222.308 110.045 221.812 110.17 221.339C110.301 220.858 110.782 220.571 111.263 220.703C111.495 220.765 116.931 222.269 117.621 230.883C117.659 231.379 117.287 231.814 116.799 231.852C116.768 231.852 116.729 231.852 116.698 231.852Z" fill="#F58A69"/>
<path d="M111.612 228.146C111.402 228.146 111.185 228.053 111.022 227.898C110.658 227.557 110.65 226.983 110.991 226.627C111.069 226.541 112.914 224.649 115.845 225.401C116.326 225.526 116.62 226.014 116.496 226.495C116.372 226.975 115.884 227.262 115.403 227.146C113.48 226.65 112.31 227.852 112.302 227.867C112.116 228.061 111.868 228.154 111.62 228.146H111.612Z" fill="#F58A69"/>
<path d="M161.466 220.067C161.466 220.067 166.909 214.74 171.251 218.214C176.384 222.316 171.019 237.094 161.908 235.527L161.466 220.067Z" fill="#F8A279"/>
<path d="M164.637 231.852C165.087 231.837 165.467 231.488 165.506 231.023C166.087 223.75 170.344 222.494 170.53 222.44C171.003 222.308 171.29 221.812 171.166 221.339C171.034 220.858 170.553 220.571 170.073 220.703C169.84 220.765 164.405 222.269 163.715 230.883C163.676 231.379 164.048 231.814 164.544 231.852C164.575 231.852 164.614 231.852 164.645 231.852H164.637Z" fill="#F58A69"/>
<path d="M169.731 228.146C169.941 228.146 170.158 228.053 170.321 227.898C170.685 227.557 170.693 226.983 170.352 226.627C170.274 226.541 168.429 224.649 165.498 225.401C165.017 225.526 164.723 226.014 164.847 226.495C164.971 226.975 165.459 227.262 165.94 227.146C167.863 226.65 169.034 227.852 169.041 227.867C169.227 228.061 169.476 228.154 169.724 228.146H169.731Z" fill="#F58A69"/>
<path d="M140.943 255.043C122.141 255.043 116.334 232.705 114.605 216.353C113.007 201.28 124.715 187.991 139.873 187.813C140.075 187.813 140.276 187.813 140.478 187.813C140.734 187.813 140.982 187.813 141.23 187.813C156.202 188.014 167.871 200.939 166.576 215.857C165.142 232.426 159.738 255.035 140.943 255.035V255.043Z" fill="#F9AE83"/>
<path d="M165.056 176.19C174.593 182.719 165.964 195.442 165.964 195.442C165.964 195.442 175.462 204.738 165.684 226.627L163.94 226.27C165.049 219.261 164.382 210.732 163.94 209.383C162.622 205.382 155.597 203.25 155.954 198.923C155.954 198.923 134.43 205.653 122.777 199.047C122.777 199.047 121.854 204.591 118.667 208.088C116 211.011 117.52 221.207 117.861 225.611L116.07 225.789C115.008 221.3 112.426 213.213 112.147 210.833C111.968 209.328 111.333 203.374 111.061 199.117C110.821 195.388 111.488 191.627 113.178 188.293C114.108 186.448 115.411 184.595 117.202 183.261C123.459 178.601 156.396 170.274 165.049 176.19H165.056Z" fill="#12122D"/>
<path d="M153.31 233.093C153.294 233.147 153.031 233.977 152.426 235.117C151.635 236.597 150.27 238.606 148.099 240.056C147.844 240.226 147.572 240.389 147.293 240.544C145.766 241.397 143.897 241.963 141.625 241.963C139.555 241.963 137.834 241.529 136.407 240.862C136.159 240.746 135.919 240.622 135.686 240.49C133.476 239.249 132.065 237.45 131.228 236.024C130.491 234.775 130.189 233.814 130.173 233.752C130.189 233.76 130.514 233.954 131.088 234.225C132.748 235.008 136.516 236.473 141.416 236.435C141.486 236.435 141.555 236.435 141.625 236.435H141.858C146.618 236.303 150.418 234.651 152.201 233.721C152.883 233.364 153.271 233.116 153.302 233.093H153.31Z" fill="#921A1D"/>
<path d="M147.301 240.544C145.773 241.397 143.905 241.963 141.633 241.963C139.563 241.963 137.842 241.529 136.415 240.862C137.57 240.226 139.361 239.621 141.998 239.621C144.2 239.621 145.967 240.04 147.309 240.544H147.301Z" fill="#F15D67"/>
<path d="M153.31 233.093C153.294 233.147 153.031 233.977 152.426 235.117C150.743 236.187 147.184 237.962 141.99 237.962C136.795 237.962 132.856 236.706 131.22 236.024C130.483 234.775 130.181 233.814 130.166 233.752C130.181 233.76 130.507 233.954 131.08 234.225C132.74 235.008 136.508 236.473 141.408 236.435C141.478 236.435 141.548 236.435 141.617 236.435H141.85C146.611 236.303 150.41 234.651 152.193 233.721C152.875 233.364 153.263 233.116 153.294 233.093H153.31Z" fill="white"/>
<path d="M132.143 220.036C132.143 221.912 131.306 223.44 130.274 223.44C129.243 223.44 128.406 221.92 128.406 220.036C128.406 218.16 129.243 216.632 130.274 216.632C131.306 216.632 132.143 218.152 132.143 220.036Z" fill="#33334D"/>
<path d="M123.715 214.686C123.715 214.686 124.141 210.6 127.072 208.545C129.786 206.646 132.213 206.646 133.507 206.84C134.073 206.925 134.477 207.421 134.477 207.987C134.477 208.662 133.895 209.181 133.221 209.127C131.096 208.941 126.692 209.305 123.715 214.678V214.686Z" fill="#12122D"/>
<path d="M150.48 220.036C150.48 221.912 151.317 223.44 152.349 223.44C153.38 223.44 154.217 221.92 154.217 220.036C154.217 218.16 153.38 216.632 152.349 216.632C151.317 216.632 150.48 218.152 150.48 220.036Z" fill="#33334D"/>
<path d="M158.691 214.934C158.691 214.934 158.474 210.825 155.651 208.631C153.038 206.599 150.612 206.467 149.317 206.599C148.751 206.654 148.317 207.126 148.293 207.692C148.262 208.367 148.813 208.918 149.487 208.894C151.619 208.817 156 209.406 158.691 214.934V214.934Z" fill="#12122D"/>
<path d="M140.99 231.573C140.695 231.542 140.408 231.379 140.245 231.108C139.958 230.643 140.106 230.03 140.571 229.743L143.401 227.999L141.183 227.185C140.811 227.045 140.563 226.704 140.54 226.316L140.16 219.935C140.129 219.385 140.548 218.92 141.09 218.889C141.633 218.85 142.106 219.268 142.137 219.819L142.478 225.549L146.006 226.844C146.363 226.975 146.611 227.301 146.65 227.673C146.688 228.053 146.51 228.418 146.184 228.619L141.625 231.434C141.432 231.55 141.214 231.597 141.005 231.573H140.99Z" fill="#F58A69"/>
<path d="M141.819 245.979C140.167 246.018 138.276 245.677 136.36 244.537C136.035 244.343 135.926 243.917 136.12 243.591C136.314 243.265 136.74 243.157 137.066 243.351C141.679 246.095 146.161 243.483 146.347 243.366C146.673 243.172 147.099 243.273 147.293 243.607C147.487 243.932 147.386 244.359 147.06 244.553C146.921 244.638 144.758 245.909 141.819 245.979V245.979Z" fill="#F58A69"/>
</g>
<defs>
<clipPath id="clip0_315_298">
<rect width="744.846" height="655.96" fill="white"/>
</clipPath>
</defs>
</svg>
