<?xml version="1.0" standalone="no"?>
<!DOCTYPE svg PUBLIC "-//W3C//DTD SVG 20010904//EN"
 "http://www.w3.org/TR/2001/REC-SVG-20010904/DTD/svg10.dtd">
<svg version="1.0" xmlns="http://www.w3.org/2000/svg"
 width="512.000000pt" height="512.000000pt" viewBox="0 0 512.000000 512.000000"
 preserveAspectRatio="xMidYMid meet">

<g transform="translate(0.000000,512.000000) scale(0.100000,-0.100000)"
fill="#000000" stroke="none">
<path d="M2380 4559 c-283 -33 -551 -127 -778 -275 -334 -218 -584 -540 -711
-920 -39 -118 -81 -314 -81 -380 0 -40 -11 -49 -79 -63 -190 -40 -409 -185
-536 -354 -134 -177 -206 -416 -192 -634 28 -421 309 -761 725 -875 72 -20
105 -22 555 -25 l477 -4 0 160 0 160 -457 3 -458 3 -79 28 c-125 44 -215 106
-297 204 -48 57 -112 187 -129 261 -16 69 -16 216 0 284 63 266 292 467 562
493 109 10 127 15 158 42 49 41 59 71 69 211 17 223 61 383 154 565 191 377
535 649 942 745 594 141 1204 -99 1537 -603 98 -148 155 -279 208 -480 31
-117 59 -145 176 -169 165 -35 287 -99 407 -215 467 -451 226 -1241 -413
-1357 -54 -9 -175 -13 -427 -14 l-353 0 0 -161 0 -161 398 5 c331 3 410 7 472
21 332 77 609 287 758 576 94 181 127 318 127 525 -1 77 -6 167 -14 200 -49
234 -151 425 -311 585 -128 128 -273 217 -446 274 l-81 27 -17 63 c-10 35 -36
110 -59 167 -194 482 -597 855 -1097 1014 -227 73 -485 100 -710 74z"/>
<path d="M2500 2614 c-22 -9 -161 -141 -362 -342 l-328 -327 112 -112 113
-113 182 182 183 183 0 -768 0 -767 160 0 160 0 0 767 0 768 185 -185 185
-185 112 113 113 112 -330 331 c-182 183 -344 337 -362 345 -41 18 -79 17
-123 -2z"/>
</g>
</svg>
