<svg width="631" height="656" viewBox="0 0 631 656" fill="none" xmlns="http://www.w3.org/2000/svg">
<g clip-path="url(#clip0_323_2)">
<path d="M219.35 434.834H71.6239C68.7216 434.834 66.3682 432.481 66.3682 429.579V264.573C66.3682 261.67 68.7216 259.317 71.6239 259.317H219.35C222.253 259.317 224.606 261.67 224.606 264.573V429.579C224.606 432.481 222.253 434.834 219.35 434.834ZM219.35 434.834C219.35 434.834 222.253 434.834 219.35 434.834Z" stroke="white" stroke-width="2" stroke-miterlimit="10" stroke-linecap="round"/>
<path d="M372.706 378.061H308.744V398.827H372.706V378.061Z" fill="#212121"/>
<g style="mix-blend-mode:multiply" opacity="0.39">
<path d="M372.706 378.061H351.643V398.827H372.706V378.061Z" fill="#B6B5BA"/>
</g>
<path d="M511.399 139.662H180.797C171.161 139.662 163.348 147.475 163.348 157.111V365.599C163.348 375.235 171.161 383.048 180.797 383.048H314.117V394.698C300.545 394.92 289.613 405.975 289.613 419.599H402.582C402.582 405.975 391.644 394.926 378.079 394.698V383.048H511.399C521.034 383.048 528.848 375.235 528.848 365.599V157.111C528.848 147.475 521.034 139.662 511.399 139.662V139.662Z" fill="#212121"/>
<path d="M517.781 139.662H163.675C160.53 139.662 157.981 142.211 157.981 145.356V377.355C157.981 380.499 160.53 383.048 163.675 383.048H517.781C520.926 383.048 523.475 380.499 523.475 377.355V145.356C523.475 142.211 520.926 139.662 517.781 139.662Z" fill="#212121"/>
<path d="M523.475 157.934H157.981V353.143H523.475V157.934Z" fill="#EDEDED"/>
<path d="M309.165 394.675H372.297C386.061 394.675 397.215 405.835 397.215 419.593H284.247C284.247 405.829 295.406 394.675 309.165 394.675Z" fill="#212121"/>
<g style="mix-blend-mode:multiply" opacity="0.39">
<path d="M372.291 394.675H347.788C361.552 394.675 372.706 405.835 372.706 419.593H397.209C397.209 405.829 386.05 394.675 372.291 394.675Z" fill="#B6B5BA"/>
</g>
<path d="M235.859 94.0656C235.859 94.0656 245.967 89.9311 246.423 80.2839C246.423 80.2839 248.198 90.1647 258.318 92.9152C258.318 92.9152 248.671 100.034 247.089 106.697C247.089 106.697 243.439 94.9824 235.859 94.0656V94.0656Z" fill="white"/>
<path d="M82.2578 409.963C82.2578 409.963 94.7255 404.865 95.292 392.964C95.292 392.964 97.4819 405.151 109.961 408.55C109.961 408.55 98.06 417.333 96.1095 425.549C96.1095 425.549 91.6071 411.102 82.2578 409.963Z" fill="white"/>
<path d="M54.2563 478.655C54.2563 478.655 73.3872 470.83 74.2573 452.57C74.2573 452.57 77.6209 471.268 96.7692 476.483C96.7692 476.483 78.5085 489.961 75.5128 502.569C75.5128 502.569 68.6044 480.396 54.2563 478.655V478.655Z" fill="white"/>
<path d="M248.403 66.0877C248.403 66.0877 255.597 63.1445 255.924 56.277C255.924 56.277 257.192 63.308 264.392 65.2701C264.392 65.2701 257.524 70.339 256.397 75.0808C256.397 75.0808 253.799 66.7417 248.403 66.0877V66.0877Z" fill="white"/>
<path d="M541.858 286.693C541.858 286.693 550.735 283.061 551.138 274.594C551.138 274.594 552.697 283.266 561.579 285.689C561.579 285.689 553.106 291.943 551.716 297.789C551.716 297.789 548.51 287.499 541.853 286.693H541.858Z" fill="white"/>
<path d="M112.192 394.079C112.192 394.079 121.068 390.447 121.471 381.98C121.471 381.98 123.03 390.651 131.912 393.075C131.912 393.075 123.439 399.329 122.049 405.175C122.049 405.175 118.843 394.885 112.186 394.079H112.192Z" fill="white"/>
<path d="M504.531 174.653H174.858V325.884H504.531V174.653Z" fill="#5C4EA0"/>
<path d="M323.139 304.142C322.52 304.142 322.018 303.64 322.018 303.021V245.401C322.018 244.782 322.52 244.28 323.139 244.28C323.758 244.28 324.26 244.782 324.26 245.401V303.021C324.26 303.64 323.758 304.142 323.139 304.142Z" fill="#48CFAD"/>
<path d="M327.986 290.057C327.367 290.057 326.865 289.555 326.865 288.936V259.492C326.865 258.873 327.367 258.371 327.986 258.371C328.605 258.371 329.107 258.873 329.107 259.492V288.936C329.107 289.555 328.605 290.057 327.986 290.057Z" fill="#48CFAD"/>
<path d="M332.833 296.615C332.214 296.615 331.711 296.113 331.711 295.494V252.928C331.711 252.309 332.214 251.807 332.833 251.807C333.452 251.807 333.954 252.309 333.954 252.928V295.494C333.954 296.113 333.452 296.615 332.833 296.615Z" fill="#48CFAD"/>
<path d="M342.526 288.264C341.907 288.264 341.405 287.762 341.405 287.143V261.279C341.405 260.66 341.907 260.158 342.526 260.158C343.145 260.158 343.648 260.66 343.648 261.279V287.143C343.648 287.762 343.145 288.264 342.526 288.264Z" fill="#48CFAD"/>
<path d="M337.68 300.347C337.061 300.347 336.559 299.844 336.559 299.225V249.203C336.559 248.584 337.061 248.081 337.68 248.081C338.299 248.081 338.801 248.584 338.801 249.203V299.225C338.801 299.844 338.299 300.347 337.68 300.347Z" fill="#48CFAD"/>
<path d="M298.536 304.142C297.917 304.142 297.415 303.64 297.415 303.021V245.401C297.415 244.782 297.917 244.28 298.536 244.28C299.155 244.28 299.657 244.782 299.657 245.401V303.021C299.657 303.64 299.155 304.142 298.536 304.142V304.142Z" fill="#48CFAD"/>
<path d="M303.383 290.057C302.764 290.057 302.262 289.555 302.262 288.936V259.492C302.262 258.873 302.764 258.371 303.383 258.371C304.002 258.371 304.505 258.873 304.505 259.492V288.936C304.505 289.555 304.002 290.057 303.383 290.057Z" fill="#48CFAD"/>
<path d="M308.23 296.615C307.611 296.615 307.109 296.113 307.109 295.494V252.928C307.109 252.309 307.611 251.807 308.23 251.807C308.849 251.807 309.351 252.309 309.351 252.928V295.494C309.351 296.113 308.849 296.615 308.23 296.615Z" fill="#48CFAD"/>
<path d="M317.924 288.264C317.305 288.264 316.803 287.762 316.803 287.143V261.279C316.803 260.66 317.305 260.158 317.924 260.158C318.543 260.158 319.045 260.66 319.045 261.279V287.143C319.045 287.762 318.543 288.264 317.924 288.264Z" fill="#48CFAD"/>
<path d="M313.077 300.347C312.458 300.347 311.956 299.844 311.956 299.225V249.203C311.956 248.584 312.458 248.081 313.077 248.081C313.696 248.081 314.198 248.584 314.198 249.203V299.225C314.198 299.844 313.696 300.347 313.077 300.347Z" fill="#48CFAD"/>
<path d="M274.15 304.142C273.531 304.142 273.029 303.64 273.029 303.021V245.401C273.029 244.782 273.531 244.28 274.15 244.28C274.769 244.28 275.271 244.782 275.271 245.401V303.021C275.271 303.64 274.769 304.142 274.15 304.142Z" fill="#48CFAD"/>
<path d="M278.997 290.057C278.378 290.057 277.876 289.555 277.876 288.936V259.492C277.876 258.873 278.378 258.371 278.997 258.371C279.616 258.371 280.118 258.873 280.118 259.492V288.936C280.118 289.555 279.616 290.057 278.997 290.057Z" fill="#48CFAD"/>
<path d="M283.844 296.615C283.225 296.615 282.723 296.113 282.723 295.494V252.928C282.723 252.309 283.225 251.807 283.844 251.807C284.463 251.807 284.965 252.309 284.965 252.928V295.494C284.965 296.113 284.463 296.615 283.844 296.615Z" fill="#48CFAD"/>
<path d="M293.538 288.264C292.919 288.264 292.417 287.762 292.417 287.143V261.279C292.417 260.66 292.919 260.158 293.538 260.158C294.157 260.158 294.659 260.66 294.659 261.279V287.143C294.659 287.762 294.157 288.264 293.538 288.264Z" fill="#48CFAD"/>
<path d="M288.691 300.347C288.072 300.347 287.57 299.844 287.57 299.225V249.203C287.57 248.584 288.072 248.081 288.691 248.081C289.31 248.081 289.812 248.584 289.812 249.203V299.225C289.812 299.844 289.31 300.347 288.691 300.347Z" fill="#48CFAD"/>
<path d="M249.769 304.142C249.15 304.142 248.648 303.64 248.648 303.021V245.401C248.648 244.782 249.15 244.28 249.769 244.28C250.388 244.28 250.89 244.782 250.89 245.401V303.021C250.89 303.64 250.388 304.142 249.769 304.142Z" fill="#48CFAD"/>
<path d="M254.616 290.057C253.997 290.057 253.495 289.555 253.495 288.936V259.492C253.495 258.873 253.997 258.371 254.616 258.371C255.235 258.371 255.738 258.873 255.738 259.492V288.936C255.738 289.555 255.235 290.057 254.616 290.057Z" fill="#48CFAD"/>
<path d="M259.463 296.615C258.844 296.615 258.342 296.113 258.342 295.494V252.928C258.342 252.309 258.844 251.807 259.463 251.807C260.082 251.807 260.584 252.309 260.584 252.928V295.494C260.584 296.113 260.082 296.615 259.463 296.615Z" fill="#48CFAD"/>
<path d="M269.157 288.264C268.538 288.264 268.036 287.762 268.036 287.143V261.279C268.036 260.66 268.538 260.158 269.157 260.158C269.776 260.158 270.278 260.66 270.278 261.279V287.143C270.278 287.762 269.776 288.264 269.157 288.264Z" fill="#48CFAD"/>
<path d="M264.31 300.347C263.691 300.347 263.189 299.844 263.189 299.225V249.203C263.189 248.584 263.691 248.081 264.31 248.081C264.929 248.081 265.431 248.584 265.431 249.203V299.225C265.431 299.844 264.929 300.347 264.31 300.347Z" fill="#48CFAD"/>
<path d="M226.504 245.407C226.504 244.788 226.003 244.286 225.385 244.286C224.768 244.286 224.267 244.788 224.267 245.407V303.021C224.267 303.64 224.768 304.142 225.385 304.142C226.003 304.142 226.504 303.64 226.504 303.021V245.407Z" fill="#48CFAD"/>
<path d="M230.235 290.057C229.616 290.057 229.114 289.555 229.114 288.936V259.492C229.114 258.873 229.616 258.371 230.235 258.371C230.854 258.371 231.357 258.873 231.357 259.492V288.936C231.357 289.555 230.854 290.057 230.235 290.057Z" fill="#48CFAD"/>
<path d="M235.082 296.615C234.463 296.615 233.961 296.113 233.961 295.494V252.928C233.961 252.309 234.463 251.807 235.082 251.807C235.701 251.807 236.203 252.309 236.203 252.928V295.494C236.203 296.113 235.701 296.615 235.082 296.615Z" fill="#48CFAD"/>
<path d="M244.776 288.264C244.157 288.264 243.655 287.762 243.655 287.143V261.279C243.655 260.66 244.157 260.158 244.776 260.158C245.395 260.158 245.897 260.66 245.897 261.279V287.143C245.897 287.762 245.395 288.264 244.776 288.264Z" fill="#48CFAD"/>
<path d="M239.929 300.347C239.31 300.347 238.808 299.844 238.808 299.225V249.203C238.808 248.584 239.31 248.081 239.929 248.081C240.548 248.081 241.051 248.584 241.051 249.203V299.225C241.051 299.844 240.548 300.347 239.929 300.347Z" fill="#48CFAD"/>
<path d="M201.002 304.142C200.383 304.142 199.881 303.64 199.881 303.021V245.401C199.881 244.782 200.383 244.28 201.002 244.28C201.621 244.28 202.123 244.782 202.123 245.401V303.021C202.123 303.64 201.621 304.142 201.002 304.142Z" fill="#48CFAD"/>
<path d="M205.849 290.057C205.23 290.057 204.728 289.555 204.728 288.936V259.492C204.728 258.873 205.23 258.371 205.849 258.371C206.468 258.371 206.97 258.873 206.97 259.492V288.936C206.97 289.555 206.468 290.057 205.849 290.057Z" fill="#48CFAD"/>
<path d="M210.696 296.615C210.077 296.615 209.575 296.113 209.575 295.494V252.928C209.575 252.309 210.077 251.807 210.696 251.807C211.315 251.807 211.817 252.309 211.817 252.928V295.494C211.817 296.113 211.315 296.615 210.696 296.615Z" fill="#48CFAD"/>
<path d="M220.39 288.264C219.771 288.264 219.269 287.762 219.269 287.143V261.279C219.269 260.66 219.771 260.158 220.39 260.158C221.009 260.158 221.511 260.66 221.511 261.279V287.143C221.511 287.762 221.009 288.264 220.39 288.264Z" fill="#48CFAD"/>
<path d="M216.664 249.203C216.664 248.583 216.164 248.081 215.546 248.081C214.928 248.081 214.428 248.583 214.428 249.203V299.22C214.428 299.839 214.928 300.341 215.546 300.341C216.164 300.341 216.664 299.839 216.664 299.22V249.203Z" fill="#48CFAD"/>
<path d="M347.076 304.142C346.457 304.142 345.955 303.64 345.955 303.021V245.401C345.955 244.782 346.457 244.28 347.076 244.28C347.695 244.28 348.197 244.782 348.197 245.401V303.021C348.197 303.64 347.695 304.142 347.076 304.142Z" fill="#48CFAD"/>
<path d="M351.923 290.057C351.304 290.057 350.802 289.555 350.802 288.936V259.492C350.802 258.873 351.304 258.371 351.923 258.371C352.542 258.371 353.044 258.873 353.044 259.492V288.936C353.044 289.555 352.542 290.057 351.923 290.057Z" fill="#48CFAD"/>
<path d="M356.77 296.615C356.151 296.615 355.648 296.113 355.648 295.494V252.928C355.648 252.309 356.151 251.807 356.77 251.807C357.389 251.807 357.891 252.309 357.891 252.928V295.494C357.891 296.113 357.389 296.615 356.77 296.615Z" fill="#48CFAD"/>
<path d="M366.463 288.264C365.844 288.264 365.342 287.762 365.342 287.143V261.279C365.342 260.66 365.844 260.158 366.463 260.158C367.083 260.158 367.585 260.66 367.585 261.279V287.143C367.585 287.762 367.083 288.264 366.463 288.264Z" fill="#48CFAD"/>
<path d="M361.617 300.347C360.998 300.347 360.496 299.844 360.496 299.225V249.203C360.496 248.584 360.998 248.081 361.617 248.081C362.236 248.081 362.738 248.584 362.738 249.203V299.225C362.738 299.844 362.236 300.347 361.617 300.347Z" fill="#48CFAD"/>
<path d="M371.013 304.142C370.394 304.142 369.892 303.64 369.892 303.021V245.401C369.892 244.782 370.394 244.28 371.013 244.28C371.632 244.28 372.134 244.782 372.134 245.401V303.021C372.134 303.64 371.632 304.142 371.013 304.142Z" fill="#48CFAD"/>
<path d="M375.86 290.057C375.241 290.057 374.739 289.555 374.739 288.936V259.492C374.739 258.873 375.241 258.371 375.86 258.371C376.479 258.371 376.981 258.873 376.981 259.492V288.936C376.981 289.555 376.479 290.057 375.86 290.057Z" fill="#48CFAD"/>
<path d="M380.707 296.615C380.088 296.615 379.585 296.113 379.585 295.494V252.928C379.585 252.309 380.088 251.807 380.707 251.807C381.326 251.807 381.828 252.309 381.828 252.928V295.494C381.828 296.113 381.326 296.615 380.707 296.615Z" fill="#48CFAD"/>
<path d="M390.401 288.264C389.782 288.264 389.279 287.762 389.279 287.143V261.279C389.279 260.66 389.782 260.158 390.401 260.158C391.02 260.158 391.522 260.66 391.522 261.279V287.143C391.522 287.762 391.02 288.264 390.401 288.264Z" fill="#48CFAD"/>
<path d="M385.554 300.347C384.935 300.347 384.433 299.844 384.433 299.225V249.203C384.433 248.584 384.935 248.081 385.554 248.081C386.173 248.081 386.675 248.584 386.675 249.203V299.225C386.675 299.844 386.173 300.347 385.554 300.347Z" fill="#48CFAD"/>
<path d="M396.065 245.407C396.065 244.788 395.564 244.286 394.946 244.286C394.329 244.286 393.828 244.788 393.828 245.407V303.021C393.828 303.64 394.329 304.142 394.946 304.142C395.564 304.142 396.065 303.64 396.065 303.021V245.407Z" fill="#48CFAD"/>
<path d="M399.791 290.057C399.172 290.057 398.669 289.555 398.669 288.936V259.492C398.669 258.873 399.172 258.371 399.791 258.371C400.41 258.371 400.912 258.873 400.912 259.492V288.936C400.912 289.555 400.41 290.057 399.791 290.057Z" fill="#48CFAD"/>
<path d="M404.637 296.615C404.018 296.615 403.516 296.113 403.516 295.494V252.928C403.516 252.309 404.018 251.807 404.637 251.807C405.256 251.807 405.759 252.309 405.759 252.928V295.494C405.759 296.113 405.256 296.615 404.637 296.615Z" fill="#48CFAD"/>
<path d="M414.331 288.264C413.712 288.264 413.21 287.762 413.21 287.143V261.279C413.21 260.66 413.712 260.158 414.331 260.158C414.95 260.158 415.452 260.66 415.452 261.279V287.143C415.452 287.762 414.95 288.264 414.331 288.264Z" fill="#48CFAD"/>
<path d="M409.485 300.347C408.866 300.347 408.363 299.844 408.363 299.225V249.203C408.363 248.584 408.866 248.081 409.485 248.081C410.104 248.081 410.606 248.584 410.606 249.203V299.225C410.606 299.844 410.104 300.347 409.485 300.347Z" fill="#48CFAD"/>
<path d="M418.88 304.142C418.261 304.142 417.759 303.64 417.759 303.021V245.401C417.759 244.782 418.261 244.28 418.88 244.28C419.499 244.28 420.002 244.782 420.002 245.401V303.021C420.002 303.64 419.499 304.142 418.88 304.142Z" fill="#48CFAD"/>
<path d="M423.728 290.057C423.109 290.057 422.606 289.555 422.606 288.936V259.492C422.606 258.873 423.109 258.371 423.728 258.371C424.347 258.371 424.849 258.873 424.849 259.492V288.936C424.849 289.555 424.347 290.057 423.728 290.057Z" fill="#48CFAD"/>
<path d="M428.574 296.615C427.955 296.615 427.453 296.113 427.453 295.494V252.928C427.453 252.309 427.955 251.807 428.574 251.807C429.193 251.807 429.696 252.309 429.696 252.928V295.494C429.696 296.113 429.193 296.615 428.574 296.615Z" fill="#48CFAD"/>
<path d="M438.268 288.264C437.649 288.264 437.147 287.762 437.147 287.143V261.279C437.147 260.66 437.649 260.158 438.268 260.158C438.887 260.158 439.389 260.66 439.389 261.279V287.143C439.389 287.762 438.887 288.264 438.268 288.264Z" fill="#48CFAD"/>
<path d="M434.543 249.203C434.543 248.583 434.042 248.081 433.424 248.081C432.807 248.081 432.306 248.583 432.306 249.203V299.22C432.306 299.839 432.807 300.341 433.424 300.341C434.042 300.341 434.543 299.839 434.543 299.22V249.203Z" fill="#48CFAD"/>
<path d="M442.817 304.142C442.198 304.142 441.696 303.64 441.696 303.021V245.401C441.696 244.782 442.198 244.28 442.817 244.28C443.437 244.28 443.939 244.782 443.939 245.401V303.021C443.939 303.64 443.437 304.142 442.817 304.142Z" fill="#48CFAD"/>
<path d="M447.665 290.057C447.046 290.057 446.543 289.555 446.543 288.936V259.492C446.543 258.873 447.046 258.371 447.665 258.371C448.284 258.371 448.786 258.873 448.786 259.492V288.936C448.786 289.555 448.284 290.057 447.665 290.057Z" fill="#48CFAD"/>
<path d="M452.511 296.615C451.892 296.615 451.39 296.113 451.39 295.494V252.928C451.39 252.309 451.892 251.807 452.511 251.807C453.13 251.807 453.633 252.309 453.633 252.928V295.494C453.633 296.113 453.13 296.615 452.511 296.615Z" fill="#48CFAD"/>
<path d="M462.205 288.264C461.586 288.264 461.084 287.762 461.084 287.143V261.279C461.084 260.66 461.586 260.158 462.205 260.158C462.824 260.158 463.326 260.66 463.326 261.279V287.143C463.326 287.762 462.824 288.264 462.205 288.264Z" fill="#48CFAD"/>
<path d="M457.359 300.347C456.74 300.347 456.237 299.844 456.237 299.225V249.203C456.237 248.584 456.74 248.081 457.359 248.081C457.978 248.081 458.48 248.584 458.48 249.203V299.225C458.48 299.844 457.978 300.347 457.359 300.347Z" fill="#48CFAD"/>
<path d="M466.754 304.142C466.135 304.142 465.633 303.64 465.633 303.021V245.401C465.633 244.782 466.135 244.28 466.754 244.28C467.373 244.28 467.875 244.782 467.875 245.401V303.021C467.875 303.64 467.373 304.142 466.754 304.142Z" fill="#48CFAD"/>
<path d="M471.601 290.057C470.982 290.057 470.48 289.555 470.48 288.936V259.492C470.48 258.873 470.982 258.371 471.601 258.371C472.22 258.371 472.722 258.873 472.722 259.492V288.936C472.722 289.555 472.22 290.057 471.601 290.057Z" fill="#48CFAD"/>
<path d="M476.448 296.615C475.829 296.615 475.327 296.113 475.327 295.494V252.928C475.327 252.309 475.829 251.807 476.448 251.807C477.067 251.807 477.569 252.309 477.569 252.928V295.494C477.569 296.113 477.067 296.615 476.448 296.615Z" fill="#48CFAD"/>
<path d="M486.136 288.264C485.517 288.264 485.015 287.762 485.015 287.143V261.279C485.015 260.66 485.517 260.158 486.136 260.158C486.755 260.158 487.257 260.66 487.257 261.279V287.143C487.257 287.762 486.755 288.264 486.136 288.264Z" fill="#48CFAD"/>
<path d="M481.295 300.347C480.676 300.347 480.174 299.844 480.174 299.225V249.203C480.174 248.584 480.676 248.081 481.295 248.081C481.914 248.081 482.416 248.584 482.416 249.203V299.225C482.416 299.844 481.914 300.347 481.295 300.347Z" fill="#48CFAD"/>
<path d="M486.364 315.787H199.437C198.941 315.787 198.543 315.384 198.543 314.893C198.543 314.403 198.946 314 199.437 314H486.358C486.854 314 487.252 314.403 487.252 314.893C487.252 315.384 486.849 315.787 486.358 315.787H486.364Z" fill="#48CFAD"/>
<g style="mix-blend-mode:multiply" opacity="0.5">
<path d="M298.834 155.943H207.829C203.77 155.943 200.477 159.236 200.477 163.295V281.811C200.477 285.87 203.77 289.164 207.829 289.164H278.028L306.187 257.489V163.295C306.187 159.236 302.893 155.943 298.834 155.943V155.943Z" fill="#BDBDBD"/>
</g>
<path d="M301.76 157.403C301.76 153.344 298.466 150.051 294.408 150.051H203.402C199.343 150.051 196.05 153.344 196.05 157.403V275.919C196.05 279.978 199.343 283.271 203.402 283.271H273.601L301.76 251.597V157.403V157.403Z" fill="#F4F3F2"/>
<path d="M301.76 251.591H280.953C276.895 251.591 273.601 254.885 273.601 258.943V283.271L301.76 251.597V251.591Z" fill="#DCDBDB"/>
<path d="M286.162 175.05H211.619C210.48 175.05 209.551 174.128 209.551 172.983C209.551 171.844 210.474 170.916 211.619 170.916H286.162C287.301 170.916 288.229 171.839 288.229 172.983C288.229 174.122 287.307 175.05 286.162 175.05Z" fill="#B6B5BA"/>
<path d="M286.162 206.322H211.619C210.48 206.322 209.551 205.399 209.551 204.255C209.551 203.116 210.474 202.187 211.619 202.187H286.162C287.301 202.187 288.229 203.11 288.229 204.255C288.229 205.393 287.307 206.322 286.162 206.322Z" fill="#B6B5BA"/>
<path d="M286.162 190.683H211.619C210.48 190.683 209.551 189.76 209.551 188.616C209.551 187.477 210.474 186.549 211.619 186.549H286.162C287.301 186.549 288.229 187.471 288.229 188.616C288.229 189.755 287.307 190.683 286.162 190.683Z" fill="#B6B5BA"/>
<path d="M286.162 219.701H211.619C210.48 219.701 209.551 218.778 209.551 217.633C209.551 216.495 210.474 215.566 211.619 215.566H286.162C287.301 215.566 288.229 216.489 288.229 217.633C288.229 218.772 287.307 219.701 286.162 219.701Z" fill="#B6B5BA"/>
<path d="M271.954 233.079H225.821C224.682 233.079 223.753 232.157 223.753 231.012C223.753 229.873 224.676 228.945 225.821 228.945H271.954C273.093 228.945 274.021 229.867 274.021 231.012C274.021 232.151 273.099 233.079 271.954 233.079Z" fill="#B6B5BA"/>
<g style="mix-blend-mode:multiply" opacity="0.5">
<path d="M624.163 406.553L502.213 316.774L489.085 334.608L610.352 423.885L474.34 359.351L471.099 366.183L431.348 449.965C429.013 454.894 431.109 460.78 436.038 463.116L555.015 519.568C559.944 521.904 565.83 519.808 568.166 514.879L601.669 444.277L611.164 424.271L611.141 424.259L624.175 406.559L624.163 406.553Z" fill="#BDBDBD"/>
</g>
<path d="M504.531 333.744H174.858V339.128H504.531V333.744Z" fill="#B6B5BA"/>
<path d="M301.182 333.744H174.858V339.128H301.182V333.744Z" fill="#48CFAD"/>
<path d="M467.549 360.792L604.368 425.7L561.769 515.493C561.006 517.102 559.084 517.787 557.475 517.024L426.476 454.877C424.866 454.113 424.181 452.192 424.945 450.583L467.543 360.789L467.549 360.792Z" fill="#48CFAD"/>
<path d="M607.608 418.869L470.789 353.961L461.297 373.968L598.116 438.876L607.608 418.869Z" fill="#EFEBE0"/>
<path d="M472.886 342.176L475.152 398.833" stroke="#454546" stroke-width="4" stroke-miterlimit="10"/>
<path d="M489.803 349.733L492.069 406.389" stroke="#454546" stroke-width="4" stroke-miterlimit="10"/>
<path d="M506.721 357.295L508.987 413.952" stroke="#454546" stroke-width="4" stroke-miterlimit="10"/>
<path d="M523.639 364.858L525.904 421.514" stroke="#454546" stroke-width="4" stroke-miterlimit="10"/>
<path d="M540.556 372.42L542.822 429.071" stroke="#454546" stroke-width="4" stroke-miterlimit="10"/>
<path d="M557.474 379.977L559.739 436.633" stroke="#454546" stroke-width="4" stroke-miterlimit="10"/>
<path d="M574.391 387.539L576.657 444.196" stroke="#454546" stroke-width="4" stroke-miterlimit="10"/>
<path d="M591.309 395.101L593.58 451.752" stroke="#454546" stroke-width="4" stroke-miterlimit="10"/>
<path d="M485.492 329.241L607.444 419.021L620.572 401.188L498.621 311.409L485.492 329.241Z" fill="#EFEBE0"/>
<path d="M629.974 393.723L578.993 418.548" stroke="#454546" stroke-width="4" stroke-miterlimit="10"/>
<path d="M615.304 382.4L564.324 407.224" stroke="#454546" stroke-width="4" stroke-miterlimit="10"/>
<path d="M600.635 371.077L549.654 395.901" stroke="#454546" stroke-width="4" stroke-miterlimit="10"/>
<path d="M585.966 359.754L534.985 384.578" stroke="#454546" stroke-width="4" stroke-miterlimit="10"/>
<path d="M571.296 348.431L520.316 373.255" stroke="#454546" stroke-width="4" stroke-miterlimit="10"/>
<path d="M556.627 337.107L505.646 361.932" stroke="#454546" stroke-width="4" stroke-miterlimit="10"/>
<path d="M541.958 325.784L490.983 350.609" stroke="#454546" stroke-width="4" stroke-miterlimit="10"/>
<path d="M527.289 314.461L476.314 339.286" stroke="#454546" stroke-width="4" stroke-miterlimit="10"/>
<path d="M272.246 157.123H222.422L219.385 155.476L222.422 151.838L219.385 150.64L222.422 148.316L219.385 146.559H275.283L272.246 148.199L275.283 150.313L272.246 152.778L275.283 155.213L272.246 157.123Z" fill="#FAB317"/>
<path d="M499.743 46.3262V66.0818C499.743 68.1666 502.114 69.3637 503.79 68.1315L516.269 58.9516C517.589 57.9763 517.659 56.0259 516.409 54.9631L503.93 44.3874C502.277 42.9859 499.743 44.1596 499.743 46.3262Z" fill="white"/>
<path d="M462.118 398.833C500.274 415.803 538.524 433.667 576.021 452.056C537.864 435.091 499.614 417.216 462.118 398.833V398.833Z" fill="white"/>
<path d="M452.243 422.986C490.399 439.956 528.649 457.819 566.146 476.209C527.989 459.244 489.739 441.369 452.243 422.986V422.986Z" fill="white"/>
<path d="M468.208 461.68C471.403 453.136 475.345 444.879 479.987 437.03C476.799 445.574 472.845 453.831 468.208 461.68Z" fill="white"/>
<path d="M525.005 487.865C528.2 479.321 532.141 471.064 536.784 463.215C533.596 471.759 529.642 480.016 525.005 487.865Z" fill="white"/>
<g style="mix-blend-mode:multiply" opacity="0.5">
<path d="M503.463 470.573L502.575 470.106C500.969 469.259 498.989 469.878 498.143 471.484L466.673 531.289L465.002 542.057L467.163 540.188L473.371 534.816L504.841 475.012C505.682 473.406 505.069 471.426 503.463 470.579V470.573Z" fill="#BDBDBD"/>
</g>
<path d="M498.774 467.302L503.575 469.829C504.097 470.104 504.297 470.751 504.023 471.272L471.517 533.03L464.819 529.505L497.325 467.747C497.6 467.225 498.247 467.025 498.769 467.299L498.774 467.302Z" fill="#F04F29"/>
<path d="M500.38 478.198L493.683 474.673L464.819 529.511L471.516 533.036L500.38 478.198Z" fill="#F89624"/>
<path d="M464.88 529.496L463.209 540.264L471.578 533.023L464.88 529.496Z" fill="#FED8BA"/>
<path d="M463.209 540.264L463.665 537.338L465.37 538.39L463.209 540.264Z" fill="#454546"/>
<path d="M496.7 480.285C489.424 494.65 480.997 510.342 473.043 524.345C480.326 509.98 488.746 494.288 496.7 480.285Z" fill="#F58023"/>
<path d="M493.786 480.285C488.595 490.779 483.024 501.156 477.143 511.282C482.335 500.782 487.906 490.405 493.786 480.285Z" fill="#F58023"/>
<g style="mix-blend-mode:multiply" opacity="0.5">
<path d="M240.928 42.0515C234.726 12.421 198.941 1.57668 182.473 32.1299C166.91 61.0071 189.311 86.5966 192.33 92.9269C199.221 107.363 198.199 111.999 198.199 111.999V118.89C198.199 125.36 203.443 130.604 209.913 130.604C216.384 130.604 221.628 125.36 221.628 118.89V111.999C222.661 84.436 247.124 71.6879 240.922 42.0574L240.928 42.0515Z" fill="#BDBDBD"/>
</g>
<path d="M47.0215 490.195C47.0215 490.195 60.9608 576.108 85.0086 627.153" stroke="white" stroke-width="2" stroke-linecap="round" stroke-linejoin="round"/>
<path d="M31.3359 527.09C31.3359 527.09 53.2114 544.767 61.5154 558.373" stroke="white" stroke-width="2" stroke-linecap="round" stroke-linejoin="round"/>
<path d="M75.0052 521.274C75.0052 521.274 66.7946 547.26 63.2148 564.189" stroke="white" stroke-width="2" stroke-linecap="round" stroke-linejoin="round"/>
<path d="M31.5288 563.185C31.5288 563.185 61.8776 581.93 73.9541 599.648C73.9541 599.648 78.5149 568.009 92.6528 553.421" stroke="white" stroke-width="2" stroke-linecap="round" stroke-linejoin="round"/>
<g style="mix-blend-mode:multiply" opacity="0.5">
<path d="M101.069 318.608L22.1964 324.732C21.2317 324.807 20.5104 325.65 20.5853 326.614L28.2259 425.015C28.3008 425.979 29.1436 426.7 30.1082 426.626L108.981 420.501C109.946 420.426 110.667 419.584 110.592 418.619L102.951 320.219C102.876 319.254 102.034 318.533 101.069 318.608Z" fill="#BDBDBD"/>
</g>
<path d="M97.8138 315.36L18.941 321.484C17.9763 321.559 17.2551 322.402 17.33 323.366L24.9706 421.766C25.0455 422.731 25.8882 423.452 26.8528 423.377L105.726 417.253C106.69 417.178 107.412 416.336 107.337 415.371L99.696 316.971C99.6211 316.006 98.7784 315.285 97.8138 315.36Z" fill="#F89624"/>
<g style="mix-blend-mode:multiply" opacity="0.5">
<path d="M112.588 302.825L28.5447 282.942C27.6031 282.72 26.6593 283.302 26.4365 284.244L1.6483 389.024C1.42555 389.965 2.00826 390.909 2.94982 391.132L86.9931 411.014C87.9346 411.237 88.8785 410.654 89.1012 409.713L113.889 304.933C114.112 303.991 113.53 303.048 112.588 302.825Z" fill="#BDBDBD"/>
</g>
<g style="mix-blend-mode:multiply">
<path d="M110.957 299.576L26.9138 279.694C25.9723 279.471 25.0284 280.054 24.8057 280.995L0.0174423 385.775C-0.205307 386.717 0.377405 387.661 1.31897 387.883L85.3622 407.766C86.3038 407.989 87.2476 407.406 87.4704 406.464L112.259 301.685C112.481 300.743 111.899 299.799 110.957 299.576Z" fill="#473E99"/>
</g>
<path d="M91.1442 312.41L38.8679 300.043C37.9264 299.82 36.9825 300.403 36.7598 301.344L32.1498 320.831C31.927 321.772 32.5097 322.716 33.4513 322.939L85.7276 335.306C86.6691 335.529 87.613 334.946 87.8358 334.005L92.4457 314.518C92.6685 313.577 92.0858 312.633 91.1442 312.41Z" fill="white"/>
<g style="mix-blend-mode:multiply" opacity="0.74">
<g style="mix-blend-mode:multiply">
<path d="M4.3916 388.608L48.598 399.061L4.3916 388.608Z" fill="#BDBDBD"/>
</g>
</g>
<path d="M194.619 108.42C194.619 108.42 195.641 103.777 188.751 89.3471C185.731 83.0169 163.33 57.4274 178.893 28.5502C195.355 -1.9972 231.147 8.84125 237.348 38.4718C243.55 68.1024 219.088 80.8504 218.054 108.414H194.625L194.619 108.42Z" fill="#FBBF13"/>
<g style="mix-blend-mode:multiply" opacity="0.47">
<path d="M237.348 38.4718C233.453 19.8724 217.902 8.68361 202.789 10.4822C215.701 11.9538 227.695 22.4594 231.047 38.4718C237.249 68.1024 212.787 80.8504 211.753 108.414H218.054C219.088 80.8504 243.55 68.1024 237.348 38.4718V38.4718Z" fill="#FBBF13"/>
</g>
<path d="M202.66 110.942C202.66 110.942 204.728 77.405 196.459 68.2192C188.19 59.0333 185.895 67.0687 190.485 70.0587C195.081 73.0427 206.147 67.7637 205.896 53.5207C205.644 39.2777 199.676 44.7903 199.676 50.303C199.676 55.8157 206.339 67.5301 215.987 66.3797C225.634 65.2292 222.188 55.7631 215.987 59.3487C209.785 62.9342 207.256 92.7925 210.702 110.942" stroke="white" stroke-miterlimit="10"/>
<g style="mix-blend-mode:multiply">
<path d="M194.62 108.42H218.048V123.2C218.048 125.308 216.337 127.025 214.223 127.025H198.439C196.331 127.025 194.614 125.314 194.614 123.2V108.42H194.62Z" fill="#473E99"/>
</g>
<path d="M196.687 112.32C202.666 114.102 209.032 113.553 215.064 112.32C214.328 112.572 213.581 112.811 212.833 113.033C207.583 114.382 201.714 114.598 196.692 112.32H196.687Z" fill="#454546"/>
<path d="M196.687 117.004C202.666 118.785 209.032 118.236 215.064 117.004C214.328 117.255 213.581 117.494 212.833 117.716C207.583 119.065 201.714 119.281 196.692 117.004H196.687Z" fill="#454546"/>
<g style="mix-blend-mode:screen" opacity="0.53">
<g style="mix-blend-mode:screen">
<path d="M182.461 46.2619C183.828 34.968 190.993 22.29 202.789 19.6096C201.154 20.4505 199.595 21.309 198.141 22.3893C190.24 28.1648 185.778 37.263 182.461 46.2619Z" fill="white"/>
</g>
</g>
<g style="mix-blend-mode:multiply" opacity="0.39">
<path d="M342.708 368.794C342.708 365.769 340.255 363.322 337.236 363.322C334.217 363.322 331.764 365.774 331.764 368.794C331.764 371.813 334.217 374.265 337.236 374.265C340.255 374.265 342.708 371.813 342.708 368.794Z" fill="#B6B5BA"/>
</g>
<path d="M417.012 446.345H226.405C224.737 446.345 223.386 447.696 223.386 449.364V544.305C223.386 545.973 224.737 547.324 226.405 547.324H417.012C418.68 547.324 420.031 545.973 420.031 544.305V449.364C420.031 447.696 418.68 446.345 417.012 446.345Z" fill="#303030"/>
<path d="M415.225 444.552H224.618C222.95 444.552 221.599 445.903 221.599 447.571V542.512C221.599 544.18 222.95 545.532 224.618 545.532H415.225C416.892 545.532 418.244 544.18 418.244 542.512V447.571C418.244 445.903 416.892 444.552 415.225 444.552Z" fill="#212121"/>
<path d="M395.65 457.837H234.218V532.24H395.65V457.837Z" fill="#F4F3F2"/>
<path d="M411.932 495.042C411.932 491.923 409.403 489.395 406.285 489.395C403.166 489.395 400.638 491.923 400.638 495.042C400.638 498.16 403.166 500.689 406.285 500.689C409.403 500.689 411.932 498.16 411.932 495.042Z" fill="#FDFEFE"/>
<path d="M314.94 522.611C330.166 522.611 342.509 510.268 342.509 495.042C342.509 479.816 330.166 467.473 314.94 467.473C299.714 467.473 287.371 479.816 287.371 495.042C287.371 510.268 299.714 522.611 314.94 522.611Z" fill="#48CFAD"/>
<path d="M306.654 483.281V506.803C306.654 509.285 309.474 510.71 311.472 509.238L326.328 498.312C327.904 497.156 327.98 494.831 326.491 493.564L311.635 480.968C309.667 479.304 306.654 480.699 306.654 483.275V483.281Z" fill="white"/>
<path d="M176.826 603.742C176.826 603.742 191.162 582.818 191.162 578.94C191.162 575.063 189.807 538.448 191.939 534.57C194.07 530.693 206.082 516.748 207.63 511.323C209.177 505.898 211.7 494.662 221.581 495.047V555.494C221.581 555.494 222.55 560.534 227.584 557.433C232.624 554.332 235.526 545.421 235.719 542.127C235.912 538.833 237.266 520.812 241.921 517.326C246.569 513.84 250.639 515.971 251.416 526.045C252.193 536.118 253.355 549.1 251.416 554.139C249.477 559.179 244.245 571.577 235.333 583.589C226.422 595.601 223.514 596.956 218.48 600.442C213.44 603.928 204.144 616.717 201.428 621.95L176.82 603.736L176.826 603.742Z" fill="#FBB680"/>
<path d="M243.094 515.691C242.797 515.691 242.545 515.913 242.516 516.21C242.329 518.132 241.734 524.731 242.248 525.852C242.843 527.166 248.619 527.218 249.816 526.366C250.844 525.636 250.271 518.301 250.096 516.281C250.073 515.983 249.828 515.767 249.53 515.761L243.1 515.691H243.094Z" fill="white"/>
<g style="mix-blend-mode:multiply">
<path d="M174.227 598.673L209.271 616.273L192.716 654.15H136.047L174.227 598.673Z" fill="#473E99"/>
</g>
<path d="M421.941 608.267C421.941 608.267 411.173 590.456 410.992 588.085C410.81 585.714 411.138 566.677 408.953 561.573C406.769 556.475 401.666 539.347 391.102 542.81C391.102 542.81 388.188 540.077 386.004 539.715C383.819 539.353 379.994 541.718 378.716 539.715C377.443 537.712 375.072 537.163 371.977 538.074C368.882 538.985 367.971 539.534 364.87 538.985C361.775 538.436 357.401 538.255 355.941 539.896C354.481 541.537 349.745 533.519 348.11 529.875C346.469 526.231 336.267 500.911 330.258 501.459C324.249 502.008 330.988 521.863 334.994 534.249C339 546.635 342.282 551.009 343.193 559.932C344.104 568.861 345.745 578.695 348.291 583.25C350.843 587.805 371.971 607.841 376.707 610.031C381.443 612.215 392.918 626.242 392.918 626.242L421.941 608.267Z" fill="#FBB680"/>
<path d="M328.903 500.689C328.343 500.823 328.01 501.401 328.197 501.95C328.857 503.918 330.369 508.134 331.514 508.864C333.014 509.822 337.342 508 336.968 507.433C336.658 506.972 333.82 502.189 332.798 500.461C332.577 500.087 332.144 499.912 331.724 500.011L328.903 500.689V500.689Z" fill="white"/>
<g style="mix-blend-mode:multiply">
<path d="M418.466 596.868L383.965 618.428L404.725 655.96L463.257 650.482L418.466 596.868Z" fill="#473E99"/>
</g>
<path d="M566.186 488.659C566.186 488.659 524.316 573.083 513.314 633.179" stroke="white" stroke-width="2" stroke-linecap="round" stroke-linejoin="round"/>
<path d="M529.122 511.258C529.122 511.258 537.239 540.609 535.978 557.818" stroke="white" stroke-width="2" stroke-linecap="round" stroke-linejoin="round"/>
<path d="M571.238 533.659C571.238 533.659 547.634 551.365 533.812 564.014" stroke="white" stroke-width="2" stroke-linecap="round" stroke-linejoin="round"/>
<path d="M506.54 543.161C506.54 543.161 521.443 578.794 520.912 602.001C520.912 602.001 544.872 577.019 566.508 573.083" stroke="white" stroke-width="2" stroke-linecap="round" stroke-linejoin="round"/>
<path d="M241.847 16.4249V151.366C241.847 154.916 238.93 157.772 235.345 157.772H3.52118C-0.0825954 157.772 -2.98086 154.897 -2.98086 151.366V16.4061C-2.99993 12.8743 -0.0825954 10 3.52118 10H235.345C238.949 10 241.847 12.8743 241.847 16.4249Z" fill="white"/>
<path d="M99.2981 92.8656C99.2981 103.818 95.0841 113.812 88.1816 121.345C80.2877 129.968 68.8661 135.379 56.1481 135.379C32.3135 135.379 12.998 116.348 12.998 92.8656C12.998 87.0419 14.1802 81.5 16.3349 76.4278L56.1481 92.8656L54.1078 50.409C54.7752 50.3714 55.4616 50.3526 56.1481 50.3526C79.9826 50.3526 99.2981 69.383 99.2981 92.8656V92.8656Z" fill="#5C4DA0"/>
<path d="M49.8173 43.4017C36.9276 43.9841 25.5252 50.146 18.0126 59.5014C15.591 62.5072 13.5889 65.8512 12.0635 69.4393L51.8576 85.8584L49.8173 43.4017Z" fill="#675FA6"/>
<path d="M203.159 63.5968H197.229V69.4393H203.159V63.5968Z" fill="#3E3D98"/>
<path d="M228.385 65.776H207.144C207.113 65.776 207.087 65.8013 207.087 65.8324V67.185C207.087 67.2161 207.113 67.2413 207.144 67.2413H228.385C228.417 67.2413 228.443 67.2161 228.443 67.185V65.8324C228.443 65.8013 228.417 65.776 228.385 65.776Z" fill="#E8D3E7"/>
<path d="M203.159 53.1893H197.229V59.0318H203.159V53.1893Z" fill="#3E3D98"/>
<path d="M228.385 55.3685H207.144C207.113 55.3685 207.087 55.3938 207.087 55.4249V56.7775C207.087 56.8086 207.113 56.8338 207.144 56.8338H228.385C228.417 56.8338 228.443 56.8086 228.443 56.7775V55.4249C228.443 55.3938 228.417 55.3685 228.385 55.3685Z" fill="#E8D3E7"/>
<path d="M203.159 73.9856H197.229V79.8281H203.159V73.9856Z" fill="#675FA6"/>
<path d="M228.385 76.1835H207.144C207.113 76.1835 207.087 76.2088 207.087 76.2399V77.5925C207.087 77.6236 207.113 77.6488 207.144 77.6488H228.385C228.417 77.6488 228.443 77.6236 228.443 77.5925V76.2399C228.443 76.2088 228.417 76.1835 228.385 76.1835Z" fill="#E8D3E7"/>
<path d="M227.699 98.1258H197.973C197.572 98.1258 197.229 97.8064 197.229 97.3931C197.229 96.9986 197.553 96.6605 197.973 96.6605H227.699C228.099 96.6605 228.443 96.9798 228.443 97.3931C228.443 97.7876 228.119 98.1258 227.699 98.1258Z" fill="#E8D3E7"/>
<path d="M227.699 104.119H197.973C197.572 104.119 197.229 103.799 197.229 103.386C197.229 102.991 197.553 102.653 197.973 102.653H227.699C228.099 102.653 228.443 102.973 228.443 103.386C228.443 103.78 228.119 104.119 227.699 104.119Z" fill="#E8D3E7"/>
<path d="M227.699 110.13H197.973C197.572 110.13 197.229 109.811 197.229 109.397C197.229 109.003 197.553 108.665 197.973 108.665H227.699C228.099 108.665 228.443 108.984 228.443 109.397C228.443 109.792 228.119 110.13 227.699 110.13Z" fill="#E8D3E7"/>
<path d="M227.699 116.123H197.973C197.572 116.123 197.229 115.804 197.229 115.39C197.229 114.996 197.553 114.658 197.973 114.658H227.699C228.099 114.658 228.443 114.977 228.443 115.39C228.443 115.785 228.119 116.123 227.699 116.123Z" fill="#E8D3E7"/>
<path d="M227.699 122.134H197.973C197.572 122.134 197.229 121.815 197.229 121.402C197.229 121.007 197.553 120.669 197.973 120.669H227.699C228.099 120.669 228.443 120.988 228.443 121.402C228.443 121.796 228.119 122.134 227.699 122.134Z" fill="#E8D3E7"/>
<path d="M227.699 128.127H197.973C197.572 128.127 197.229 127.808 197.229 127.395C197.229 127 197.553 126.662 197.973 126.662H227.699C228.099 126.662 228.443 126.981 228.443 127.395C228.443 127.789 228.119 128.127 227.699 128.127Z" fill="#E8D3E7"/>
<path d="M227.699 134.139H197.973C197.572 134.139 197.229 133.819 197.229 133.406C197.229 133.012 197.553 132.673 197.973 132.673H227.699C228.099 132.673 228.443 132.993 228.443 133.406C228.443 133.801 228.119 134.139 227.699 134.139Z" fill="#E8D3E7"/>
<path d="M241.847 16.4249V27.6778H-3V16.4061C-3 12.8743 -0.0826596 10 3.52112 10H235.345C238.949 10 241.847 12.8743 241.847 16.4249Z" fill="#28100C"/>
<path d="M216.048 18.8482C216.048 20.4826 214.695 21.8165 213.036 21.8165C211.377 21.8165 210.023 20.4826 210.023 18.8482C210.023 17.2139 211.377 15.88 213.036 15.88C214.695 15.88 216.048 17.2139 216.048 18.8482Z" fill="#675FA6"/>
<path d="M225.83 18.8482C225.83 20.4826 224.476 21.8165 222.817 21.8165C221.158 21.8165 219.805 20.4826 219.805 18.8482C219.805 17.2139 221.158 15.88 222.817 15.88C224.476 15.88 225.83 17.2139 225.83 18.8482Z" fill="#5C4DA0"/>
<path d="M235.192 18.8482C235.192 20.4826 233.839 21.8165 232.18 21.8165C230.521 21.8165 229.167 20.4826 229.167 18.8482C229.167 17.2139 230.521 15.88 232.18 15.88C233.839 15.88 235.192 17.2139 235.192 18.8482Z" fill="#3E3D98"/>
<path d="M99.2977 92.8657C99.2977 103.818 95.0837 113.812 88.1812 121.345L56.1476 92.8657L54.1074 50.409C54.7748 50.3714 55.4612 50.3526 56.1476 50.3526C79.9822 50.3526 99.2977 69.383 99.2977 92.8657V92.8657Z" fill="#3E3D98"/>
<path d="M155.032 82.12H141.304V140.113H155.032V82.12Z" fill="#5C4DA0"/>
<path d="M141.304 124.821C146.166 123.337 150.742 120.688 155.032 117.832V140.113H141.304V124.821V124.821Z" fill="#3E3D98"/>
<path d="M132.571 98.2385H118.842V140.113H132.571V98.2385Z" fill="#5C4DA0"/>
<path d="M130.035 125.798C130.893 125.929 131.732 126.004 132.571 126.023V140.113H118.842V126.155C121.264 125.366 124.83 125.046 130.035 125.798V125.798Z" fill="#3E3D98"/>
<path d="M177.475 64.7991H163.747V140.113H177.475V64.7991Z" fill="#5C4DA0"/>
<path d="M177.494 106.072V140.113H163.766V111.858C168.647 108.59 173.204 106.053 177.494 106.072V106.072Z" fill="#3E3D98"/>
<path d="M176.941 42.8381L164.547 45.4494L167.884 48.6618L148.912 67.7298L142.257 61.2861L118.709 84.9379C117.813 85.8396 117.832 87.2861 118.747 88.1691C119.662 89.052 121.13 89.0332 122.026 88.1315L142.333 67.7486L148.988 74.1922L171.221 51.8555L174.558 55.0679L176.979 42.8006L176.941 42.8381Z" fill="#5C4DA0"/>
<path d="M130.874 431.749V203.159C130.874 199.665 127.995 196.828 124.448 196.828H7.02979C3.48322 196.828 0.604004 199.665 0.604004 203.159V431.749C0.604004 438.812 6.41962 444.561 13.6081 444.561H117.889C125.058 444.561 130.893 438.831 130.893 431.749H130.874Z" fill="white"/>
<path d="M111.367 370.431H24.5906C23.008 370.431 21.7305 369.172 21.7305 367.613C21.7305 366.054 23.008 364.795 24.5906 364.795H111.367C112.95 364.795 114.227 366.054 114.227 367.613C114.227 369.172 112.95 370.431 111.367 370.431Z" fill="#E8D3E7"/>
<path d="M111.367 388.315H24.5906C23.008 388.315 21.7305 387.056 21.7305 385.497C21.7305 383.938 23.008 382.679 24.5906 382.679H111.367C112.95 382.679 114.227 383.938 114.227 385.497C114.227 387.056 112.95 388.315 111.367 388.315Z" fill="#E8D3E7"/>
<path d="M111.367 406.2H24.5906C23.008 406.2 21.7305 404.941 21.7305 403.382C21.7305 401.822 23.008 400.564 24.5906 400.564H111.367C112.95 400.564 114.227 401.822 114.227 403.382C114.227 404.941 112.95 406.2 111.367 406.2Z" fill="#E8D3E7"/>
<path d="M111.367 424.084H24.5906C23.008 424.084 21.7305 422.825 21.7305 421.266C21.7305 419.707 23.008 418.448 24.5906 418.448H111.367C112.95 418.448 114.227 419.707 114.227 421.266C114.227 422.825 112.95 424.084 111.367 424.084Z" fill="#E8D3E7"/>
<path d="M130.874 203.159V220.705H0.604004V203.159C0.604004 199.665 3.48322 196.828 7.02979 196.828H124.448C127.995 196.828 130.874 199.665 130.874 203.159Z" fill="#28100C"/>
<path d="M99.3357 207.611C99.3357 209.922 97.448 211.782 95.1026 211.782C92.7573 211.782 90.8696 209.922 90.8696 207.611C90.8696 205.301 92.7573 203.441 95.1026 203.441C97.448 203.441 99.3357 205.301 99.3357 207.611Z" fill="#675FA6"/>
<path d="M113.065 207.611C113.065 209.922 111.177 211.782 108.832 211.782C106.486 211.782 104.599 209.922 104.599 207.611C104.599 205.301 106.486 203.441 108.832 203.441C111.177 203.441 113.065 205.301 113.065 207.611Z" fill="#5C4DA0"/>
<path d="M126.202 207.611C126.202 209.922 124.314 211.782 121.969 211.782C119.624 211.782 117.736 209.922 117.736 207.611C117.736 205.301 119.624 203.441 121.969 203.441C124.314 203.441 126.202 205.301 126.202 207.611Z" fill="#3E3D98"/>
<path d="M41.0467 318.543H26.4028V353.429H41.0467V318.543Z" fill="#5C4DA0"/>
<path d="M62.6503 293.765H48.0063V353.411H62.6503V293.765Z" fill="#3E3D98"/>
<path d="M86.58 275.486H71.936V353.429H86.58V275.486Z" fill="#675FA6"/>
<path d="M110.033 254.032H95.3892V353.41H110.033V254.032Z" fill="#5C4DA0"/>
<path d="M83.0332 238.759L93.1772 242.422L92.014 230.699L83.0332 238.759Z" fill="#E8D3E7"/>
<path d="M22.36 301.598C21.9215 301.598 21.502 301.335 21.3304 300.903C21.1207 300.34 21.4067 299.72 21.9787 299.513C22.4173 299.344 66.5206 282.699 88.0289 237.97C88.2958 237.425 88.9441 237.199 89.4971 237.462C90.0501 237.725 90.2789 238.364 90.0119 238.909C68.1033 284.465 23.199 301.392 22.7605 301.561C22.627 301.598 22.5126 301.636 22.3791 301.636L22.36 301.598Z" fill="#E8D3E7"/>
<path d="M288.429 18.8295V54.5044C288.429 59.2197 292.319 63.052 297.105 63.052H362.85L382.7 70.0593C384.74 70.7731 386.685 68.8006 385.903 66.8281L378.39 47.7226V18.8295C378.39 14.1142 374.5 10.2818 369.714 10.2818H297.086C292.3 10.2818 288.41 14.1142 288.41 18.8295H288.429Z" fill="#5C4DA0"/>
<path d="M345.537 37.6907C345.537 41.1098 348.34 43.8714 351.81 43.8714C355.281 43.8714 358.084 41.1098 358.084 37.6907C358.084 34.2717 355.281 31.5101 351.81 31.5101C348.34 31.5101 345.537 34.2717 345.537 37.6907V37.6907Z" fill="#4A429A"/>
<path d="M325.687 37.6907C325.687 41.1098 328.49 43.8714 331.96 43.8714C335.431 43.8714 338.233 41.1098 338.233 37.6907C338.233 34.2717 335.431 31.5101 331.96 31.5101C328.49 31.5101 325.687 34.2717 325.687 37.6907V37.6907Z" fill="#4A429A"/>
<path d="M305.838 37.6907C305.838 41.1098 308.641 43.8714 312.111 43.8714C315.581 43.8714 318.384 41.1098 318.384 37.6907C318.384 34.2717 315.581 31.5101 312.111 31.5101C308.641 31.5101 305.838 34.2717 305.838 37.6907V37.6907Z" fill="#4A429A"/>
<path d="M502.1 21.5723H470.791C468.78 21.5723 467.149 23.1787 467.149 25.1604V56.0072C467.149 57.9889 468.78 59.5954 470.791 59.5954H502.1C504.112 59.5954 505.742 57.9889 505.742 56.0072V25.1604C505.742 23.1787 504.112 21.5723 502.1 21.5723Z" fill="#675FA6"/>
<path d="M497.353 32.7688C497.296 32.5058 497.22 32.2428 497.162 31.9798C496.934 31.0593 496.476 30.2515 495.847 29.5188C495.389 29.0116 494.874 28.5607 494.283 28.2226C493.463 27.7529 492.548 27.9596 491.938 28.6734C490.87 29.9509 489.783 31.2283 488.734 32.5246C488.086 33.3136 488.182 34.4032 489.001 35.0983C489.573 35.6055 490.184 36.0752 490.794 36.5636C490.87 36.62 490.965 36.6763 491.023 36.7139C489.593 40.4899 487.171 43.4205 483.701 45.5246C483.281 45.1864 482.843 44.8107 482.404 44.4538C482.175 44.2659 481.946 44.0781 481.718 43.909C481.012 43.383 480.211 43.3266 479.487 43.7963C479.258 43.9466 479.067 44.172 478.896 44.3786C477.923 45.5434 476.97 46.7081 475.997 47.8541C475.692 48.211 475.502 48.6243 475.425 49.094L475.482 49.6012C475.654 49.883 475.768 50.2399 475.997 50.4653C476.569 51.0289 477.199 51.5174 477.942 51.8555C478.819 52.25 479.735 52.4755 480.688 52.4003C481.317 52.344 481.946 52.2125 482.557 52.0434C484.12 51.6113 485.569 50.8786 486.904 49.9769C488.239 49.094 489.459 48.0607 490.565 46.9148C492.071 45.3743 493.406 43.7023 494.626 41.9177C495.58 40.5275 496.4 39.0622 496.953 37.4466C497.22 36.6387 497.41 35.8122 497.467 34.948C497.487 34.6098 497.506 34.2529 497.506 33.9148L497.391 32.7312L497.353 32.7688Z" fill="white"/>
<path d="M558.941 20.896H526.278C524.477 20.896 523.018 22.3342 523.018 24.1084V56.289C523.018 58.0632 524.477 59.5015 526.278 59.5015H558.941C560.742 59.5015 562.201 58.0632 562.201 56.289V24.1084C562.201 22.3342 560.742 20.896 558.941 20.896Z" fill="#5C4DA0"/>
<path d="M555.109 39.4755C555.109 44.2847 552.363 46.7833 549.102 46.7833C547.176 46.7833 545.784 46.0506 545.06 44.5853C544.335 45.9755 543.115 46.7833 541.17 46.7833C538.405 46.7833 535.755 44.3975 535.755 40.5087C535.755 36.62 538.329 34.2529 541.17 34.2529C542.524 34.2529 543.573 34.685 544.316 35.4928V34.4784H549.236V41.6923C549.236 42.7443 549.674 43.0824 550.227 43.0824C550.952 43.0824 551.524 42.3685 551.524 39.5506C551.524 34.9856 548.073 31.7732 542.81 31.7732C537.547 31.7732 534.039 35.3989 534.039 40.1894C534.039 44.9798 537.49 48.6619 542.715 48.6619C544.412 48.6619 546.147 48.3425 547.882 47.5535L548.95 50.6532C547.424 51.3859 544.984 51.8555 542.715 51.8555C535.011 51.8555 530.073 46.7833 530.073 40.1894C530.073 33.5954 535.011 28.5795 542.81 28.5795C550.17 28.5795 555.109 33.4451 555.109 39.4943V39.4755ZM544.412 40.5087C544.412 39.0058 543.611 38.2168 542.562 38.2168C541.513 38.2168 540.751 39.0058 540.751 40.5087C540.751 42.0116 541.513 42.8194 542.562 42.8194C543.611 42.8194 544.412 42.0304 544.412 40.5087Z" fill="white"/>
<path d="M611.739 20.896H579.076C577.276 20.896 575.816 22.3342 575.816 24.1084V56.289C575.816 58.0632 577.276 59.5015 579.076 59.5015H611.739C613.54 59.5015 615 58.0632 615 56.289V24.1084C615 22.3342 613.54 20.896 611.739 20.896Z" fill="#3E3D98"/>
<path d="M597.439 49.0939V51.8367L593.873 51.7991V49.1691C591.375 49 588.954 48.3049 587.447 47.3844L589.392 43.1387C591.051 44.1156 593.244 44.7543 595.189 44.7731C596.867 44.7731 597.477 44.4537 597.477 43.8526C597.477 41.6734 587.752 43.3454 587.81 36.9017C587.829 34.1026 589.907 31.7731 594.045 31.2283V28.5231L597.61 28.5607V31.2095C599.441 31.3974 601.252 31.8858 602.682 32.6936L600.871 36.9205C599.136 36.0376 597.515 35.6055 595.99 35.5867C594.254 35.5867 593.701 36.0563 593.701 36.6575C593.701 38.7428 603.426 37.0896 603.369 43.4769C603.35 46.1445 601.367 48.4552 597.477 49.0939H597.439Z" fill="white"/>
</g>
<defs>
<clipPath id="clip0_323_2">
<rect width="630.481" height="655.96" fill="white"/>
</clipPath>
</defs>
</svg>
